<svg id="Capa_1" enable-background="new 0 0 511.76 511.76" height="512" viewBox="0 0 511.76 511.76" width="512" xmlns="http://www.w3.org/2000/svg"><g><g><path d="m410.286 103.65v148.13c0 9.39-7.61 17-17 17h-63.19v-30h48.19c1.11 0 2-.89 2-2v-118.13c0-1.1-.89-2-2-2h-48.19v-30h63.19c9.39 0 17 7.61 17 17z" fill="#fff0af"/><path d="m330.096 86.65h32.99v30h-32.99z" fill="#ffe07d"/><path d="m330.096 238.78h32.99v30h-32.99z" fill="#ffe07d"/><path d="m293.53 312.354h-154.897c-25.036 0-45.332-20.296-45.332-45.332v-211.941c0-6.627 5.373-12 12-12h221.561c6.627 0 12 5.373 12 12v211.941c0 25.036-20.296 45.332-45.332 45.332z" fill="#fff0af"/><path d="m163.636 312.35h-25c-25.04 0-45.34-20.29-45.34-45.33v-211.94c0-6.63 5.38-12 12-12h25c-6.62 0-12 5.37-12 12v211.94c0 25.04 20.3 45.33 45.34 45.33z" fill="#ffe07d"/><path d="m218.073 246.163c-.781.781-2.047.781-2.828 0l-60.189-60.189c-46.007-46.007 13.919-106.848 60.212-62.959.785.744 1.998.744 2.785.002 44.281-41.767 104.15 19.017 60.21 62.957z" fill="#fea3c6"/><path d="m180.056 185.97 49.11 49.11-11.09 11.08c-.78.78-2.05.78-2.83 0l-60.19-60.19c-38.93-38.92-2.02-88.46 38.3-76.21-27.76 8.73-43.79 45.73-13.3 76.21z" fill="#fe93bb"/><path d="m41.569 336.311h423.14v109.565h-423.14z" fill="#f2fbff"/><path d="m41.566 336.31h27v109.57h-27z" fill="#d8ecfe"/><path d="m496.263 468.677h-461.762c-14.912 0-27-12.088-27-27v-102.823c0-14.912 12.088-27 27-27h461.762c4.418 0 8 3.582 8 8v22.657c0 4.418-3.582 8-8 8h-448.105c-1.105 0-2 .895-2 2v75.509c0 1.105.895 2 2 2h448.105c4.418 0 8 3.582 8 8v22.657c0 4.418-3.582 8-8 8z" fill="#8795de"/><path d="m59.497 468.68h-25c-14.91 0-27-12.09-27-27v-102.83c0-14.91 12.09-27 27-27h25c-14.91 0-27 12.09-27 27v102.83c0 14.91 12.09 27 27 27z" fill="#6c7fd8"/><path d="m389.316 382.75v59.64c0 1.32-1.25 2.28-2.52 1.93l-26.52-7.19c-.34-.1-.7-.1-1.04 0l-26.61 7.19c-1.28.35-2.53-.61-2.53-1.93v-59.64z" fill="#fea3c6"/><path d="m330.096 382.75h25v55.5l-22.47 6.07c-1.28.35-2.53-.61-2.53-1.93z" fill="#fe93bb"/></g><g><path d="m496.26 358.01c8.547 0 15.5-6.953 15.5-15.5v-22.65c0-8.547-6.953-15.5-15.5-15.5h-165.487c7.536-7.548 12.807-17.313 14.752-28.08h47.765c13.509 0 24.5-10.991 24.5-24.5v-148.13c0-13.509-10.991-24.5-24.5-24.5h-46.93v-24.07c0-10.752-8.748-19.5-19.5-19.5h-163.33c-4.142 0-7.5 3.358-7.5 7.5s3.358 7.5 7.5 7.5h163.33c2.481 0 4.5 2.019 4.5 4.5v211.94c0 18.425-13.598 34.386-31.706 37.34h-167.151c-18.107-2.955-31.703-18.916-31.703-37.34v-25.96c0-4.142-3.358-7.5-7.5-7.5s-7.5 3.358-7.5 7.5v25.96c0 14.377 5.939 27.677 15.588 37.34h-66.888c-19.023 0-34.5 15.477-34.5 34.5v102.82c0 19.023 15.477 34.5 34.5 34.5h393.77c4.142 0 7.5-3.358 7.5-7.5s-3.358-7.5-7.5-7.5h-393.77c-10.752 0-19.5-8.748-19.5-19.5v-102.82c0-10.752 8.748-19.5 19.5-19.5h461.76c.276 0 .5.224.5.5v22.65c0 .276-.224.5-.5.5h-448.1c-5.238 0-9.5 4.262-9.5 9.5v75.51c0 5.238 4.262 9.5 9.5 9.5h274.44v4.87c0 2.98 1.355 5.729 3.719 7.543 1.685 1.293 3.695 1.968 5.76 1.968.831 0 1.67-.109 2.5-.332l25.174-6.812 25.043 6.792c2.879.793 5.893.211 8.269-1.599 2.38-1.813 3.745-4.569 3.745-7.562v-4.87h99.45c.276 0 .5.224.5.5v22.66c0 .276-.224.5-.5.5h-32.99c-4.142 0-7.5 3.358-7.5 7.5s3.358 7.5 7.5 7.5h32.99c8.547 0 15.5-6.953 15.5-15.5v-22.66c0-8.547-6.953-15.5-15.5-15.5h-24.05v-64.51h24.05zm-149.9-233.86h26.43v107.13h-26.43zm46.93-30c5.238 0 9.5 4.262 9.5 9.5v148.13c0 5.238-4.262 9.5-9.5 9.5h-46.93v-15h31.93c5.238 0 9.5-4.262 9.5-9.5v-118.13c0-5.238-4.262-9.5-9.5-9.5h-31.93v-15zm-30.998 335.755c-1.661-.468-3.409-.469-5.071-.001l-19.621 5.309v-44.967h44.21v44.952zm94.918-7.385h-60.4v-32.274h12.722c4.142 0 7.5-3.358 7.5-7.5s-3.358-7.5-7.5-7.5h-99.652c-4.142 0-7.5 3.358-7.5 7.5s3.358 7.5 7.5 7.5h12.72v32.274h-268.94v-64.51h403.55z"/><path d="m93.3 213.56c4.142 0 7.5-3.358 7.5-7.5v-150.98c0-2.481 2.019-4.5 4.5-4.5h23.23c4.142 0 7.5-3.358 7.5-7.5s-3.358-7.5-7.5-7.5h-23.23c-10.752 0-19.5 8.748-19.5 19.5v150.98c0 4.142 3.358 7.5 7.5 7.5z"/><path d="m149.75 191.278 60.191 60.191c1.852 1.85 4.284 2.775 6.716 2.775s4.864-.925 6.716-2.775c0-.001.001-.001.001-.002l60.189-60.189c11.646-11.646 17.716-25.355 17.553-39.646-.146-12.772-5.299-25.03-14.511-34.514-16.545-17.037-45.301-22.938-69.926-2.87-25.536-21.164-54.856-15.794-71.454 1.251-9.28 9.53-14.316 21.994-14.182 35.095.147 14.526 6.617 28.594 18.707 40.684zm6.221-65.314c6.137-6.302 14.957-10.534 24.833-10.534 9.287 0 19.508 3.744 29.302 13.029 3.666 3.473 9.416 3.48 13.09.015 19.195-18.106 40.747-13.161 52.649-.906 12.315 12.68 16.198 34.018-2.888 53.104l-56.3 56.3-56.3-56.3c-20.179-20.179-16.743-42.017-4.386-54.708z"/></g></g></svg>