<?xml version="1.0" encoding="utf-8"?>
<!-- Generator: Adobe Illustrator 25.0.0, SVG Export Plug-In . SVG Version: 6.00 Build 0)  -->
<svg width='40px' height='40px' version="1.1" id="Layer_1" xmlns="http://www.w3.org/2000/svg" xmlns:xlink="http://www.w3.org/1999/xlink" x="0px" y="0px"
	 viewBox="0 0 40 40" style="enable-background:new 0 0 40 40;" xml:space="preserve">
<style type="text/css">
	.st0{fill:#EEEEEE;}
	.st1{fill:#444444;}
</style>
<g id="Surfaces">
	<g id="Drawing_Surface">
		<g id="Outline_no_shadow">
			<path class="st0" d="M7.1,0.5h25.8c3.9,0,7.1,3.2,7.1,7.1v24.8c0,3.9-3.2,7.1-7.1,7.1H7.1c-3.9,0-7.1-3.2-7.1-7.1V7.6
				C0,3.7,3.2,0.5,7.1,0.5z"/>
		</g>
	</g>
</g>
<path class="st1" d="M34.1,27.7c-1,0.3-1.6,0-2.2-0.9l-4-5.6l-0.6-0.8L22.5,27c-0.5,0.8-1.1,1.1-2.1,0.9l6.1-8.2l-5.7-7.4
	c0.9-0.2,1.6-0.1,2.2,0.8l4.2,5.7l4.2-5.7c0.5-0.8,1.1-1,2.1-0.8l-2.1,2.9l-3,3.9c-0.3,0.4-0.3,0.8,0,1.2L34.1,27.7z M5.9,19.5
	l0.5-2.4c1.4-4.8,6.9-6.9,10.7-3.9c2.2,1.7,2.8,4.2,2.7,7.1H7.2c-0.2,5,3.4,8,8,6.4c1.6-0.5,2.6-1.8,3-3.4c0.3-0.8,0.6-0.9,1.4-0.7
	c-0.3,2-1.2,3.6-3,4.6c-2.7,1.5-6.5,1-8.6-1.1c-1.2-1.3-1.7-2.8-2-4.6c0-0.3-0.1-0.5-0.2-0.8C5.9,20.4,5.9,20,5.9,19.5L5.9,19.5z
	 M7.2,19.1h11.4c-0.1-3.6-2.3-6.2-5.4-6.2C9.8,12.9,7.4,15.4,7.2,19.1L7.2,19.1L7.2,19.1z"/>
</svg>
