<?xml version="1.0" encoding="utf-8"?>
<!-- Generator: Adobe Illustrator 25.0.1, SVG Export Plug-In . SVG Version: 6.00 Build 0)  -->
<svg width="40px" height="40px" version="1.1" id="Layer_1" xmlns="http://www.w3.org/2000/svg" xmlns:xlink="http://www.w3.org/1999/xlink" x="0px" y="0px"
	 viewBox="0 0 40 40" style="enable-background:new 0 0 40 40;" xml:space="preserve">
<style type="text/css">
	.st0{fill:#336791;}
	.st1{stroke:#000000;stroke-width:3.3585;stroke-miterlimit:10;}
	.st2{fill:none;stroke:#FFFFFF;stroke-width:1.1195;stroke-linecap:round;stroke-linejoin:round;stroke-miterlimit:10;}
	.st3{fill:none;stroke:#FFFFFF;stroke-width:1.1195;stroke-linecap:round;stroke-linejoin:bevel;stroke-miterlimit:10;}
	.st4{fill:#FFFFFF;stroke:#FFFFFF;stroke-width:0.3732;stroke-miterlimit:10;}
	.st5{fill:#FFFFFF;stroke:#FFFFFF;stroke-width:0.1866;stroke-miterlimit:10;}
	.st6{fill:none;stroke:#FFFFFF;stroke-width:0.2694;stroke-linecap:round;stroke-linejoin:round;stroke-miterlimit:10;}
</style>
<g id="Surfaces">
	<g id="Drawing_Surface">
		<g id="Outline_no_shadow">
			<path class="st0" d="M7.1,0.5h25.8c3.9,0,7.1,3.2,7.1,7.1v24.8c0,3.9-3.2,7.1-7.1,7.1H7.1c-3.9,0-7.1-3.2-7.1-7.1V7.6
				C0,3.7,3.2,0.5,7.1,0.5z"/>
		</g>
	</g>
</g>
<g id="Layer_x0020_3">
	<path class="st1" d="M27.9,26.8c0.2-1.6,0.1-1.8,1.3-1.6l0.3,0c0.9,0,2.1-0.1,2.8-0.5c1.5-0.7,2.4-1.9,0.9-1.6
		c-3.4,0.7-3.6-0.4-3.6-0.4c3.6-5.3,5.1-12.1,3.8-13.7c-3.5-4.5-9.6-2.4-9.7-2.3l0,0c-0.7-0.1-1.4-0.2-2.3-0.2
		c-1.5,0-2.7,0.4-3.6,1.1c0,0-10.9-4.5-10.4,5.6c0.1,2.2,3.1,16.3,6.6,12c1.3-1.6,2.6-2.9,2.6-2.9c0.6,0.4,1.4,0.6,2.2,0.6l0.1-0.1
		c0,0.2,0,0.4,0,0.6c-0.9,1-0.6,1.2-2.5,1.6c-1.9,0.4-0.8,1.1-0.1,1.2c0.9,0.2,2.9,0.5,4.2-1.4l-0.1,0.2c0.4,0.3,0.3,2.1,0.4,3.3
		c0.1,1.3,0.1,2.5,0.4,3.2c0.3,0.7,0.6,2.5,3,2C26.2,33.2,27.7,32.6,27.9,26.8"/>
	<path class="st0" d="M33.2,23.3c-3.4,0.7-3.6-0.4-3.6-0.4c3.6-5.3,5.1-12.1,3.8-13.7c-3.5-4.5-9.6-2.4-9.7-2.3l0,0
		c-0.7-0.1-1.4-0.2-2.3-0.2c-1.5,0-2.7,0.4-3.6,1.1c0,0-10.9-4.5-10.4,5.6c0.1,2.2,3.1,16.3,6.6,12c1.3-1.6,2.6-2.9,2.6-2.9
		c0.6,0.4,1.4,0.6,2.2,0.6l0.1-0.1c0,0.2,0,0.4,0,0.6c-0.9,1-0.6,1.2-2.5,1.6c-1.9,0.4-0.8,1.1-0.1,1.2c0.9,0.2,2.9,0.5,4.2-1.4
		l-0.1,0.2c0.4,0.3,0.6,1.9,0.6,3.3c0,1.4-0.1,2.4,0.2,3.2c0.3,0.8,0.6,2.5,3,2c2-0.4,3.1-1.5,3.2-3.4c0.1-1.3,0.3-1.1,0.4-2.3
		l0.2-0.6c0.2-1.8,0-2.4,1.3-2.1l0.3,0c0.9,0,2.1-0.1,2.8-0.5C33.8,24.1,34.7,23,33.2,23.3L33.2,23.3z"/>
	<path class="st2" d="M20.6,24.3c-0.1,3.3,0,6.7,0.4,7.5c0.3,0.8,1,2.4,3.4,1.9c2-0.4,2.7-1.3,3.1-3.1c0.2-1.4,0.7-5.1,0.7-5.9"/>
	<path class="st2" d="M17.7,7.5c0,0-10.9-4.5-10.4,5.7c0.1,2.2,3.1,16.3,6.6,12c1.3-1.6,2.5-2.8,2.5-2.8"/>
	<path class="st2" d="M23.6,6.7c-0.4,0.1,6.1-2.4,9.7,2.3c1.3,1.7-0.2,8.4-3.8,13.7"/>
	<path class="st3" d="M29.6,22.8c0,0,0.2,1.2,3.6,0.4c1.5-0.3,0.6,0.9-0.9,1.6c-1.2,0.6-4,0.7-4.1-0.1
		C28.1,22.7,29.7,23.3,29.6,22.8c-0.1-0.5-0.8-0.9-1.3-2c-0.4-1-5.6-8.6,1.4-7.4c0.3-0.1-1.8-6.7-8.4-6.8c-6.6-0.1-6.4,8.1-6.4,8.1"
		/>
	<path class="st2" d="M18.8,23.5c-0.9,1-0.6,1.2-2.5,1.6c-1.9,0.4-0.8,1.1-0.1,1.2c0.9,0.2,2.9,0.5,4.2-1.4c0.4-0.6,0-1.5-0.6-1.7
		C19.6,23.1,19.2,23,18.8,23.5z"/>
	<path class="st2" d="M18.7,23.5c-0.1-0.6,0.2-1.3,0.5-2.2c0.5-1.3,1.5-2.5,0.7-6.5c-0.6-3-5-0.6-5-0.2c0,0.4,0.2,2-0.1,4
		c-0.3,2.5,1.6,4.6,3.8,4.4"/>
	<path class="st4" d="M17.7,14.5c0,0.1,0.3,0.5,0.6,0.6c0.4,0,0.7-0.2,0.7-0.4c0-0.1-0.3-0.3-0.6-0.3C18,14.3,17.7,14.4,17.7,14.5
		L17.7,14.5z"/>
	<path class="st5" d="M28.4,14.2c0,0.1-0.3,0.5-0.6,0.6c-0.4,0-0.7-0.2-0.7-0.4c0-0.1,0.3-0.3,0.6-0.3C28.1,14,28.4,14.1,28.4,14.2
		L28.4,14.2z"/>
	<path class="st2" d="M29.7,13.3c0.1,1.1-0.2,1.8-0.3,3c-0.1,1.7,0.8,3.6-0.5,5.5"/>
	<path class="st6" d="M6,9"/>
</g>
</svg>
