<?xml version="1.0" encoding="utf-8"?>
<!-- Generator: Adobe Illustrator 25.0.0, SVG Export Plug-In . SVG Version: 6.00 Build 0)  -->
<svg width='40px' height='40px' version="1.1"
	 id="svg8" xmlns:cc="http://creativecommons.org/ns#" xmlns:dc="http://purl.org/dc/elements/1.1/" xmlns:rdf="http://www.w3.org/1999/02/22-rdf-syntax-ns#" xmlns:sodipodi="http://sodipodi.sourceforge.net/DTD/sodipodi-0.dtd" xmlns:svg="http://www.w3.org/2000/svg"
	 xmlns="http://www.w3.org/2000/svg" xmlns:xlink="http://www.w3.org/1999/xlink" x="0px" y="0px" viewBox="0 0 40 40"
	 style="enable-background:new 0 0 40 40;" xml:space="preserve">
<style type="text/css">
	.st0{fill:#FF6C37;}
	.st1{fill:#FFFFFF;}
</style>
<g id="Surfaces">
	<g id="Drawing_Surface">
		<g id="Outline_no_shadow">
			<path class="st0" d="M7.1,0.5h25.8c3.9,0,7.1,3.2,7.1,7.1v24.8c0,3.9-3.2,7.1-7.1,7.1H7.1c-3.9,0-7.1-3.2-7.1-7.1V7.6
				C0,3.7,3.2,0.5,7.1,0.5z"/>
		</g>
	</g>
</g>
<g>
	<path class="st1" d="M22.4,1.6C12.2,0.3,2.9,7.5,1.6,17.7s5.9,19.5,16.1,20.8c10.2,1.3,19.5-5.9,20.8-16.1c0,0,0,0,0,0
		C39.7,12.2,32.5,2.9,22.4,1.6z"/>
	<path class="st0" d="M31.2,10.3c-0.1,0-0.2,0.2-0.1,0.3c0,0,0,0,0,0c0.1,0.2,0.1,0.5-0.1,0.7c-0.1,0.1-0.1,0.2,0,0.3c0,0,0,0,0,0
		c0,0,0.1,0,0.2,0c0.1,0,0.1,0,0.2-0.1c0.3-0.3,0.4-0.8,0.1-1.2C31.4,10.3,31.2,10.2,31.2,10.3z"/>
	<path class="st0" d="M22.5,0.7C11.8-0.7,2,6.8,0.7,17.5S6.8,38,17.5,39.3c10.7,1.4,20.4-6.2,21.8-16.8C40.7,11.8,33.2,2,22.5,0.7
		C22.5,0.7,22.5,0.7,22.5,0.7z M26.5,12.8c-0.4,0-0.7,0.2-1,0.4l-7.2,7.2l-1.5-1.5C23.9,11.8,25.2,11.7,26.5,12.8z M18.6,20.7
		l7.2-7.2c0.4-0.4,1-0.4,1.4,0c0.2,0.2,0.3,0.5,0.3,0.7c0,0.3-0.1,0.5-0.3,0.7l-7.6,6.7L18.6,20.7z M19.1,21.8l-1.8,0.5
		c0,0-0.1,0-0.1,0c0,0,0-0.1,0-0.1l1.1-1.1L19.1,21.8z M14.6,21.1l1.9-1.9l1.4,1.5l-3.3,0.7c-0.1,0-0.1,0-0.2-0.1
		C14.5,21.2,14.5,21.1,14.6,21.1L14.6,21.1z M8.6,31c0,0-0.1,0-0.1-0.1c0,0,0-0.1,0-0.1l1.5-1.5l2,2L8.6,31z M12.6,28.9L12.6,28.9
		c-0.2,0.1-0.2,0.2-0.2,0.4l0.3,1.4c0,0.1,0,0.2-0.1,0.2c-0.1,0.1-0.2,0.1-0.2,0l-2-2l6.1-6.1l3-0.6l1.4,1.4
		C18.4,25.7,15.6,27.5,12.6,28.9L12.6,28.9L12.6,28.9z M21.2,23.4L19.8,22l7.6-6.7c0.1-0.1,0.1-0.1,0.2-0.2
		C27.4,17.3,24.3,20.3,21.2,23.4z M27.1,12.9C26,11.7,26,9.8,27.2,8.7c1.1-1,2.7-1.1,3.9-0.2l-2.6,2.6c-0.1,0.1-0.1,0.2,0,0.3l2,2
		C29.4,14,28,13.7,27.1,12.9L27.1,12.9z M31.3,12.9c-0.1,0.1-0.3,0.3-0.4,0.4l-2-2l2.5-2.5C32.5,9.9,32.4,11.7,31.3,12.9z"/>
</g>
</svg>
