<?xml version="1.0" encoding="utf-8"?>
<!-- Generator: Adobe Illustrator 25.0.0, SVG Export Plug-In . SVG Version: 6.00 Build 0)  -->
<svg width='40px' height='40px' version="1.1" id="Layer_1" xmlns="http://www.w3.org/2000/svg" xmlns:xlink="http://www.w3.org/1999/xlink" x="0px" y="0px"
	 viewBox="0 0 40 40" style="enable-background:new 0 0 40 40;" xml:space="preserve">
<style type="text/css">
	.st0{fill:#764ABC;}
	.st1{fill:#FFFFFF;}
</style>
<g id="Surfaces">
	<g id="Drawing_Surface">
		<g id="Outline_no_shadow">
			<path class="st0" d="M7.1,0.5h25.8c3.9,0,7.1,3.2,7.1,7.1v24.8c0,3.9-3.2,7.1-7.1,7.1H7.1c-3.9,0-7.1-3.2-7.1-7.1V7.6
				C0,3.7,3.2,0.5,7.1,0.5z"/>
		</g>
	</g>
</g>
<g>
	<path class="st1" d="M25,24.9c1-0.1,1.7-1,1.7-1.9s-0.9-1.8-1.9-1.8h-0.1c-1.1,0-1.9,0.9-1.8,1.9c0,0.5,0.3,1,0.5,1.2
		c-1.1,2.2-2.9,3.9-5.5,5.2c-1.8,1-3.6,1.2-5.5,1.1c-1.5-0.2-2.6-0.9-3.4-1.9c-1.1-1.7-1.1-3.4-0.3-5.2c0.6-1.2,1.7-2.2,2.3-2.6
		c-0.2-0.4-0.4-1.1-0.4-1.7c-4.9,3.4-4.3,8.2-2.8,10.4c1.1,1.7,3.4,2.7,5.8,2.7c0.7,0,1.3-0.1,2-0.3C20,31.3,23.3,28.7,25,24.9z"/>
	<path class="st1" d="M31,20.8c-2.6-3-6.3-4.6-10.6-4.6h-0.5c-0.3-0.6-1-1-1.7-1h-0.1c-1.1,0-1.9,0.9-1.8,1.9c0,1,0.9,1.8,1.9,1.8
		h0.1c0.7,0,1.4-0.5,1.7-1.1h0.6c2.6,0,4.9,0.7,7.1,2.2c1.7,1.1,2.9,2.6,3.5,4.2c0.5,1.4,0.5,2.7-0.1,4c-1,1.8-2.5,2.7-4.6,2.7
		c-1.3,0-2.6-0.4-3.3-0.7c-0.4,0.4-1.1,0.9-1.5,1.2c1.4,0.7,2.9,1.1,4.3,1.1c3.2,0,5.6-1.8,6.4-3.5C33.5,27,33.4,23.6,31,20.8z"/>
	<path class="st1" d="M14,25.5c0,1,0.9,1.8,1.9,1.8H16c1.1,0,1.9-0.9,1.8-1.9c0-1-0.9-1.8-1.9-1.8h-0.1c-0.1,0-0.2,0-0.3,0
		c-1.4-2.3-1.9-4.8-1.8-7.4c0.2-2,0.8-3.7,1.9-5.2c1-1.2,2.8-1.9,4.1-1.9c3.5-0.1,5,4.3,5.1,6.1c0.4,0.1,1.1,0.4,1.7,0.5
		c-0.4-5.4-3.7-8.2-7-8.2c-3,0-5.8,2.2-6.9,5.4c-1.5,4.2-0.5,8.4,1.3,11.6C14,24.8,13.9,25.1,14,25.5z"/>
</g>
</svg>
