<?xml version="1.0" encoding="utf-8"?>
<!-- Generator: Adobe Illustrator 25.0.0, SVG Export Plug-In . SVG Version: 6.00 Build 0)  -->
<svg width='40px' height='40px' version="1.1" id="Layer_1" xmlns="http://www.w3.org/2000/svg" xmlns:xlink="http://www.w3.org/1999/xlink" x="0px" y="0px"
	 viewBox="0 0 40 40" style="enable-background:new 0 0 40 40;" xml:space="preserve">
<style type="text/css">
	.st0{fill:#CF649A;}
	.st1{fill:#FFFFFF;}
</style>
<g id="Surfaces">
	<g id="Drawing_Surface">
		<g id="Outline_no_shadow">
			<path class="st0" d="M7.1,0.5h25.8c3.9,0,7.1,3.2,7.1,7.1v24.8c0,3.9-3.2,7.1-7.1,7.1H7.1c-3.9,0-7.1-3.2-7.1-7.1V7.6
				C0,3.7,3.2,0.5,7.1,0.5z"/>
		</g>
	</g>
</g>
<path class="st1" d="M30.7,21.6c-1,0-1.9,0.3-2.7,0.6c-0.3-0.6-0.6-1-0.6-1.4c-0.1-0.4-0.1-0.7-0.1-1.2c0.1-0.5,0.4-1.2,0.4-1.3
	c0-0.1-0.1-0.3-0.7-0.3c-0.6,0-1.1,0.1-1.2,0.3c-0.1,0.2-0.2,0.5-0.2,0.9c-0.1,0.5-1.2,2.5-1.8,3.5c-0.2-0.4-0.4-0.7-0.4-1
	c-0.1-0.4-0.1-0.7-0.1-1.2c0.1-0.5,0.4-1.2,0.4-1.3c0-0.1-0.1-0.3-0.7-0.3c-0.6,0-1.1,0.1-1.2,0.3c-0.1,0.2-0.1,0.5-0.2,0.9
	c-0.1,0.4-1.6,3.6-1.9,4.4c-0.2,0.4-0.4,0.8-0.5,1s0,0,0,0c-0.1,0.2-0.2,0.3-0.2,0.3v0c-0.1,0.1-0.2,0.3-0.2,0.3c0,0-0.1-0.4,0-0.9
	c0.2-1.1,0.7-2.9,0.7-2.9c0,0,0.1-0.3-0.3-0.5c-0.4-0.2-0.6,0.1-0.6,0.1s-0.1,0.1-0.1,0.1s0.5-2-0.9-2c-0.9,0-2,0.9-2.6,1.8
	c-0.4,0.2-1.2,0.6-2,1.1c-0.3,0.2-0.6,0.4-1,0.5L12,23.5c-1.7-1.8-4.7-3-4.6-5.4c0-0.9,0.3-3.1,5.9-5.9c4.5-2.3,8.2-1.6,8.8-0.3
	c0.9,2-1.9,5.6-6.7,6.2c-1.8,0.2-2.7-0.5-3-0.8c-0.2-0.3-0.3-0.3-0.4-0.2c-0.2,0.1-0.1,0.3,0,0.5c0.1,0.4,0.7,1,1.7,1.3
	c0.9,0.3,3,0.4,5.5-0.5c2.9-1.1,5.1-4.2,4.4-6.7c-0.7-2.6-5-3.5-9.1-2c-2.4,0.9-5.1,2.2-7,4c-2.3,2.1-2.6,3.9-2.5,4.7
	c0.5,2.7,4.3,4.5,5.8,5.8c-0.1,0-0.1,0.1-0.2,0.1c-0.8,0.4-3.6,1.9-4.3,3.5c-0.8,1.8,0.1,3.1,0.8,3.3c1.9,0.5,3.9-0.4,5-2
	c1.1-1.6,0.9-3.7,0.4-4.6l0,0l0.6-0.3c0.4-0.2,0.8-0.4,1.1-0.6c-0.2,0.5-0.3,1.1-0.4,2c-0.1,1,0.3,2.3,0.9,2.9
	c0.2,0.2,0.5,0.2,0.7,0.2c0.6,0,0.9-0.5,1.2-1.2c0.4-0.8,0.7-1.7,0.7-1.7S17.1,28,18.2,28c0.4,0,0.9-0.6,1.1-0.9v0c0,0,0,0,0-0.1
	c0-0.1,0.1-0.1,0.1-0.1v0c0.2-0.3,0.6-1,1.1-2.1c0.7-1.5,1.5-3.3,1.5-3.3s0.1,0.5,0.3,1.2c0.1,0.4,0.4,0.9,0.6,1.4
	c-0.2,0.2-0.3,0.4-0.3,0.4l0,0c-0.1,0.2-0.3,0.4-0.5,0.6c-0.6,0.7-1.3,1.5-1.4,1.7c-0.1,0.3-0.1,0.5,0.1,0.6
	c0.2,0.1,0.4,0.1,0.7,0.1c0.5,0,0.9-0.2,1.1-0.2c0.3-0.1,0.6-0.3,0.9-0.5c0.6-0.4,0.9-1,0.9-1.8c0-0.4-0.2-0.9-0.3-1.3
	c0.1-0.1,0.1-0.2,0.2-0.2c0.9-1.3,1.6-2.8,1.6-2.8s0.1,0.5,0.3,1.2c0.1,0.4,0.3,0.8,0.5,1.2c-0.9,0.7-1.4,1.5-1.6,2
	c-0.3,1-0.1,1.4,0.4,1.5c0.2,0,0.6-0.1,0.8-0.2c0.3-0.1,0.7-0.3,1-0.5c0.6-0.4,1.1-1,1.1-1.8c0-0.4-0.1-0.7-0.2-1.1
	c0.7-0.3,1.7-0.5,2.9-0.3c2.6,0.3,3.1,1.9,3,2.6c-0.1,0.7-0.6,1-0.8,1.2c-0.2,0.1-0.2,0.2-0.2,0.2c0,0.1,0.1,0.1,0.3,0.1
	c0.2,0,1.4-0.6,1.4-1.8C34.9,23.4,33.4,21.6,30.7,21.6L30.7,21.6z M10.8,28.3c-0.9,0.9-2,1.3-2.6,1C7.7,29,7.9,27.6,9,26.7
	c0.6-0.6,1.5-1.2,2-1.5c0.1-0.1,0.3-0.2,0.5-0.3c0,0,0.1,0,0.1,0c0,0,0.1-0.1,0.1-0.1C12.1,26.1,11.7,27.4,10.8,28.3L10.8,28.3z
	 M17,24.1c-0.3,0.7-0.9,2.6-1.3,2.5c-0.3-0.1-0.5-1.5-0.1-2.9c0.2-0.7,0.7-1.5,1-1.9c0.5-0.5,1-0.7,1.1-0.5
	C18,21.6,17.2,23.7,17,24.1z M22.2,26.6c-0.1,0.1-0.2,0.1-0.3,0.1c0,0,0.1-0.1,0.1-0.1s0.6-0.7,0.9-1c0.1-0.2,0.3-0.4,0.5-0.6V25
	C23.3,25.8,22.5,26.3,22.2,26.6z M26.1,25.7c-0.1-0.1-0.1-0.3,0.2-1c0.1-0.3,0.4-0.7,0.9-1.1c0.1,0.2,0.1,0.3,0.1,0.5
	C27.3,25.1,26.6,25.5,26.1,25.7z"/>
</svg>
