<?xml version="1.0" encoding="utf-8"?>
<!-- Generator: Adobe Illustrator 25.0.0, SVG Export Plug-In . SVG Version: 6.00 Build 0)  -->
<svg width='40px' height='40px' version="1.1" id="Layer_1" xmlns="http://www.w3.org/2000/svg" xmlns:xlink="http://www.w3.org/1999/xlink" x="0px" y="0px"
	 viewBox="0 0 40 40" style="enable-background:new 0 0 40 40;" xml:space="preserve">
<style type="text/css">
	.st0{fill:#EDEBE9;}
	.st1{fill:#0065A9;}
	.st2{fill:#007ACC;}
	.st3{fill:#1F9CF0;}
	.st4{opacity:0.25;}
	.st5{fill-rule:evenodd;clip-rule:evenodd;fill:url(#SVGID_1_);}
</style>
<g id="Surfaces">
	<g id="Drawing_Surface">
		<g id="Outline_no_shadow">
			<path class="st0" d="M7.1,0.5h25.8c3.9,0,7.1,3.2,7.1,7.1v24.8c0,3.9-3.2,7.1-7.1,7.1H7.1c-3.9,0-7.1-3.2-7.1-7.1V7.6
				C0,3.7,3.2,0.5,7.1,0.5z"/>
		</g>
	</g>
</g>
<g>
	<path class="st1" d="M34.4,7.8l-6.4-3c-0.7-0.4-1.7-0.2-2.2,0.4L5,24.2c-0.6,0.6-0.6,1.4,0,1.9l1.7,1.6c0.5,0.5,1.2,0.5,1.7,0.1
		L33.5,8.7c0.8-0.6,2,0,2,1V9.6C35.5,8.8,35.2,8.2,34.4,7.8z"/>
	<g>
		<path class="st2" d="M34.4,32.1l-6.4,3c-0.7,0.4-1.7,0.2-2.2-0.4L5,15.8c-0.6-0.6-0.6-1.4,0-1.9l1.7-1.6c0.5-0.5,1.2-0.5,1.7-0.1
			l25.1,19.1c0.8,0.6,2,0,2-1v0.1C35.5,31.1,35.2,31.8,34.4,32.1z"/>
	</g>
	<g>
		<path class="st3" d="M28.1,35.2c-0.7,0.4-1.7,0.2-2.2-0.4c0.7,0.7,1.9,0.2,1.9-0.8V6c0-1-1.2-1.5-1.9-0.8c0.6-0.6,1.5-0.7,2.2-0.4
			l6.4,3c0.6,0.3,1.1,1,1.1,1.7v20.8c0,0.7-0.5,1.4-1.1,1.7L28.1,35.2z"/>
	</g>
	<g class="st4">
		
			<linearGradient id="SVGID_1_" gradientUnits="userSpaceOnUse" x1="15345.3105" y1="-9435.376" x2="15345.3105" y2="-9632.5137" gradientTransform="matrix(0.1562 0 0 -0.1562 -2376.9375 -1469.3439)">
			<stop  offset="0" style="stop-color:#FFFFFF"/>
			<stop  offset="1" style="stop-color:#FFFFFF;stop-opacity:0"/>
		</linearGradient>
		<path class="st5" d="M26.5,35.3c0.5,0.2,1,0.2,1.6-0.1l6.4-3c0.6-0.3,1.1-1,1.1-1.7V9.6c0-0.7-0.5-1.4-1.1-1.7l-6.4-3
			c-0.6-0.3-1.4-0.3-1.9,0.2c-0.1,0.1-0.2,0.1-0.3,0.2L13.6,16.3l-5.3-4.1c-0.5-0.4-1.2-0.4-1.7,0.1l-1.7,1.6
			c-0.6,0.6-0.6,1.4,0,1.9l4.6,4.2l-4.6,4.2c-0.6,0.6-0.6,1.4,0,1.9l1.7,1.6c0.5,0.5,1.2,0.5,1.7,0.1l5.3-4.2l12.2,11.1
			C26.1,35,26.3,35.2,26.5,35.3z M27.8,13l-9.3,7l9.3,7V13z"/>
	</g>
</g>
</svg>
