<?xml version="1.0" encoding="UTF-8" standalone="no"?>
<!DOCTYPE svg PUBLIC "-//W3C//DTD SVG 1.1//EN" "http://www.w3.org/Graphics/SVG/1.1/DTD/svg11.dtd">
<svg width="100%" height="100%" viewBox="0 0 1400 450" version="1.1" xmlns="http://www.w3.org/2000/svg" xmlns:xlink="http://www.w3.org/1999/xlink" xml:space="preserve" xmlns:serif="http://www.serif.com/" style="fill-rule:evenodd;clip-rule:evenodd;stroke-linecap:square;stroke-linejoin:round;stroke-miterlimit:1.5;">
    <g id="elements-to-virtual-dom" serif:id="elements to virtual dom" transform="matrix(1,0,0,0.749158,0,0)">
        <rect x="0" y="0" width="1400" height="600" style="fill:white;"/>
        <g transform="matrix(1,0,0,1.33483,0,53.3933)">
            <g transform="matrix(1,-0,-0,1,0,-40)">
                <path d="M992.544,80.946C992.544,77.634 989.855,74.946 986.544,74.946C983.232,74.946 980.544,77.634 980.544,80.946C980.544,84.257 983.232,86.946 986.544,86.946C989.855,86.946 992.544,84.257 992.544,80.946Z"/>
                <path d="M986.544,84.546L986.544,280.088L1019.04,280.088" style="fill:none;stroke:black;stroke-width:4px;"/>
            </g>
        </g>
        <g transform="matrix(1,0,0,1.33483,68.0096,154.041)">
            <g transform="matrix(1,-0,-0,1,-68.0096,-115.401)">
                <path d="M1060.55,156.347C1060.55,153.035 1057.87,150.347 1054.55,150.347C1051.24,150.347 1048.55,153.035 1048.55,156.347C1048.55,159.658 1051.24,162.347 1054.55,162.347C1057.87,162.347 1060.55,159.658 1060.55,156.347Z"/>
                <path d="M1054.55,159.947L1054.55,203.088L1084.03,203.088" style="fill:none;stroke:black;stroke-width:4px;"/>
            </g>
        </g>
        <g transform="matrix(1,0,0,1.33483,68.0096,340.801)">
            <g transform="matrix(1,-0,-0,1,-68.0096,-255.314)">
                <path d="M1060.55,296.259C1060.55,292.948 1057.87,290.259 1054.55,290.259C1051.24,290.259 1048.55,292.948 1048.55,296.259C1048.55,299.571 1051.24,302.259 1054.55,302.259C1057.87,302.259 1060.55,299.571 1060.55,296.259Z"/>
                <path d="M1054.55,299.859L1054.55,343L1084.03,343" style="fill:none;stroke:black;stroke-width:4px;"/>
            </g>
        </g>
        <g transform="matrix(1,0,0,1.33483,0,53.3933)">
            <path d="M1019.04,100.088L986.544,100.088" style="fill:none;stroke:black;stroke-width:4px;stroke-linecap:round;"/>
        </g>
        <g transform="matrix(1,0,0,1.33483,-3.55271e-15,53.3933)">
            <text x="9.691px" y="25.424px" style="font-family:'CourierNewPS-BoldMT', 'Courier New', monospace;font-weight:700;font-size:24px;fill:rgb(0,121,236);">const</text>
            <text x="96.105px" y="25.424px" style="font-family:'CourierNewPS-BoldMT', 'Courier New', monospace;font-weight:700;font-size:24px;fill:rgb(152,127,0);">navList</text>
            <text x="211.323px" y="25.424px" style="font-family:'CourierNewPS-BoldMT', 'Courier New', monospace;font-weight:700;font-size:24px;">= React.</text>
            <text x="326.542px" y="25.424px" style="font-family:'CourierNewPS-BoldMT', 'Courier New', monospace;font-weight:700;font-size:24px;fill:rgb(152,127,0);">createElement</text>
            <text x="513.773px" y="25.424px" style="font-family:'CourierNewPS-BoldMT', 'Courier New', monospace;font-weight:700;font-size:24px;">(</text>
            <text x="38.495px" y="53.424px" style="font-family:'CourierNewPS-BoldMT', 'Courier New', monospace;font-weight:700;font-size:24px;fill:rgb(208,79,0);">&apos;ul&apos;</text>
            <text x="96.105px" y="53.424px" style="font-family:'CourierNewPS-BoldMT', 'Courier New', monospace;font-weight:700;font-size:24px;">,</text>
            <text x="38.495px" y="81.424px" style="font-family:'CourierNewPS-BoldMT', 'Courier New', monospace;font-weight:700;font-size:24px;fill:rgb(0,121,236);">null</text>
            <text x="96.105px" y="81.424px" style="font-family:'CourierNewPS-BoldMT', 'Courier New', monospace;font-weight:700;font-size:24px;">,</text>
            <text x="38.495px" y="109.424px" style="font-family:'CourierNewPS-BoldMT', 'Courier New', monospace;font-weight:700;font-size:24px;">React.</text>
            <text x="124.909px" y="109.424px" style="font-family:'CourierNewPS-BoldMT', 'Courier New', monospace;font-weight:700;font-size:24px;fill:rgb(152,127,0);">createElement</text>
            <text x="312.14px" y="109.424px" style="font-family:'CourierNewPS-BoldMT', 'Courier New', monospace;font-weight:700;font-size:24px;">(</text>
            <text x="67.3px" y="137.424px" style="font-family:'CourierNewPS-BoldMT', 'Courier New', monospace;font-weight:700;font-size:24px;fill:rgb(208,79,0);">&apos;li&apos;</text>
            <text x="124.909px" y="137.424px" style="font-family:'CourierNewPS-BoldMT', 'Courier New', monospace;font-weight:700;font-size:24px;">,</text>
            <text x="67.3px" y="165.424px" style="font-family:'CourierNewPS-BoldMT', 'Courier New', monospace;font-weight:700;font-size:24px;">{</text>
            <text x="96.105px" y="165.424px" style="font-family:'CourierNewPS-BoldMT', 'Courier New', monospace;font-weight:700;font-size:24px;fill:rgb(152,127,0);">className</text>
            <text x="225.726px" y="165.424px" style="font-family:'CourierNewPS-BoldMT', 'Courier New', monospace;font-weight:700;font-size:24px;">:</text>
            <text x="254.531px" y="165.424px" style="font-family:'CourierNewPS-BoldMT', 'Courier New', monospace;font-weight:700;font-size:24px;fill:rgb(208,79,0);">&apos;selected&apos;</text>
            <text x="412.956px" y="165.424px" style="font-family:'CourierNewPS-BoldMT', 'Courier New', monospace;font-weight:700;font-size:24px;">},</text>
            <text x="67.3px" y="193.424px" style="font-family:'CourierNewPS-BoldMT', 'Courier New', monospace;font-weight:700;font-size:24px;">React.</text>
            <text x="153.714px" y="193.424px" style="font-family:'CourierNewPS-BoldMT', 'Courier New', monospace;font-weight:700;font-size:24px;fill:rgb(152,127,0);">createElement</text>
            <text x="340.945px" y="193.424px" style="font-family:'CourierNewPS-BoldMT', 'Courier New', monospace;font-weight:700;font-size:24px;">(</text>
            <text x="355.347px" y="193.424px" style="font-family:'CourierNewPS-BoldMT', 'Courier New', monospace;font-weight:700;font-size:24px;fill:rgb(208,79,0);">&apos;a&apos;</text>
            <text x="398.554px" y="193.424px" style="font-family:'CourierNewPS-BoldMT', 'Courier New', monospace;font-weight:700;font-size:24px;">, {</text>
            <text x="456.163px" y="193.424px" style="font-family:'CourierNewPS-BoldMT', 'Courier New', monospace;font-weight:700;font-size:24px;fill:rgb(152,127,0);">href</text>
            <text x="513.773px" y="193.424px" style="font-family:'CourierNewPS-BoldMT', 'Courier New', monospace;font-weight:700;font-size:24px;">:</text>
            <text x="542.577px" y="193.424px" style="font-family:'CourierNewPS-BoldMT', 'Courier New', monospace;font-weight:700;font-size:24px;fill:rgb(208,79,0);">&apos;/pets&apos;</text>
            <text x="643.394px" y="193.424px" style="font-family:'CourierNewPS-BoldMT', 'Courier New', monospace;font-weight:700;font-size:24px;">},</text>
            <text x="686.601px" y="193.424px" style="font-family:'CourierNewPS-BoldMT', 'Courier New', monospace;font-weight:700;font-size:24px;fill:rgb(208,79,0);">&apos;Pets&apos;</text>
            <text x="773.015px" y="193.424px" style="font-family:'CourierNewPS-BoldMT', 'Courier New', monospace;font-weight:700;font-size:24px;">),</text>
            <text x="38.495px" y="221.424px" style="font-family:'CourierNewPS-BoldMT', 'Courier New', monospace;font-weight:700;font-size:24px;">),</text>
            <text x="38.495px" y="249.424px" style="font-family:'CourierNewPS-BoldMT', 'Courier New', monospace;font-weight:700;font-size:24px;">React.</text>
            <text x="124.909px" y="249.424px" style="font-family:'CourierNewPS-BoldMT', 'Courier New', monospace;font-weight:700;font-size:24px;fill:rgb(152,127,0);">createElement</text>
            <text x="312.14px" y="249.424px" style="font-family:'CourierNewPS-BoldMT', 'Courier New', monospace;font-weight:700;font-size:24px;">(</text>
            <text x="67.3px" y="277.424px" style="font-family:'CourierNewPS-BoldMT', 'Courier New', monospace;font-weight:700;font-size:24px;fill:rgb(208,79,0);">&apos;li&apos;</text>
            <text x="124.909px" y="277.424px" style="font-family:'CourierNewPS-BoldMT', 'Courier New', monospace;font-weight:700;font-size:24px;">,</text>
            <text x="67.3px" y="305.424px" style="font-family:'CourierNewPS-BoldMT', 'Courier New', monospace;font-weight:700;font-size:24px;fill:rgb(0,121,236);">null</text>
            <text x="124.909px" y="305.424px" style="font-family:'CourierNewPS-BoldMT', 'Courier New', monospace;font-weight:700;font-size:24px;">,</text>
            <text x="67.3px" y="333.424px" style="font-family:'CourierNewPS-BoldMT', 'Courier New', monospace;font-weight:700;font-size:24px;">React.</text>
            <text x="153.714px" y="333.424px" style="font-family:'CourierNewPS-BoldMT', 'Courier New', monospace;font-weight:700;font-size:24px;fill:rgb(152,127,0);">createElement</text>
            <text x="340.945px" y="333.424px" style="font-family:'CourierNewPS-BoldMT', 'Courier New', monospace;font-weight:700;font-size:24px;">(</text>
            <text x="355.347px" y="333.424px" style="font-family:'CourierNewPS-BoldMT', 'Courier New', monospace;font-weight:700;font-size:24px;fill:rgb(208,79,0);">&apos;a&apos;</text>
            <text x="398.554px" y="333.424px" style="font-family:'CourierNewPS-BoldMT', 'Courier New', monospace;font-weight:700;font-size:24px;">, {</text>
            <text x="456.163px" y="333.424px" style="font-family:'CourierNewPS-BoldMT', 'Courier New', monospace;font-weight:700;font-size:24px;fill:rgb(152,127,0);">href</text>
            <text x="513.773px" y="333.424px" style="font-family:'CourierNewPS-BoldMT', 'Courier New', monospace;font-weight:700;font-size:24px;">:</text>
            <text x="542.577px" y="333.424px" style="font-family:'CourierNewPS-BoldMT', 'Courier New', monospace;font-weight:700;font-size:24px;fill:rgb(208,79,0);">&apos;/owners&apos;</text>
            <text x="672.198px" y="333.424px" style="font-family:'CourierNewPS-BoldMT', 'Courier New', monospace;font-weight:700;font-size:24px;">},</text>
            <text x="715.406px" y="333.424px" style="font-family:'CourierNewPS-BoldMT', 'Courier New', monospace;font-weight:700;font-size:24px;fill:rgb(208,79,0);">&apos;Owners&apos;</text>
            <text x="830.624px" y="333.424px" style="font-family:'CourierNewPS-BoldMT', 'Courier New', monospace;font-weight:700;font-size:24px;">),</text>
            <text x="38.495px" y="361.424px" style="font-family:'CourierNewPS-BoldMT', 'Courier New', monospace;font-weight:700;font-size:24px;">),</text>
            <text x="9.691px" y="389.424px" style="font-family:'CourierNewPS-BoldMT', 'Courier New', monospace;font-weight:700;font-size:24px;">);</text>
        </g>
        <g transform="matrix(1,0,0,1.33483,0,53.3933)">
            <rect x="954.048" y="10.225" width="64.991" height="30.519" style="fill:white;stroke:black;stroke-width:2px;stroke-linecap:round;"/>
        </g>
        <g transform="matrix(1,0,0,1.33483,967.277,76.1152)">
            <text x="4.864px" y="15.199px" style="font-family:'CourierNewPS-BoldMT', 'Courier New', monospace;font-weight:700;font-size:24px;fill:rgb(208,79,0);">ul</text>
        </g>
        <g transform="matrix(1.35031,0,0,1.33483,-269.225,53.3933)">
            <rect x="954.048" y="10.225" width="64.991" height="30.519" style="fill:rgb(189,238,255);stroke:black;stroke-width:1.68px;stroke-linecap:round;"/>
        </g>
        <g transform="matrix(4.68864,0,0,1.33483,-3389.16,152.976)">
            <rect x="954.048" y="10.225" width="64.991" height="30.519" style="fill:rgb(189,238,255);stroke:black;stroke-width:0.59px;stroke-linecap:round;"/>
        </g>
        <g transform="matrix(1,0,0,1.33483,64.9911,152.976)">
            <rect x="954.048" y="10.225" width="64.991" height="30.519" style="fill:white;stroke:black;stroke-width:2px;stroke-linecap:round;"/>
        </g>
        <g transform="matrix(1,0,0,1.33483,1032.27,175.698)">
            <text x="4.864px" y="15.199px" style="font-family:'CourierNewPS-BoldMT', 'Courier New', monospace;font-weight:700;font-size:24px;fill:rgb(208,79,0);">li</text>
        </g>
        <g transform="matrix(1,0,0,1.33483,1095.42,175.698)">
            <text x="0px" y="15.199px" style="font-family:'CourierNewPS-BoldMT', 'Courier New', monospace;font-weight:700;font-size:24px;">className</text>
        </g>
        <g transform="matrix(1,0,0,1.33483,1232.88,175.698)">
            <text x="4.748px" y="15.199px" style="font-family:'CourierNewPS-BoldMT', 'Courier New', monospace;font-weight:700;font-size:24px;">&apos;selected&apos;</text>
        </g>
        <g transform="matrix(1,0,0,1.33483,1036.43,76.1152)">
            <text x="0px" y="15.199px" style="font-family:'CourierNewPS-BoldMT', 'Courier New', monospace;font-weight:700;font-size:24px;fill:rgb(7,29,255);">null</text>
        </g>
        <g transform="matrix(3.11475,0,0,1.33483,-1822.6,237.071)">
            <rect x="954.048" y="10.225" width="64.991" height="30.519" style="fill:rgb(189,238,255);stroke:black;stroke-width:0.86px;stroke-linecap:round;"/>
        </g>
        <g transform="matrix(1,0,0,1.33483,129.982,237.071)">
            <rect x="954.048" y="10.225" width="64.991" height="30.519" style="fill:white;stroke:black;stroke-width:2px;stroke-linecap:round;"/>
        </g>
        <g transform="matrix(1,0,0,1.33483,1097.26,259.793)">
            <text x="12.065px" y="15.199px" style="font-family:'CourierNewPS-BoldMT', 'Courier New', monospace;font-weight:700;font-size:24px;fill:rgb(208,79,0);">a</text>
        </g>
        <g transform="matrix(1.55252,0,0,1.33483,-332.153,277.808)">
            <rect x="954.048" y="10.225" width="64.991" height="30.519" style="fill:rgb(150,255,194);stroke:black;stroke-width:1.53px;stroke-linecap:round;"/>
        </g>
        <g transform="matrix(1,0,0,1.33483,1163.26,301.173)">
            <text x="8.287px" y="15.199px" style="font-family:'CourierNewPS-BoldMT', 'Courier New', monospace;font-weight:700;font-size:24px;fill:rgb(208,79,0);">Pets</text>
        </g>
        <g transform="matrix(1,0,0,1.33483,1160.41,259.793)">
            <text x="0px" y="15.199px" style="font-family:'CourierNewPS-BoldMT', 'Courier New', monospace;font-weight:700;font-size:24px;">href</text>
        </g>
        <g transform="matrix(1,0,0,1.33483,1207.41,259.793)">
            <text x="33.408px" y="15.199px" style="font-family:'CourierNewPS-BoldMT', 'Courier New', monospace;font-weight:700;font-size:24px;">&apos;/pets&apos;</text>
        </g>
        <g transform="matrix(1,0,0,1.33483,64.9911,339.853)">
            <rect x="954.048" y="10.225" width="64.991" height="30.519" style="fill:white;stroke:black;stroke-width:2px;stroke-linecap:round;"/>
        </g>
        <g transform="matrix(1,0,0,1.33483,1032.27,362.575)">
            <text x="4.864px" y="15.199px" style="font-family:'CourierNewPS-BoldMT', 'Courier New', monospace;font-weight:700;font-size:24px;fill:rgb(208,79,0);">li</text>
        </g>
        <g transform="matrix(1.35031,0,0,1.33483,-204.234,339.853)">
            <rect x="954.048" y="10.225" width="64.991" height="30.519" style="fill:rgb(189,238,255);stroke:black;stroke-width:1.68px;stroke-linecap:round;"/>
        </g>
        <g transform="matrix(1,0,0,1.33483,1101.42,362.575)">
            <text x="0px" y="15.199px" style="font-family:'CourierNewPS-BoldMT', 'Courier New', monospace;font-weight:700;font-size:24px;fill:rgb(7,29,255);">null</text>
        </g>
        <g transform="matrix(3.63525,0,0,1.33483,-2319.19,423.947)">
            <rect x="954.048" y="10.225" width="64.991" height="30.519" style="fill:rgb(189,238,255);stroke:black;stroke-width:0.75px;stroke-linecap:round;"/>
        </g>
        <g transform="matrix(1,0,0,1.33483,129.982,423.947)">
            <rect x="954.048" y="10.225" width="64.991" height="30.519" style="fill:white;stroke:black;stroke-width:2px;stroke-linecap:round;"/>
        </g>
        <g transform="matrix(1,0,0,1.33483,1097.26,446.669)">
            <text x="12.065px" y="15.199px" style="font-family:'CourierNewPS-BoldMT', 'Courier New', monospace;font-weight:700;font-size:24px;fill:rgb(208,79,0);">a</text>
        </g>
        <g transform="matrix(1.79264,0,0,1.33483,-561.245,464.685)">
            <rect x="954.048" y="10.225" width="64.991" height="30.519" style="fill:rgb(150,255,194);stroke:black;stroke-width:1.38px;stroke-linecap:round;"/>
        </g>
        <g transform="matrix(1,0,0,1.33483,1163.26,488.049)">
            <text x="0.124px" y="15.199px" style="font-family:'CourierNewPS-BoldMT', 'Courier New', monospace;font-weight:700;font-size:24px;fill:rgb(208,79,0);">Owners</text>
        </g>
        <g transform="matrix(1,0,0,1.33483,1160.41,446.669)">
            <text x="0px" y="15.199px" style="font-family:'CourierNewPS-BoldMT', 'Courier New', monospace;font-weight:700;font-size:24px;">href</text>
        </g>
        <g transform="matrix(1,0,0,1.33483,1238.41,446.669)">
            <text x="4.604px" y="15.199px" style="font-family:'CourierNewPS-BoldMT', 'Courier New', monospace;font-weight:700;font-size:24px;">&apos;/owners&apos;</text>
        </g>
        <g transform="matrix(1,0,0,1.33483,0,13.3483)">
            <text x="950.768px" y="21.475px" style="font-family:'Arial-BoldMT', 'Arial', sans-serif;font-weight:700;font-size:30px;">V<tspan x="970.236px 978.571px " y="21.475px 21.475px ">ir</tspan>tual DOM</text>
        </g>
        <g transform="matrix(1,0,0,1.33483,-940,13.3483)">
            <text x="950.768px" y="21.475px" style="font-family:'Arial-BoldMT', 'Arial', sans-serif;font-weight:700;font-size:30px;">JavaScript Code</text>
        </g>
    </g>
</svg>
