<?xml version="1.0" encoding="UTF-8" standalone="no"?>
<!DOCTYPE svg PUBLIC "-//W3C//DTD SVG 1.1//EN" "http://www.w3.org/Graphics/SVG/1.1/DTD/svg11.dtd">
<svg width="100%" height="100%" viewBox="0 0 700 205" version="1.1" xmlns="http://www.w3.org/2000/svg" xmlns:xlink="http://www.w3.org/1999/xlink" xml:space="preserve" xmlns:serif="http://www.serif.com/" style="fill-rule:evenodd;clip-rule:evenodd;stroke-linecap:round;stroke-linejoin:round;stroke-miterlimit:1.5;">
    <g id="Artboard1" transform="matrix(0.683594,0,0,0.341667,0,0)">
        <rect x="0" y="0" width="1024" height="600" style="fill:rgb(246,246,246);"/>
        <g transform="matrix(1.46286,0,0,2.92683,-83.0613,-59.4503)">
            <text x="67.492px" y="67.507px" style="font-family:'CourierNewPS-BoldMT', 'Courier New', monospace;font-weight:700;font-size:12px;fill:rgb(8,0,244);">const</text>
            <text x="110.699px" y="67.507px" style="font-family:'CourierNewPS-BoldMT', 'Courier New', monospace;font-weight:700;font-size:12px;fill:rgb(216,126,0);">Navigation</text>
            <text x="189.912px" y="67.507px" style="font-family:'CourierNewPS-BoldMT', 'Courier New', monospace;font-weight:700;font-size:12px;">= () =&gt; React.</text>
            <text x="290.728px" y="67.507px" style="font-family:'CourierNewPS-BoldMT', 'Courier New', monospace;font-weight:700;font-size:12px;fill:rgb(216,126,0);">createElement</text>
            <text x="384.344px" y="67.507px" style="font-family:'CourierNewPS-BoldMT', 'Courier New', monospace;font-weight:700;font-size:12px;">(</text>
            <text x="81.894px" y="84.507px" style="font-family:'CourierNewPS-BoldMT', 'Courier New', monospace;font-weight:700;font-size:12px;fill:rgb(184,0,52);">&apos;header&apos;</text>
            <text x="139.504px" y="84.507px" style="font-family:'CourierNewPS-BoldMT', 'Courier New', monospace;font-weight:700;font-size:12px;">,</text>
            <text x="81.894px" y="101.507px" style="font-family:'CourierNewPS-BoldMT', 'Courier New', monospace;font-weight:700;font-size:12px;fill:rgb(8,0,244);">null</text>
            <text x="110.699px" y="101.507px" style="font-family:'CourierNewPS-BoldMT', 'Courier New', monospace;font-weight:700;font-size:12px;">,</text>
            <text x="81.894px" y="118.507px" style="font-family:'CourierNewPS-BoldMT', 'Courier New', monospace;font-weight:700;font-size:12px;">React.</text>
            <text x="125.101px" y="118.507px" style="font-family:'CourierNewPS-BoldMT', 'Courier New', monospace;font-weight:700;font-size:12px;fill:rgb(216,126,0);">createElement</text>
            <text x="218.717px" y="118.507px" style="font-family:'CourierNewPS-BoldMT', 'Courier New', monospace;font-weight:700;font-size:12px;">(</text>
            <text x="225.918px" y="118.507px" style="font-family:'CourierNewPS-BoldMT', 'Courier New', monospace;font-weight:700;font-size:12px;fill:rgb(194,70,93);">&apos;h1&apos;</text>
            <text x="254.723px" y="118.507px" style="font-family:'CourierNewPS-BoldMT', 'Courier New', monospace;font-weight:700;font-size:12px;">,</text>
            <text x="269.125px" y="118.507px" style="font-family:'CourierNewPS-BoldMT', 'Courier New', monospace;font-weight:700;font-size:12px;fill:rgb(8,0,244);">null</text>
            <text x="297.93px" y="118.507px" style="font-family:'CourierNewPS-BoldMT', 'Courier New', monospace;font-weight:700;font-size:12px;">,</text>
            <text x="312.332px" y="118.507px" style="font-family:'CourierNewPS-BoldMT', 'Courier New', monospace;font-weight:700;font-size:12px;fill:rgb(194,70,93);">&apos;Petrack&apos;</text>
            <text x="377.142px" y="118.507px" style="font-family:'CourierNewPS-BoldMT', 'Courier New', monospace;font-weight:700;font-size:12px;">),</text>
            <text x="81.894px" y="135.507px" style="font-family:'CourierNewPS-BoldMT', 'Courier New', monospace;font-weight:700;font-size:12px;">React.</text>
            <text x="125.101px" y="135.507px" style="font-family:'CourierNewPS-BoldMT', 'Courier New', monospace;font-weight:700;font-size:12px;fill:rgb(216,126,0);">createElement</text>
            <text x="218.717px" y="135.507px" style="font-family:'CourierNewPS-BoldMT', 'Courier New', monospace;font-weight:700;font-size:12px;">(</text>
            <text x="225.918px" y="135.507px" style="font-family:'CourierNewPS-BoldMT', 'Courier New', monospace;font-weight:700;font-size:12px;fill:rgb(194,70,93);">&apos;nav&apos;</text>
            <text x="261.924px" y="135.507px" style="font-family:'CourierNewPS-BoldMT', 'Courier New', monospace;font-weight:700;font-size:12px;">,</text>
            <text x="276.326px" y="135.507px" style="font-family:'CourierNewPS-BoldMT', 'Courier New', monospace;font-weight:700;font-size:12px;fill:rgb(8,0,244);">null</text>
            <text x="305.131px" y="135.507px" style="font-family:'CourierNewPS-BoldMT', 'Courier New', monospace;font-weight:700;font-size:12px;">),</text>
            <text x="67.492px" y="152.507px" style="font-family:'CourierNewPS-BoldMT', 'Courier New', monospace;font-weight:700;font-size:12px;">);</text>
        </g>
        <g transform="matrix(1.46286,0,0,2.92683,0,7.9175)">
            <text x="10.712px" y="21.236px" style="font-family:'Arial-BoldMT', 'Arial', sans-serif;font-weight:700;font-size:16px;">Source Code</text>
        </g>
        <g transform="matrix(1.46286,0,0,2.92683,528.821,7.9175)">
            <text x="10.712px" y="21.236px" style="font-family:'Arial-BoldMT', 'Arial', sans-serif;font-weight:700;font-size:16px;">V<tspan x="21.095px 25.54px " y="21.236px 21.236px ">ir</tspan>tual DOM T<tspan x="115.321px 121.548px " y="21.236px 21.236px ">re</tspan>e</text>
        </g>
        <g transform="matrix(1,0,0,1.95122,43.8857,117.073)">
            <g transform="matrix(1.09597,0,0,1.53822,132.692,-0.906536)">
                <rect x="412.833" y="39.595" width="258.443" height="24.379" style="fill:rgb(246,246,246);stroke:black;stroke-width:1.11px;"/>
            </g>
            <g transform="matrix(1.46286,0,0,1.5,-17.5543,3)">
                <text x="421.555px" y="54.36px" style="font-family:'CourierNewPS-BoldMT', 'Courier New', monospace;font-weight:700;font-size:12px;">h1</text>
            </g>
            <g transform="matrix(1.46286,0,0,1.5,99.4743,3)">
                <text x="421.555px" y="54.114px" style="font-family:'CourierNewPS-ItalicMT', 'Courier New', monospace;font-style:italic;font-size:12px;">no properties</text>
            </g>
        </g>
        <g transform="matrix(1,0,0,1.95122,43.8857,351.22)">
            <g transform="matrix(1.09597,0,0,1.53822,132.692,-0.906536)">
                <rect x="412.833" y="39.595" width="258.443" height="24.379" style="fill:rgb(246,246,246);stroke:black;stroke-width:1.11px;"/>
            </g>
            <g transform="matrix(1.46286,0,0,1.5,-17.5543,3)">
                <text x="421.555px" y="54.36px" style="font-family:'CourierNewPS-BoldMT', 'Courier New', monospace;font-weight:700;font-size:12px;">nav</text>
            </g>
            <g transform="matrix(1.46286,0,0,1.5,99.4743,3)">
                <text x="421.555px" y="54.114px" style="font-family:'CourierNewPS-ItalicMT', 'Courier New', monospace;font-style:italic;font-size:12px;">no properties</text>
            </g>
        </g>
        <g transform="matrix(1,0,0,1.95122,87.7714,234.146)">
            <g transform="matrix(1.09597,0,0,1.53822,132.692,-0.906536)">
                <rect x="412.833" y="39.595" width="258.443" height="24.379" style="fill:rgb(246,246,246);stroke:black;stroke-width:1.11px;"/>
            </g>
            <g transform="matrix(1.46286,0,0,1.5,-17.5543,3)">
                <text x="421.555px" y="54.36px" style="font-family:'CourierNewPS-BoldMT', 'Courier New', monospace;font-weight:700;font-size:12px;">&apos;Petrack&apos;</text>
            </g>
        </g>
        <g transform="matrix(1,0,0,1.95122,0,0)">
            <g transform="matrix(1.09597,0,0,1.53822,132.692,-0.906536)">
                <rect x="412.833" y="39.595" width="258.443" height="24.379" style="fill:rgb(246,246,246);stroke:black;stroke-width:1.11px;"/>
            </g>
            <g transform="matrix(1.46286,0,0,1.5,-17.5543,3)">
                <text x="421.555px" y="54.36px" style="font-family:'CourierNewPS-BoldMT', 'Courier New', monospace;font-weight:700;font-size:12px;">header</text>
            </g>
            <g transform="matrix(1.46286,0,0,1.5,99.4743,3)">
                <text x="421.555px" y="54.114px" style="font-family:'CourierNewPS-ItalicMT', 'Courier New', monospace;font-style:italic;font-size:12px;">no properties</text>
            </g>
        </g>
        <g transform="matrix(1.46286,0,0,2.92683,0,0)">
            <path d="M414.378,65L414.378,172.561L430,172.561" style="fill:none;stroke:black;stroke-width:1px;"/>
        </g>
        <g transform="matrix(1.46286,0,0,2.92683,0,0)">
            <path d="M414.378,92.5L430,92.5" style="fill:none;stroke:black;stroke-width:1px;"/>
        </g>
        <g transform="matrix(1.46286,0,0,2.92683,0,0)">
            <path d="M444.027,105L444.027,132.5L460,132.5" style="fill:none;stroke:black;stroke-width:1px;"/>
        </g>
        <g transform="matrix(1.46286,0,0,2.92683,0,0)">
            <circle cx="87.58" cy="59.674" r="1" style="fill:none;stroke:rgb(108,141,119);stroke-width:1px;stroke-linejoin:miter;stroke-miterlimit:10;"/>
            <path d="M397,49.406L400,50.906L397,52.406L397,49.406Z" style="fill:rgb(108,141,119);"/>
            <path d="M87.58,59.674L372.211,59.674L372.211,50.906L397.6,50.906" style="fill:none;stroke:rgb(108,141,119);stroke-width:1px;"/>
        </g>
        <g transform="matrix(1.46286,0,0,2.92683,2.92571,0)">
            <g transform="matrix(1,-0,-0,1,-2,0)">
                <path d="M181.356,84.45C181.356,85.002 181.804,85.45 182.356,85.45C182.908,85.45 183.356,85.002 183.356,84.45C183.356,83.898 182.908,83.45 182.356,83.45C181.804,83.45 181.356,83.898 181.356,84.45Z" style="fill:none;stroke:rgb(108,141,119);stroke-width:1px;stroke-linejoin:miter;stroke-miterlimit:10;"/>
                <path d="M427,84.797L430,86.297L427,87.797L427,84.797Z" style="fill:rgb(108,141,119);"/>
                <path d="M182.356,84.45L182.356,79.178L402,79.178L402,86.297L427.6,86.297" style="fill:none;stroke:rgb(108,141,119);stroke-width:1px;"/>
            </g>
        </g>
        <g transform="matrix(1.46286,0,0,2.92683,0,0)">
            <path d="M289.339,106.5C289.339,105.948 288.891,105.5 288.339,105.5C287.787,105.5 287.339,105.948 287.339,106.5C287.339,107.052 287.787,107.5 288.339,107.5C288.891,107.5 289.339,107.052 289.339,106.5Z" style="fill:none;stroke:rgb(108,141,119);stroke-width:1px;stroke-linejoin:miter;stroke-miterlimit:10;"/>
            <path d="M457,125.56L460,127.06L457,128.56L457,125.56Z" style="fill:rgb(108,141,119);"/>
            <path d="M288.339,106.5L288.339,127.06L457.6,127.06" style="fill:none;stroke:rgb(108,141,119);stroke-width:1px;"/>
        </g>
        <g transform="matrix(1.46286,0,0,2.92683,0,0)">
            <path d="M187.896,121.5C187.896,120.948 187.448,120.5 186.896,120.5C186.344,120.5 185.896,120.948 185.896,121.5C185.896,122.052 186.344,122.5 186.896,122.5C187.448,122.5 187.896,122.052 187.896,121.5Z" style="fill:none;stroke:rgb(108,141,119);stroke-width:1px;stroke-linejoin:miter;stroke-miterlimit:10;"/>
            <path d="M427,164.742L430,166.242L427,167.742L427,164.742Z" style="fill:rgb(108,141,119);"/>
            <path d="M186.896,121.5L186.896,166.242L427.6,166.242" style="fill:none;stroke:rgb(108,141,119);stroke-width:1px;"/>
        </g>
    </g>
</svg>
