<svg xmlns="http://www.w3.org/2000/svg" viewBox="0 0 421.82 351.54">
  <path d="M131,49.66c.39-6,1.32-11.81,7.14-15.3,1-.06,1.67-1.36,2.85-.83a13.25,13.25,0,0,0,7.15-4.65,10.49,10.49,0,0,1,7.23-4.75A40.79,40.79,0,0,0,174,15.65c3.51-2.93,7.5-3.73,11.94-4.87,6.46-1.66,13.58-2.87,19.59-6.48,1.58-1,3.16-2.1,5.08-1.63,11,2.73,22.13-1.89,33.16.64,2,.46,4.24-.4,6.14-1.52C257.07,2,264.44,0,271.31,3.7a16,16,0,0,0,7.1,2.24c4.58.77,9,2.11,13.63,2.76,4.29.6,7.52,3.13,10.56,6.11,4.09,4,7.66,8.52,13.49,10.65a26.05,26.05,0,0,0,28.51-6.71c2-2.12,3.09-5.23,6.33-6.05,3.45-1.33,5.77-5.31,10.68-3.39,2.16.85,2.66-3.22,4.46-4.54,1.26,1.87,3.22,2,5.19,2.14-1.79,4.07-4.74,6.75-9.33,6.81-3.14,0-3.61,3.83-6.44,4.09-2.57.18-3.8,2.15-5.29,3.86a29.43,29.43,0,0,1-6.79,6.19c-1,.57-2.31.77-3.06,1.58-4,4.4-9.28,4.17-14.51,4.13-2.47-.8-5.07-.25-7.57-.76a10.53,10.53,0,0,1-2.86-1.18c-5.89-1.42-10.17-5-14.06-9.55A25.77,25.77,0,0,0,284.21,13c-5.6-.64-11.14-1.93-15.69-5.71-4.8-2.17-10-1.51-14.78-.95-8.65,1-17.28.6-25.92.81a13.11,13.11,0,0,0-3.94.49,9.9,9.9,0,0,1-1.62.33,35.67,35.67,0,0,1-8.94-.21c-2.77-.5-5.15.47-7.66,1.5C199.24,11.88,192.57,13.82,186,16c-5.55-1.75-8.27,2.39-11.47,5.54-3,2.42-5.83,5-9.65,6.09-5.26,1.36-10.73,2.2-15.06,5.91-2.89,1.94-5.5,4.24-8.8,5.63-4.38,1.85-5.32,6.6-2.37,10.4a4.9,4.9,0,0,1,1.27,3.17c-.35,3.92-3,8,.75,11.64a8,8,0,0,1,1.21,3.4c-.65,3.83-4.39,6.23-4.69,10.21a30.35,30.35,0,0,1-3.78,9.2,13.87,13.87,0,0,1-4.74,10.09c-2.8,2.49-5.86,3.25-9.07.93-3.55-2.57-5.43-3.07-9.71.75-7,6.22-14.75,12.61-25.07,13.26-1.18.08-2.25.62-3.4.8-4.66.9-7.67,3.86-10.79,7.33a69.36,69.36,0,0,1-16,13.55c-9.88,5.95-21.19,9.7-29.67,17.94-1.76,1.73-3.42,3.51-6,4.27-3.36,1-4,4.42-4.84,7A87.24,87.24,0,0,1,9.53,175a59.76,59.76,0,0,1,19.64-.14c3.72.62,8.15-.46,10.63,3.76,1.49,4.27,5.5,3.45,8.44,3.51,6.33.13,11.12,2.78,15.44,7.05,6.05,6,8.37,6.27,15.84,2.2,3.7-2,6.74-5.51,11.64-4.7.83.13,1.6-1.1,2.49-1.56,3.71-1,7-3,10.49-4.58,3.51-1.73,6-4.16,5.59-8.47.75-4.82,2.44-8.91,7.78-10.23,5.57,3.39,11.38,2.11,17.51,2.06,12.21-.08,24.39-3.81,36.64-.79a3.75,3.75,0,0,0,1.94-.36,15.31,15.31,0,0,1,4-.43,14.22,14.22,0,0,0,4.54-.56c6.8,1.89,12.82,1.24,17.85-4.48,1.32-1.51,4-1.31,6.14-1.65,5.57,1.21,7.39,4.64,4.7,9.6-2,3.66-3.17,7.19-1.38,11.2-.2,4.12-3.06,7.92-1.51,12.26a6.17,6.17,0,0,1,.13,3.4c-2.46,6.68.11,12.11,4.15,17.21,1.91,7.06,6.39,13.08,8.11,20.23a27.77,27.77,0,0,1,1.12,5.33,32.32,32.32,0,0,1-.28,6.14c-.81,2.58-2.53,5-1.9,7.89,1.63.71,2.93-.58,4.37-.46,4.12.93,8.45-1.2,12.48.91,2.19,3.59,1.51,7.42.56,11.1-1.72,6.6-1.68,12.78,2.92,18.33a3.63,3.63,0,0,1,.71,4.2c-2.81,4.67-4.57,10.07-8.92,13.7-1.93,1.6-4.11,3.38-6.07-.09-.2-3.6,3.11-5,4.69-7.46,2.62-3.59,4.56-7.07.95-11.37-1.72-2.06-.73-5.07-1.31-7.59a22.69,22.69,0,0,1,1.11-10.81c.87-2.75-.15-4-3-4.31a16.55,16.55,0,0,0-7.29,1.07c-6.17,2.2-9.37-.48-8.45-7,.49-3.43.65-6.93,2.6-10a6.13,6.13,0,0,0-.32-6.67c-3.94-6.07-6.92-12.43-7.59-19.75a9.73,9.73,0,0,0-1.4-3.18c-.45-.87-.88-1.76-1.35-2.63a13.07,13.07,0,0,1-2.25-9.51c.83-4.94-.59-9.95.67-14.86.31-1.2-.24-2.24-.68-3.34a12.09,12.09,0,0,1,.48-11.05c.64-1.13,1.63-2.36.34-3.6-1.54-1.48-2.31.42-3.33,1s-2.14,1.58-3.35,2.18c-3.37,1.73-6.73,2.46-10.5,1-2.48-1-5.3-.72-7.91-.34a63.15,63.15,0,0,1-12.89.46c-12.29-.72-24.39,1.13-36.47,3-2.72.42-5.29-.26-7.88-.82-2.88-.63-4.33.58-3.86,3.36.77,4.51-1.43,7.64-4.24,10.62-4.66,4.16-10.48,5.1-16.33,6.53a84.31,84.31,0,0,0-20.43,8.27c-5.11,1-9.83.64-13.31-3.91-4.78-8.79-13.49-7.93-21.46-8.46-2.55-.17-4.61-.15-5.69-2.78-.2-.46-.43-1.15-.83-1.19-6.11-.62-11.52-5.32-18.11-3.16A35.68,35.68,0,0,1,7.16,182c-6.32.41-8.27-2.2-6.58-8.6a5.33,5.33,0,0,1,.94-1.12c4-1.37,1.82-5.08,2.86-7.57,1.72-2.71,4.25-4.86,5.53-7.88,1.42-3.85,3.63-6.83,8-7.65,1.85-.35,3-1.82,4.08-3.27,4.88-5.06,11.46-7.28,17.57-10.1,5.33-2.45,9.25-7.07,14.89-8.9,1.19-.38,1.52-1.66,1.75-2.84a3.72,3.72,0,0,1,3.84-3.21c2.77-.19,4.49-1.93,5.89-4.1,3.11-4.81,7.28-8.07,13.07-9,3.74-1.43,7.8-1.45,11.56-3,4.89-2,9.25-4.54,12.4-8.88,6.59-7.54,8.34-8,18.08-4.25,2.68,1,4.36.71,4.16-2.48S127,83.94,129.09,82c3.35-4.1,3.39-9.61,6-14,.49-.84-.16-2-.66-2.81a11.36,11.36,0,0,1-1-9.11c.46-1.66.62-3.34-1.46-4.17a4.58,4.58,0,0,1-1.08-.93A1.13,1.13,0,0,1,131,49.66Z"/><path class="cls-1" d="M370.18,0l1.52,1.07c7.11,1.7,14.22,3.7,19,9.65a29.11,29.11,0,0,0,11.4,8.43c3.93,2.25,8.13,4,12.07,6.19a5.73,5.73,0,0,1,1.15,1c3.34,5.26,7.4,10.07,6.31,17.19-.56,3.64-1.66,6.25-4.8,8.07-2,1.17-4.11,2.15-6.17,3.23-4.82,2.55-10.15,4-14.87,6.8a10.19,10.19,0,0,1-9.57.79c-5.12-1.93-9.94-.28-12.1,4.14-2,4.15.42,11.24,4.5,13.51,1.82,1,3.23.24,4.6-.67,1.78-1.17,3.18-3,5.44-3.39,3.29-.53,6.38-.24,9,2.14,5.94,4.06,9.86,9.61,7.87,16.83-2.3,8.33-6.81,15.39-15.93,18.27-7.6,2.39-15.39,4-23.1,5.88-5.4,1.32-8.33.25-11.17-1.11-9.95-4.74-11.86-20.27-11.61-20.35s1.63,4,7.89,22.64c1.86,7,1,13.8-1.69,20.41-2.28,5.6-3.35,11.27-1.34,17.19.48,3.51,3,5.79,5.12,8.27a10.58,10.58,0,0,1,2.8,7.65,26,26,0,0,0,1.32,8.21c1.59,5.77,1.18,11.44-2.68,16.44-8.79,9.36-19,16.63-31.25,20.78-5.59,1.9-11.14,2.57-15.4-2.95-2-4.3-1.05-7.56,3-10.19,2.78-1.79,5.39-3.89,8-5.93a3.3,3.3,0,0,0,.65-4.88c-1.37-1.81-2.57-.15-3.62.86-1.63,1.55-4.06,1.22-5.81,2.7-4.95,4.2-8,9.3-8.25,15.86-.38,8.73-2.44,16.76-9.27,22.87a3.72,3.72,0,0,0-1.61,3c.7,8.69-1.55,17.13-2.08,25.71a18.79,18.79,0,0,1-.27,3.18c-.5,1.77-1.15,3.63-.18,5.34,3.92,6.92.61,12.82-2.8,18.5a13.38,13.38,0,0,0-2.17,7.92c.46,8.29-.69,16.53-.6,24.82.08,7.52-5.71,11.51-10.51,16-3.28,5.06-8.43,7-13.92,8.48l-2.16,1a2,2,0,0,1-1.53-1.71,2.76,2.76,0,0,1,.8-2.23c8.63-2.16,13.89-8.54,19.15-15,3.74-4.61,2.21-10.2,3.2-15.29.65-3.38.25-7,.12-10.47a30,30,0,0,1,4-17.21c2.44-4.05,3.61-8.54,1.23-13.24-1.54-3-.2-6.22-.21-9.34a146.47,146.47,0,0,0,2.22-24.75c0-3.85,1.74-7.09,5-9.87A16.33,16.33,0,0,0,296.59,218c-1.14-9.44,3.48-16.05,9.44-22.28,4.3-3,8.07-7,13.76-7.35,7,3.24,8.82,6.46,7,12.08a7.19,7.19,0,0,1-4.42,5,23.59,23.59,0,0,0-6.22,4c-1.1.88-2.85,1.67-2.05,3.5s2.69,1.94,4.31,1.64a41.74,41.74,0,0,0,11.7-4c3.93-2,8.16-3.81,10.15-8.27a5.4,5.4,0,0,1,2.62-2.17c8.1-3.27,12.42-10.85,8-20.06-.76-3.34.93-7-1.51-10.11-2.61-3.14-6.05-5.74-6.72-10.16a24.8,24.8,0,0,1,.51-15.14c1.85-5.79,4.86-11.3,4.56-17.68a13.44,13.44,0,0,0-1.37-6.22c-1.22-2.33-4-4-3.36-7.17a13,13,0,0,0-2.34-3.75,14.22,14.22,0,0,1-1.83-2.78c-.65-1-.9-1.36-.86-1.89.08-1,1-1.2,1.06-2.12,0-.7-.48-1-1.06-1.9-.75-1.12-.92-2.15-1.27-4.23a11.76,11.76,0,0,1-.14-4.19,9.46,9.46,0,0,1,.57-2,6.11,6.11,0,0,1,.63-3.07A6.2,6.2,0,0,1,340.54,85a9.26,9.26,0,0,1,4.23,1.9,7.19,7.19,0,0,1,2.81,3.91,24,24,0,0,0,.57,2.86,8.16,8.16,0,0,0,2.12,3.81c.91,1.08,1.27,1.23,1.48,1.94a3.37,3.37,0,0,1,.06,1.39,25.2,25.2,0,0,0-.35,3.35c-.11,2.16,1.23,3.66,2.4,5.23a8.14,8.14,0,0,0,2.71,1.93c2.51,2.13,5.24,2,8.42,1.59a125.86,125.86,0,0,0,23.24-5.32c9.81-3.34,13.92-14.26,8.43-23-5.51-4.77-5.51-4.77-10.27-.58-7.74,4.12-8.74,3.94-14.11-2.83-1.24-1.57-2.61-3-3.87-4.55-1.91-4.88-2.33-9.59,1.67-13.75a28.51,28.51,0,0,1,10.27-7.18,6.51,6.51,0,0,1,1.38-.43,5.2,5.2,0,0,1,2.86.38,9.15,9.15,0,0,0,9.84,1.15c5.7-2.68,11.62-4.92,17.13-8,5.83-3.23,6.83-7.35,3.73-13.35a16.24,16.24,0,0,0-8.43-8c-2.3-.93-4.47-2.19-6.71-3.28l-2.56-1.28a29.74,29.74,0,0,1-10.08-7.64c-4.07-4.55-8.87-8.46-15.73-7.74-2.22-.13-4.24-.58-5.1-3a2.26,2.26,0,0,1,.24-1.55Z"/>
</svg>