<svg id="Capa_1" enable-background="new 0 0 512 512" height="512" viewBox="0 0 512 512" width="512" xmlns="http://www.w3.org/2000/svg"><g><g><path d="m387.73 82.886 14.705-25.469c8.705-15.077 3.539-34.356-11.538-43.061-15.077-8.705-34.356-3.539-43.06 11.538l-16.567 28.695c-71.575-18.821-149.959 16.411-185.158 87.739-1.694 3.432-50.578 107.533-90.591 144.461l-.606-.299c-12.242-6.041-27.064-1.014-33.105 11.228l-.397.805c-6.041 12.242-1.014 27.063 11.228 33.104l167.836 82.823c-7.009 9.154-11.183 20.594-11.183 33.015 0 30.041 24.353 54.393 54.394 54.393 25.12 0 46.251-17.033 52.504-40.176l51.826 25.575c12.242 6.041 27.064 1.014 33.105-11.228l.397-.805c5.68-11.511 1.574-25.299-9.113-31.928 4.892-54.948 56.032-159.653 56.824-161.257 34.895-70.714 15.814-153.536-41.501-199.153z" fill="#f6e06e"/><path d="m259.554 440.356c-4.727 14.387-18.261 24.779-34.23 24.779-17.066 0-31.35-11.868-35.075-27.798-.619 3.283-.956 6.666-.956 10.129 0 30.041 24.353 54.393 54.394 54.393 24.266 0 44.812-15.893 51.818-37.835-11.946-7.945-23.927-15.84-35.951-23.668z" fill="#dda86a"/><path d="m360.118 65.375c-8.498-4.194-17.205-7.522-26.026-10.024 41.887 33.295 55.84 93.793 30.352 145.444-.377.763-16.372 33.507-28.454 67.325-12.055 33.74-50.667 49.584-82.797 33.729l-152.409-75.21c-14.013 22.938-29.569 45.22-44.047 59.008 19.796 10.71 280.944 139.725 314.308 158.359 1.658-53.115 57.366-160.306 58.185-161.966 40.011-81.08 9.069-178.084-69.112-216.665z" fill="#dda86a"/><path d="m46.081 100.681 8.33 23.423c.357 1.003 1.063 1.798 1.954 2.199l20.81 9.376c2.94 1.325 2.94 6.009 0 7.333l-20.81 9.376c-.891.401-1.597 1.196-1.954 2.199l-8.33 23.423c-1.177 3.309-5.339 3.309-6.515 0l-8.33-23.423c-.357-1.003-1.063-1.798-1.954-2.199l-20.81-9.376c-2.94-1.325-2.94-6.009 0-7.333l20.81-9.376c.891-.401 1.597-1.196 1.954-2.199l8.33-23.423c1.176-3.309 5.338-3.309 6.515 0z" fill="#faf1a9"/><path d="m149.503 2.603 6.179 17.374c.265.744.788 1.333 1.449 1.631l15.437 6.955c2.181.983 2.181 4.457 0 5.44l-15.437 6.955c-.661.298-1.185.887-1.449 1.631l-6.179 17.375c-.873 2.455-3.96 2.455-4.833 0l-6.179-17.375c-.264-.744-.788-1.333-1.449-1.631l-15.437-6.955c-2.181-.983-2.181-4.457 0-5.44l15.437-6.955c.661-.298 1.185-.887 1.449-1.631l6.179-17.374c.873-2.455 3.96-2.455 4.833 0z" fill="#faf1a9"/><g fill="#f6e06e"><ellipse cx="487.545" cy="81.71" rx="18.189" ry="18.189" transform="matrix(.232 -.973 .973 .232 295.162 537.084)"/><circle cx="61.488" cy="50.779" r="7.846"/></g></g><g><path d="m448.657 154.689c-9.327-29.24-25.847-54.587-47.882-74.115l10.442-18.086c5.565-9.638 7.043-20.865 4.162-31.615-2.88-10.75-9.774-19.734-19.412-25.298-19.896-11.487-45.426-4.645-56.913 15.25l-12.774 22.125c-29.798-6.36-61.043-4.254-90.911 6.486-42.904 15.428-77.832 46.823-98.352 88.404-.082.167-.267.552-.548 1.137-8.102 16.897-24.6 50.009-44.067 81.933-16.867 27.66-29.766 44.212-39.318 54.099-15.752-4.269-32.88 3.045-40.37 18.223l-.395.802c-4.121 8.35-4.743 17.804-1.752 26.622s9.236 15.944 17.586 20.064l157.837 77.89c-4.368 8.688-6.837 18.486-6.837 28.855 0 35.584 28.95 64.534 64.534 64.534 25.46 0 47.511-14.827 58.004-36.294l41.839 20.646c4.946 2.441 10.196 3.596 15.371 3.596 12.86 0 25.25-7.138 31.314-19.427l.399-.808c6.964-14.112 3.459-30.705-7.498-40.927 2.003-14.594 7.574-37.088 20.532-71.598 15.894-42.328 34.492-80.288 34.677-80.661 20.518-41.579 24.188-88.401 10.332-131.837zm-92.038-123.725c2.856-4.946 7.466-8.484 12.983-9.962 1.842-.494 3.712-.738 5.569-.738 3.705 0 7.362.972 10.656 2.874 4.946 2.856 8.484 7.466 9.962 12.983s.719 11.279-2.136 16.225l-9.029 15.639c-6.341-4.33-13.018-8.249-20.019-11.703-5.948-2.935-12.02-5.48-18.185-7.653zm-112.932 460.755c-24.401 0-44.253-19.852-44.253-44.253 0-7.149 1.71-13.903 4.735-19.884l79.324 39.145c-7.17 14.775-22.308 24.992-39.806 24.992zm128.739-20.984-.399.808c-3.556 7.208-12.314 10.179-19.523 6.621l-315.376-155.631c-3.492-1.723-6.104-4.702-7.354-8.39-1.251-3.687-.991-7.641.735-11.137l.395-.802c3.558-7.208 12.315-10.179 19.524-6.621l315.376 155.63c7.207 3.558 10.178 12.317 6.622 19.522zm47.711-193.184c-.188.38-19.225 39.228-35.472 82.495-11.096 29.549-17.291 51.419-20.347 67.819l-291.802-143.998c10.286-11.615 22.534-28.341 37.202-52.397 19.93-32.682 36.773-66.484 45.04-83.724.229-.478.38-.793.448-.931 18.183-36.847 49.09-64.653 87.026-78.294 37.805-13.595 78.077-11.483 113.397 5.948 35.32 17.429 61.495 48.107 73.705 86.382 12.252 38.409 8.985 79.854-9.197 116.7z" fill="#3c122c"/><g fill="#fff"><path d="m203.271 148.099c-2.241 0-4.495-.738-6.372-2.257-4.354-3.523-5.029-9.908-1.507-14.262 9.499-11.743 20.72-21.879 33.35-30.126 4.688-3.063 10.974-1.743 14.035 2.947 3.062 4.69 1.743 10.973-2.947 14.035-10.857 7.089-20.503 15.803-28.67 25.899-2.003 2.477-4.933 3.764-7.889 3.764z"/><path d="m265.174 105.244c-4.265 0-8.233-2.712-9.634-6.985-1.745-5.322 1.156-11.05 6.478-12.795 3.853-1.263 7.815-2.371 11.776-3.294 5.454-1.272 10.907 2.119 12.177 7.574 1.271 5.454-2.12 10.906-7.574 12.178-3.384.789-6.77 1.735-10.061 2.814-1.05.344-2.115.508-3.162.508z"/></g></g></g></svg>