<?xml version="1.0" encoding="iso-8859-1"?>
<!-- Generator: Adobe Illustrator 19.0.0, SVG Export Plug-In . SVG Version: 6.00 Build 0)  -->
<svg version="1.1" id="Capa_1" xmlns="http://www.w3.org/2000/svg" xmlns:xlink="http://www.w3.org/1999/xlink" x="0px" y="0px"
	 viewBox="0 0 512 512" style="enable-background:new 0 0 512 512;" xml:space="preserve">
<circle style="fill:#FDB62F;" cx="409.6" cy="307.2" r="59.733"/>
<rect x="247.467" y="68.267" style="fill:#6B962A;" width="17.067" height="162.133"/>
<path style="fill:#88B337;" d="M256,68.267h-17.067c-32.99,0-59.733-26.743-59.733-59.733h17.067
	C229.257,8.533,256,35.277,256,68.267z"/>
<rect x="179.2" y="264.533" style="fill:#FFA83D;" width="119.467" height="34.133"/>
<rect x="196.267" y="298.667" style="fill:#FDB62F;" width="119.467" height="34.133"/>
<rect x="179.2" y="332.8" style="fill:#FFA83D;" width="119.467" height="34.133"/>
<rect x="196.267" y="366.933" style="fill:#FDB62F;" width="119.467" height="34.133"/>
<rect x="196.267" y="401.067" style="fill:#FFA83D;" width="119.467" height="34.133"/>
<rect x="213.333" y="435.2" style="fill:#FDB62F;" width="119.467" height="34.133"/>
<rect x="196.267" y="469.333" style="fill:#FFA83D;" width="119.467" height="34.133"/>
<path style="fill:#88B337;" d="M153.6,93.867h17.067c47.13,0,85.333,38.204,85.333,85.333l0,0l0,0h-17.067
	C191.804,179.2,153.6,140.996,153.6,93.867L153.6,93.867L153.6,93.867z"/>
<g>
	<path style="fill:#6B962A;" d="M332.8,8.533h-17.067C282.743,8.533,256,35.277,256,68.267h17.067
		C306.057,68.267,332.8,41.523,332.8,8.533z"/>
	<path style="fill:#6B962A;" d="M273.067,179.2H256l0,0l0,0c0-47.13,38.204-85.333,85.333-85.333H358.4l0,0l0,0
		C358.4,140.996,320.196,179.2,273.067,179.2z"/>
</g>
<rect x="25.6" y="332.8" style="fill:#FDB62F;" width="119.467" height="34.133"/>
<rect x="25.6" y="366.933" style="fill:#FFA83D;" width="119.467" height="34.133"/>
<rect x="42.667" y="401.067" style="fill:#FDB62F;" width="119.467" height="34.133"/>
<rect x="25.6" y="435.2" style="fill:#FFA83D;" width="119.467" height="34.133"/>
<g>
	<rect x="42.667" y="469.333" style="fill:#FDB62F;" width="119.467" height="34.133"/>
	<rect x="349.867" y="366.933" style="fill:#FDB62F;" width="119.467" height="34.133"/>
</g>
<rect x="366.933" y="401.067" style="fill:#FFA83D;" width="119.467" height="34.133"/>
<rect x="366.933" y="435.2" style="fill:#FDB62F;" width="119.467" height="34.133"/>
<g>
	<rect x="366.933" y="469.333" style="fill:#FFA83D;" width="119.467" height="34.133"/>
	<circle style="fill:#FFA83D;" cx="409.6" cy="307.2" r="34.133"/>
</g>
<g>
	<path style="fill:#FD7B2F;" d="M409.6,341.333v-17.067c9.429,0,17.067-7.637,17.067-17.067h17.067
		C443.733,326.05,428.45,341.333,409.6,341.333z"/>
	<path style="fill:#FD7B2F;" d="M392.533,307.2h-17.067c0-18.85,15.283-34.133,34.133-34.133v17.067
		C400.171,290.133,392.533,297.771,392.533,307.2z"/>
</g>
<g>
	<path style="fill:#FDB62F;" d="M426.667,93.867L426.667,93.867c-2.901-17.51-16.623-31.232-34.133-34.133l0,0
		c17.51-2.901,31.232-16.623,34.133-34.133l0,0c2.901,17.51,16.623,31.232,34.133,34.133l0,0
		C443.29,62.635,429.568,76.356,426.667,93.867z"/>
	<path style="fill:#FDB62F;" d="M85.333,281.6L85.333,281.6c-2.901-17.51-16.623-31.232-34.133-34.133l0,0
		c17.51-2.901,31.232-16.623,34.133-34.133l0,0c2.901,17.51,16.623,31.232,34.133,34.133l0,0
		C101.956,250.368,88.235,264.09,85.333,281.6z"/>
	<rect x="196.267" y="230.4" style="fill:#FDB62F;" width="119.467" height="34.133"/>
	<polygon style="fill:#FDB62F;" points="512,204.8 486.4,204.8 486.4,179.2 469.333,179.2 469.333,204.8 443.733,204.8 
		443.733,221.867 469.333,221.867 469.333,247.467 486.4,247.467 486.4,221.867 512,221.867 	"/>
</g>
<g>
	<rect y="494.933" style="fill:#DBDBDB;" width="512" height="17.067"/>
	<path style="fill:#DBDBDB;" d="M170.667,204.8c-28.279,0-51.2-22.921-51.2-51.2v-8.533h17.067v8.533
		c0,18.85,15.283,34.133,34.133,34.133V204.8z"/>
</g>
<path d="M494.933,469.333v-68.267c0-4.71-3.823-8.533-8.533-8.533h-8.533v-25.6c0-4.71-3.823-8.533-8.533-8.533h-14.763
	c28.365-24.841,31.223-67.968,6.391-96.333c-24.832-28.365-67.968-31.223-96.333-6.391c-28.365,24.832-31.223,67.968-6.391,96.333
	c1.988,2.27,4.122,4.403,6.391,6.391h-14.763c-4.71,0-8.533,3.823-8.533,8.533v34.133c0,4.71,3.823,8.533,8.533,8.533h8.533v85.333
	h-34.133v-17.067h8.533c4.71,0,8.533-3.823,8.533-8.533V435.2c0-4.71-3.823-8.533-8.533-8.533h-8.533v-59.733
	c0-4.71-3.823-8.533-8.533-8.533H307.2v-17.067h8.533c4.71,0,8.533-3.823,8.533-8.533v-34.133c0-4.71-3.823-8.533-8.533-8.533H307.2
	v-17.067h8.533c4.71,0,8.533-3.823,8.533-8.533V230.4c0-4.71-3.823-8.533-8.533-8.533h-51.2v-34.133h8.533
	c51.84,0,93.867-42.027,93.867-93.867c0-4.71-3.823-8.533-8.533-8.533h-17.067c-30.609,0.051-59.273,15.019-76.8,40.107V76.8h8.533
	c37.7,0,68.267-30.566,68.267-68.267c0-4.71-3.823-8.533-8.533-8.533h-17.067C290.876,0.026,267.998,13.551,256,35.328
	C244.002,13.551,221.124,0.026,196.267,0H179.2c-4.71,0-8.533,3.823-8.533,8.533c0,37.7,30.566,68.267,68.267,68.267h8.533v48.64
	c-17.527-25.088-46.191-40.055-76.8-40.107H153.6c-4.71,0-8.533,3.823-8.533,8.533c0,51.84,42.027,93.867,93.867,93.867h8.533
	v34.133h-51.2c-4.71,0-8.533,3.823-8.533,8.533V256H179.2c-4.71,0-8.533,3.823-8.533,8.533v34.133c0,4.71,3.823,8.533,8.533,8.533
	h8.533v17.067H179.2c-4.71,0-8.533,3.823-8.533,8.533v34.133c0,4.71,3.823,8.533,8.533,8.533h8.533V435.2
	c0,4.71,3.823,8.533,8.533,8.533h8.533V460.8h-8.533c-4.71,0-8.533,3.823-8.533,8.533v25.6h-17.067v-25.6
	c0-4.71-3.823-8.533-8.533-8.533H153.6v-17.067h8.533c4.71,0,8.533-3.823,8.533-8.533v-34.133c0-4.71-3.823-8.533-8.533-8.533H153.6
	V332.8c0-4.71-3.823-8.533-8.533-8.533H25.6c-4.71,0-8.533,3.823-8.533,8.533v68.267c0,4.71,3.823,8.533,8.533,8.533h8.533v17.067
	H25.6c-4.71,0-8.533,3.823-8.533,8.533v34.133c0,4.71,3.823,8.533,8.533,8.533h8.533v17.067H0V512h512v-17.067h-17.067V469.333z
	 M341.333,102.4h8.021c-4.343,38.861-37.188,68.25-76.288,68.267h-8.021C269.389,131.806,302.234,102.417,341.333,102.4z
	 M315.733,17.067h7.851c-4.164,24.644-25.523,42.684-50.517,42.667h-7.851C269.38,35.089,290.739,17.05,315.733,17.067z
	 M238.933,59.733c-24.994,0.017-46.353-18.022-50.517-42.667h7.851c24.994-0.017,46.353,18.022,50.517,42.667H238.933z
	 M238.933,170.667c-39.1-0.017-71.945-29.406-76.288-68.267h8.021c39.1,0.017,71.945,29.406,76.288,68.267H238.933z M153.6,409.6
	v17.067H51.2V409.6H153.6z M34.133,341.333h102.4V358.4h-102.4V341.333z M34.133,375.467h102.4v17.067h-102.4V375.467z
	 M34.133,460.8v-17.067h102.4V460.8H34.133z M153.6,494.933H51.2v-17.067h102.4V494.933z M307.2,324.267H204.8V307.2h102.4V324.267z
	 M204.8,392.533v-17.067h102.4v17.067H204.8z M307.2,409.6v17.067H204.8V409.6H307.2z M204.8,238.933h102.4V256H204.8V238.933z
	 M187.733,273.067h102.4v17.067h-102.4V273.067z M196.267,358.4h-8.533v-17.067h102.4V358.4H196.267z M307.2,494.933H204.8v-17.067
	h102.4V494.933z M221.867,460.8v-17.067h102.4V460.8H221.867z M358.4,307.2c0-28.279,22.921-51.2,51.2-51.2
	c28.279,0,51.2,22.921,51.2,51.2c0,28.279-22.921,51.2-51.2,51.2C381.321,358.4,358.4,335.479,358.4,307.2z M358.4,392.533v-17.067
	h102.4v17.067H358.4z M477.867,494.933h-102.4v-17.067h102.4V494.933z M477.867,460.8h-102.4v-17.067h102.4V460.8z M477.867,426.667
	h-102.4V409.6h102.4V426.667z"/>
<path d="M409.6,341.333c18.85,0,34.133-15.283,34.133-34.133h-17.067c0,9.429-7.637,17.067-17.067,17.067V341.333z"/>
<path d="M409.6,290.133v-17.067c-18.85,0-34.133,15.283-34.133,34.133h17.067C392.533,297.771,400.171,290.133,409.6,290.133z"/>
<path d="M435.2,24.235c0-4.71-3.823-8.533-8.533-8.533s-8.533,3.823-8.533,8.533c-2.364,13.798-13.167,24.602-26.965,26.965
	c-4.71,0-8.533,3.823-8.533,8.533s3.823,8.533,8.533,8.533c13.798,2.364,24.602,13.167,26.965,26.965
	c0,4.71,3.823,8.533,8.533,8.533s8.533-3.823,8.533-8.533c2.364-13.798,13.167-24.602,26.965-26.965c4.71,0,8.533-3.823,8.533-8.533
	s-3.823-8.533-8.533-8.533C448.367,48.836,437.564,38.033,435.2,24.235z M426.667,71.936c-3.311-4.762-7.441-8.892-12.203-12.203
	c4.762-3.311,8.892-7.441,12.203-12.203c3.311,4.762,7.441,8.892,12.203,12.203C434.108,63.044,429.978,67.174,426.667,71.936z"/>
<path d="M49.835,238.933c-4.71,0-8.533,3.823-8.533,8.533S45.124,256,49.835,256c13.798,2.364,24.602,13.167,26.965,26.965
	c0,4.71,3.823,8.533,8.533,8.533c4.71,0,8.533-3.823,8.533-8.533c2.364-13.798,13.167-24.602,26.965-26.965
	c4.71,0,8.533-3.823,8.533-8.533s-3.823-8.533-8.533-8.533c-13.798-2.364-24.602-13.167-26.965-26.965
	c0-4.71-3.823-8.533-8.533-8.533c-4.71,0-8.533,3.823-8.533,8.533C74.436,225.766,63.633,236.57,49.835,238.933z M85.333,235.264
	c3.311,4.762,7.441,8.892,12.203,12.203c-4.762,3.311-8.892,7.441-12.203,12.203c-3.311-4.762-7.441-8.892-12.203-12.203
	C77.892,244.156,82.022,240.026,85.333,235.264z"/>
<polygon points="486.4,179.2 469.333,179.2 469.333,204.8 443.733,204.8 443.733,221.867 469.333,221.867 469.333,247.467 
	486.4,247.467 486.4,221.867 512,221.867 512,204.8 486.4,204.8 "/>
<path d="M119.467,145.067v8.533c0,28.279,22.921,51.2,51.2,51.2v-17.067c-18.85,0-34.133-15.283-34.133-34.133v-8.533H119.467z"/>
<g>
</g>
<g>
</g>
<g>
</g>
<g>
</g>
<g>
</g>
<g>
</g>
<g>
</g>
<g>
</g>
<g>
</g>
<g>
</g>
<g>
</g>
<g>
</g>
<g>
</g>
<g>
</g>
<g>
</g>
</svg>
