<svg id="Layer_1" enable-background="new 0 0 511.988 511.988" height="512" viewBox="0 0 511.988 511.988" width="512" xmlns="http://www.w3.org/2000/svg"><path d="m473.975 248.493c-.018-2.801-1.7-5.479-4.221-6.703l-101.02-49.108v-132.542c0-2.786-1.654-5.461-4.145-6.708l-105.239-52.64c-2.113-1.057-4.598-1.057-6.711 0l-105.24 52.64c-2.492 1.246-4.145 3.922-4.145 6.708v29.837l-101.096 50.566c-2.523 1.261-4.145 3.952-4.145 6.762l.041 32.353c.011 9.414 15.012 9.868 15-.02l-.026-20.436 94.467 45.565c4.87 2.349 10.759-1.345 10.759-6.755v-125.734l90.24 45.138v131.959c0 2.822 1.657 5.481 4.188 6.729l101.053 49.74v101.163l-94.428-46.479c-4.907-2.407-10.812 1.287-10.812 6.729v125.105l-90.24-45.137v-131.33c0-2.879-1.648-5.504-4.242-6.755l-100.855-48.644-.053-41.001c-.011-9.414-15.012-9.868-15 .02l.059 45.703c.004 2.876 1.651 5.496 4.242 6.745l100.848 48.643v131.256c0 2.841 1.604 5.438 4.145 6.708l105.24 52.64c2.079 1.04 4.632 1.04 6.711 0l34.997-17.505c8.673-4.34 1.965-17.747-6.711-13.416l-24.142 12.075v-113.056l90.24 44.417v23.501l-27.481 13.745c-8.506 4.256-1.746 17.641 6.711 13.416l31.626-15.818c2.54-1.271 4.145-3.867 4.145-6.708v-28.285l101.247-53.551c2.456-1.3 3.993-3.851 3.993-6.63v-114.86c-.002-.014-.002-.028 0-.042zm-120.241-55.778-90.24 44.588v-119.887l90.24-45.138zm7.528 13.012 88.256 42.903-88.31 44.172-88.256-43.441zm-105.268-189.841 88.453 44.243-88.453 44.104-88.453-44.103zm-112.74 170.184-80.73-38.94 80.73-40.38zm225.48 220.537v-100.797l90.24-45.138v98.205z"/></svg>