<svg id="Capa_1" enable-background="new 0 0 512 512" height="512" viewBox="0 0 512 512" width="512" xmlns="http://www.w3.org/2000/svg"><g><g><path d="m455.58 197.16c-4.47-46.79-46.44-81.16-93.45-81.16-18.12 0-64.911 0-86.13 0l20 80c0 .09 0 .18-.01.27h.01c10.613-.409 16.967-.224 30-.27 16.57 0 30 13.43 30 30s-13.43 30-30 30c-15.892 0-151.923 0-177.15 0-12.78 0-25 4.49-34.46 12.12l-17.38 27.85v.01c-.33 1.59-.59 3.21-.75 4.86-3 29.93 20.43 55.16 49.74 55.16 9.48 0 18.35-2.64 25.9-7.22 19.69-11.95 45.16-12.67 63.55 1.2 11.58 8.74 20.55 22.94 20.55 46.02 22.05 0 39.94-17.85 40-39.88.09-33.19 26.81-60.12 60-60.12h10c52.62 0 94.7-45.16 89.58-98.84z" fill="#ffee80"/><path d="m213.34 31.24c1.34-.3 2.51-.52 3.46-.64-16.85-12.92-37.93-20.6-60.8-20.6-62.26 0-111.22 56.89-97.75 121.52 7.88 37.81 38.46 68.38 76.28 76.24 16.382 3.407 30.385 2.694 44.94-.5l26.42-101.15c-30.46-14.63-31.59-65.92 7.45-74.87z" fill="#ffee80"/><path d="m462 442 20 40h-186l-20 20h-40l-20-20h-186l20-40c26.59 0 59.09-2.9 85.05-8.66 38.484-8.033 45.239-11.34 60.95-11.34 33.14 0 60 17.91 60 40 0-22.09 26.86-40 60-40 15.705 0 22.433 3.301 60.95 11.34 25.96 5.76 58.46 8.66 85.05 8.66z" fill="#eefaff"/><circle cx="416" cy="30" fill="#ffee80" r="20"/><path d="m356 50c-23.459 0-55.045 0-80 0l40-40z" fill="#ff9256"/><path d="m296 50h40v66h-40z" fill="#eefaff"/><path d="m316 156c-24.114 0-143.846 0-160 0l80-80c21.551 21.551 67.446 67.446 80 80z" fill="#ff9256"/><g fill="#eefaff"><path d="m176 156v40c0 11.023 8.931 20 20 20v40h80v-40c10.96 0 19.85-8.8 19.99-19.73.01-.09.01-.18.01-.27v-40z"/><circle cx="96" cy="276" r="20"/></g></g><g><circle cx="436" cy="316" r="10"/><circle cx="136" cy="96" r="10"/><circle cx="56" cy="336" r="10"/><path d="m48.46 133.56c8.668 41.594 42.439 75.347 84.033 83.99 14.573 3.033 29.085 3.26 43.348.659 2.957 2.685 6.414 4.739 10.159 6.063v21.728h-37.15c-11.261 0-22.321 2.952-32.016 8.428-5.488-5.299-12.895-8.428-20.834-8.428-16.542 0-30 13.458-30 30 0 13.054 8.384 24.182 20.049 28.296-.401 15.421 5.094 30.501 15.449 41.946 19.24 21.265 50.997 26.005 75.59 11.087 17.068-10.359 38.102-10.103 52.338.633 11.153 8.417 16.574 20.859 16.574 38.038 0 5.522 4.477 10 10 10 27.495 0 49.925-22.364 50-49.853.075-27.651 22.505-50.147 50-50.147h10c57.315 0 105.329-49.042 99.535-109.791-4.935-51.648-50.908-90.209-103.405-90.209h-16.13v-46h10c4.044 0 7.691-2.437 9.239-6.173 1.548-3.737.692-8.038-2.167-10.898l-40-40c-3.905-3.904-10.237-3.904-14.143 0l-40 40c-2.86 2.86-3.715 7.161-2.167 10.898 1.547 3.736 5.194 6.173 9.238 6.173h10v46h-5.857l-37.071-37.071c-1.876-1.875-4.42-2.929-7.072-2.929s-5.196 1.054-7.071 2.929l-24.437 24.437c-7.721-6.531-12.018-17.316-10.792-28.302 1.534-13.736 11.455-22.923 24.355-24.543 4.022-.509 7.339-3.396 8.398-7.31s-.351-8.08-3.568-10.547c-19.337-14.827-42.465-22.664-66.885-22.664-69.445 0-122.133 63.544-107.54 133.56zm48.06 152.421c-.038.002-.075.004-.112.007-.137.008-.271.012-.408.012-5.514 0-10-4.486-10-10s4.486-10 10-10c5.496 0 10 4.432 10 10 0 5.336-4.165 9.721-9.48 9.981zm265.61-159.981c42.957 0 79.632 31.675 83.496 72.109 4.625 48.5-33.602 87.891-79.626 87.891h-10c-38.494 0-69.896 31.443-70 70.093-.036 13.251-8.731 24.517-20.706 28.432-2.312-18.047-10.296-32.319-23.822-42.527-20.713-15.624-50.758-16.332-74.758-1.767-16.251 9.859-37.463 6.874-50.385-7.406-7.126-7.877-10.727-17.924-10.284-28.544 11.681-4.132 19.955-15.263 19.955-28.281 0-1.224-.082-2.437-.228-3.639 6.919-4.127 14.919-6.361 23.078-6.361h177.15c22.056 0 40-17.944 40-40s-17.944-40-40-40c0 0-18.649.024-20 .039v-20.039h10c4.044 0 7.691-2.437 9.239-6.173 1.548-3.737.692-8.038-2.167-10.898l-22.929-22.929zm-106.13 60c-5.523 0-10 4.478-10 10v10h-20v-10c0-5.522-4.477-10-10-10s-10 4.478-10 10v10h-10c-5.479 0-10-4.44-10-10v-30h100s-.008 30.037-.009 30.142c-.07 5.436-4.552 9.858-9.991 9.858h-10v-10c0-5.522-4.477-10-10-10zm10 40v20h-60v-20zm40-120v-46h20v46zm10-81.857 15.858 15.857h-31.716zm-11.761 181.853c1.939-.031 21.761-.056 21.761-.056 11.028 0 20 9.032 20 20.06s-8.972 20-20 20h-40v-21.732c8.457-3.022 15.201-9.813 18.239-18.272zm-68.239-115.853 55.858 55.857h-111.716zm-80-70.143c13.499 0 26.514 2.926 38.414 8.563-11.462 7.591-18.965 19.728-20.591 34.281-1.931 17.299 4.468 33.92 16.469 44.722l-41.363 41.363c-2.86 2.86-3.715 7.161-2.167 10.898 1.548 3.736 5.194 6.173 9.239 6.173h10v30c0 1.152.086 2.292.215 3.424-9.736 1.101-19.673.62-29.65-1.455-33.918-7.049-61.457-34.572-68.525-68.489-11.975-57.453 31.085-109.48 87.959-109.48z"/><path d="m502 100h-10v-10c0-5.522-4.477-10-10-10s-10 4.478-10 10v10h-10c-5.523 0-10 4.478-10 10s4.477 10 10 10h10v10c0 5.522 4.477 10 10 10s10-4.478 10-10v-10h10c5.523 0 10-4.478 10-10s-4.477-10-10-10z"/><path d="m376 386c5.523 0 10-4.478 10-10v-10h10c5.523 0 10-4.478 10-10s-4.477-10-10-10h-10v-10c0-5.522-4.477-10-10-10s-10 4.478-10 10v10h-10c-5.523 0-10 4.478-10 10s4.477 10 10 10h10v10c0 5.522 4.477 10 10 10z"/><path d="m30 186c-5.523 0-10 4.478-10 10v10h-10c-5.523 0-10 4.478-10 10s4.477 10 10 10h10v10c0 5.522 4.477 10 10 10s10-4.478 10-10v-10h10c5.523 0 10-4.478 10-10s-4.477-10-10-10h-10v-10c0-5.522-4.477-10-10-10z"/><path d="m416 0c-16.542 0-30 13.458-30 30s13.458 30 30 30 30-13.458 30-30-13.458-30-30-30zm0 40c-5.514 0-10-4.486-10-10s4.486-10 10-10 10 4.486 10 10-4.486 10-10 10z"/><circle cx="133" cy="482" r="10"/><path d="m502 472h-13.82l-17.236-34.472c-1.694-3.388-5.156-5.528-8.944-5.528-27.708 0-59.468-3.228-82.886-8.423-37.593-7.787-45.688-11.577-63.114-11.577-25.757 0-47.852 9.457-60 23.881-12.148-14.424-34.243-23.881-60-23.881-17.406 0-25.369 3.758-63.116 11.577-23.416 5.195-55.176 8.423-82.884 8.423-3.788 0-7.25 2.14-8.944 5.528l-17.236 34.472h-13.82c-5.523 0-10 4.478-10 10s4.477 10 10 10h78c5.523 0 10-4.478 10-10s-4.477-10-10-10h-41.82l10.024-20.048c27.8-.427 57.649-3.666 81.009-8.85 39.537-8.279 44.65-11.102 58.787-11.102 27.103 0 50 13.738 50 30 0 5.522 4.477 10 10 10s10-4.478 10-10c0-16.262 22.897-30 50-30 14.143 0 19.23 2.819 58.784 11.103 23.362 5.184 53.211 8.423 81.011 8.85l10.025 20.047h-169.82c-2.652 0-5.196 1.054-7.071 2.929l-17.071 17.071h-31.716l-17.071-17.071c-1.875-1.875-4.419-2.929-7.071-2.929h-38c-5.523 0-10 4.478-10 10s4.477 10 10 10h33.858l17.071 17.071c1.875 1.875 4.419 2.929 7.071 2.929h40c2.652 0 5.196-1.054 7.071-2.929l17.071-17.071h201.858c5.523 0 10-4.478 10-10s-4.477-10-10-10z"/></g></g></svg>