<svg id="Capa_1" enable-background="new 0 0 511.967 511.967" height="512" viewBox="0 0 511.967 511.967" width="512" xmlns="http://www.w3.org/2000/svg"><g><g><g><path d="m96.827 494.869-75.739 7.994c-3.888.409-7.472-1.035-9.977-3.54s-3.949-6.089-3.54-9.977l7.994-75.739c.322-3.053 1.766-5.872 4.062-7.907l230.556-204.861 59.411 59.411-204.86 230.556c-2.036 2.297-4.854 3.741-7.907 4.063z" fill="#e1dde1"/><path d="m96.827 494.869-75.739 7.994c-3.888.409-7.472-1.035-9.977-3.54l268.778-268.778 29.706 29.706-204.861 230.555c-2.036 2.297-4.854 3.741-7.907 4.063z" fill="#b5adb6"/><path d="m96.827 494.869-75.739 7.994c-3.888.409-7.472-1.035-9.977-3.54l21.277-21.277 47.799-5.054 208.027-234.123 21.381 21.381-204.861 230.556c-2.036 2.297-4.854 3.741-7.907 4.063z" fill="#a69ca7"/></g><g><path d="m305.813 260.297-34.2-15.252c-2.772-1.236-4.989-3.453-6.225-6.225l-15.252-34.2c-2.263-5.073-.844-11.034 3.461-14.544l39.831-32.479 59.408 59.408-32.479 39.831c-3.51 4.305-9.47 5.723-14.544 3.461z" fill="#fca62f"/><path d="m305.81 260.294-22.608-10.082c4.375.026 8.699-1.914 11.63-5.489l38.578-47.138 19.424 19.424-32.481 39.822c-3.505 4.307-9.463 5.725-14.543 3.463z" fill="#f98824"/></g><path d="m355.698 61.935h54.944v130.656h-54.944z" fill="#918291" transform="matrix(.707 .707 -.707 .707 202.217 -233.667)"/><path d="m379.146 71.648h27.472v130.656h-27.472z" fill="#7a6e79" transform="matrix(.707 .707 -.707 .707 211.929 -237.69)"/><g><path d="m365.505 292.496c-4.027-4.027-6.061-9.91-4.926-15.928l6.335-33.617-99.432-99.432-33.617 6.335c-9.681 1.824-19.007-4.546-20.832-14.226-1.824-9.681 4.545-19.007 14.226-20.832l42.873-8.078c5.792-1.092 11.748.748 15.916 4.916l112.752 112.751c4.168 4.168 6.007 10.124 4.916 15.916l-8.078 42.873c-1.824 9.681-11.151 16.05-20.832 14.226-3.663-.69-6.851-2.454-9.301-4.904z" fill="#fddd45"/></g><g><path d="m374.807 297.402c-3.662-.687-6.854-2.453-9.307-4.906-4.027-4.027-6.054-9.916-4.915-15.927l.861-4.584c5.08-2.331 8.986-7.002 10.09-12.909l8.081-42.875c1.096-5.793-.748-11.743-4.915-15.91l24.095 24.095c4.167 4.167 6.011 10.117 4.915 15.91l-8.081 42.875c-1.817 9.682-11.142 16.049-20.824 14.231z" fill="#f8c52d"/></g><circle cx="453.907" cy="56.52" fill="#fddd45" r="50.587"/><path d="m489.681 92.289c-19.755 19.755-51.783 19.755-71.537 0-3.366-3.366-6.167-7.089-8.377-11.056 19.267 10.812 44.102 8.02 60.49-8.368s19.18-41.223 8.368-60.49c3.967 2.209 7.69 5.01 11.056 8.377 19.754 19.755 19.754 51.783 0 71.537z" fill="#f8c52d"/><circle cx="453.907" cy="56.52" fill="#21c1f8" r="20.27"/><path d="m468.239 70.847c-7.916 7.916-20.746 7.924-28.662.009-5.124-5.123-6.933-12.308-5.419-18.885.113.13.235.252.357.374 7.916 7.916 20.755 7.916 28.671 0 2.792-2.792 4.602-6.202 5.41-9.795 7.567 7.934 7.437 20.503-.357 28.297z" fill="#31a7fb"/></g><g><path d="m494.981 15.446c-5.851-5.852-12.736-10.303-20.462-13.23-3.873-1.467-8.203.482-9.671 4.355s.482 8.203 4.355 9.671c5.727 2.17 10.832 5.471 15.171 9.811 16.799 16.799 16.799 44.135 0 60.935-16.8 16.799-44.134 16.8-60.934 0-16.799-16.8-16.799-44.135 0-60.935 4.457-4.457 9.708-7.813 15.607-9.975 3.889-1.426 5.886-5.734 4.461-9.623-1.426-3.889-5.736-5.886-9.623-4.461-7.96 2.917-15.042 7.444-21.051 13.453-13.371 13.371-18.842 31.693-16.424 49.12l-73.411 73.411-31.647-31.647c-5.924-5.924-14.375-8.536-22.607-6.983l-42.873 8.079c-13.729 2.587-22.795 15.861-20.208 29.591 2.587 13.728 15.859 22.797 29.59 20.207l29.726-5.601 10.734 10.734-26.85 21.901c-4.387 3.573-6.905 8.758-7.237 14.155l-226.985 201.681c-3.698 3.286-6.02 7.805-6.539 12.724l-7.992 75.732c-.63 5.972 1.443 11.833 5.69 16.08 3.746 3.746 8.748 5.802 13.974 5.802.699 0 1.402-.037 2.106-.111l75.732-7.992c4.919-.519 9.438-2.841 12.724-6.54l111.148-125.091c2.751-3.096 2.472-7.837-.625-10.588-3.097-2.752-7.837-2.472-10.588.625l-111.147 125.091c-.797.897-1.893 1.46-3.085 1.586l-69.777 7.364 242.701-242.701 27.118 12.088-62.268 70.079c-2.751 3.096-2.472 7.837.625 10.588 1.429 1.27 3.207 1.894 4.979 1.894 2.068 0 4.128-.851 5.609-2.519l66.983-75.386c5.395-.328 10.583-2.853 14.161-7.247l21.901-26.858 10.739 10.739-5.601 29.726c-1.552 8.233 1.063 16.689 6.993 22.62 3.611 3.612 8.181 6.022 13.215 6.971 1.579.298 3.151.441 4.702.441 11.938 0 22.599-8.498 24.889-20.648l8.079-42.873c1.551-8.232-1.059-16.684-6.983-22.607l-2.055-2.055c-2.929-2.929-7.678-2.929-10.606 0-2.929 2.929-2.929 7.678 0 10.606l2.055 2.055c2.417 2.417 3.482 5.865 2.849 9.224l-8.079 42.873c-1.056 5.602-6.478 9.297-12.073 8.245-2.055-.387-3.917-1.368-5.385-2.836-2.423-2.424-3.492-5.876-2.859-9.236l6.334-33.617c.459-2.435-.314-4.94-2.067-6.692l-99.432-99.432c-1.751-1.752-4.258-2.527-6.692-2.067l-33.617 6.334c-5.602 1.05-11.017-2.644-12.073-8.245-1.055-5.602 2.643-11.017 8.245-12.073l42.873-8.079c3.36-.63 6.807.433 9.224 2.849l85.669 85.668c2.929 2.929 7.678 2.929 10.606 0 2.929-2.929 2.929-7.678 0-10.606l-4.564-4.564 73.415-73.415c2.665.369 5.35.56 8.036.56 14.875 0 29.75-5.662 41.074-16.986 22.646-22.65 22.646-59.501-.002-82.149zm-470.375 395.862 221.66-196.953 12.091 27.115-242.7 242.7 7.364-69.777c.125-1.193.688-2.289 1.585-3.085zm289.936-159.211c-1.364 1.676-3.692 2.231-5.67 1.346l-34.22-15.254c-1.071-.476-1.929-1.338-2.413-2.419l-15.248-34.195c-.883-1.984-.331-4.322 1.348-5.689l28.035-22.867 51.036 51.036zm71.943-99.904-28.245-28.245 16.055-16.055 28.245 28.245zm-52.88-3.61 14.029-14.029 28.245 28.245-14.029 14.029zm79.541-23.052-28.245-28.245 16.314-16.314c2.787 6.022 6.66 11.662 11.619 16.621 4.961 4.961 10.603 8.834 16.628 11.622z"/><path d="m473.544 36.883c-5.245-5.245-12.219-8.134-19.636-8.134-7.418 0-14.392 2.889-19.637 8.134s-8.134 12.219-8.134 19.637c0 7.417 2.889 14.391 8.134 19.636 5.245 5.246 12.219 8.134 19.637 8.134 7.417 0 14.391-2.889 19.636-8.134s8.134-12.219 8.134-19.636c-.001-7.418-2.889-14.392-8.134-19.637zm-10.607 28.667c-2.412 2.412-5.619 3.741-9.03 3.741s-6.618-1.329-9.03-3.741c-4.979-4.979-4.979-13.081 0-18.06 2.49-2.489 5.76-3.734 9.03-3.734 3.271 0 6.541 1.245 9.03 3.734 4.979 4.979 4.979 13.081 0 18.06z"/><path d="m285.949 202.645c-2.929 2.929-2.929 7.677 0 10.606l11.231 11.232c1.464 1.465 3.384 2.197 5.303 2.197s3.839-.732 5.303-2.197c2.929-2.929 2.929-7.677 0-10.606l-11.231-11.232c-2.927-2.929-7.676-2.928-10.606 0z"/></g></g></svg>