<?xml version="1.0" encoding="utf-8"?>
<!-- Generator: Adobe Illustrator 25.0.1, SVG Export Plug-In . SVG Version: 6.00 Build 0)  -->
<svg width='40px' height='40px' version="1.1" id="Layer_1" xmlns="http://www.w3.org/2000/svg" xmlns:xlink="http://www.w3.org/1999/xlink" x="0px" y="0px"
	 viewBox="0 0 40 40" style="enable-background:new 0 0 40 40;" xml:space="preserve">
<style type="text/css">
	.st0{fill:#5926B1;}
	.st1{fill:#FFFFFF;}
</style>
<g id="Surfaces">
	<g id="Drawing_Surface">
		<g id="Outline_no_shadow">
			<path class="st0" d="M7.1,0.5h25.8c3.9,0,7.1,3.2,7.1,7.1v24.8c0,3.9-3.2,7.1-7.1,7.1H7.1c-3.9,0-7.1-3.2-7.1-7.1V7.6
				C0,3.7,3.2,0.5,7.1,0.5z"/>
		</g>
	</g>
</g>
<path class="st1" d="M23,33.1V18.8c0,0,0.9-3.4-11.4,1.4c0,0.1,0-13.3,0-13.3h4v8.5c0,0,11.3-4.5,11.3,3.4v14.3L23,33.1L23,33.1z
	 M25.3,12H21c1.6-1.9,2.9-5.1,2.9-5.1h4.5C28.4,6.9,27.7,9,25.3,12L25.3,12z M11.7,33.1v-8.1l4.1,4.1L11.7,33.1L11.7,33.1z"/>
</svg>
