<?xml version="1.0" encoding="utf-8"?>
<!-- Generator: Adobe Illustrator 24.3.0, SVG Export Plug-In . SVG Version: 6.00 Build 0)  -->
<svg width='40px' height='40px' version="1.1" id="Layer_1" xmlns="http://www.w3.org/2000/svg" xmlns:xlink="http://www.w3.org/1999/xlink" x="0px" y="0px"
	 viewBox="0 0 2500 2500" style="enable-background:new 0 0 2500 2500;" xml:space="preserve">
<style type="text/css">
	.st0{fill:#F7DF1E;}
</style>
<g id="Surfaces">
	<g id="Drawing_Surface">
		<g id="Outline_no_shadow">
			<path class="st0" d="M442.4,31.3h1615.1c244.7,0,442.4,197.7,442.4,442.4v1552.5c0,244.7-197.7,442.4-442.4,442.4H442.4
				C197.7,2468.7,0,2270.9,0,2026.2V473.8C0,229.1,197.7,31.3,442.4,31.3z"/>
		</g>
	</g>
</g>
<path d="M781.9,2078.4L958,1971.8c34,60.3,64.9,111.2,139.1,111.2c71.1,0,115.9-27.8,115.9-136v-735.6h216.3v738.6
	c0,224.1-131.3,326.1-323,326.1C933.3,2276.2,832.8,2186.6,781.9,2078.4 M1546.9,2055.3l176.1-102
	c46.4,75.7,106.6,131.4,213.3,131.4c89.6,0,146.8-44.8,146.8-106.6c0-74.2-58.7-100.4-157.6-143.7l-54.1-23.2
	c-156.1-66.4-259.6-149.9-259.6-326c0-162.3,123.6-285.9,316.8-285.9c137.5,0,236.4,47.9,307.5,173.1l-168.5,108.2
	c-37.1-66.4-77.3-92.7-139.1-92.7c-63.4,0-103.5,40.2-103.5,92.7c0,64.9,40.2,91.2,132.9,131.4l54.1,23.2
	c183.9,78.8,287.4,159.2,287.4,340c0,194.7-153,301.3-358.5,301.3C1740,2276.3,1610.2,2180.4,1546.9,2055.3"/>
</svg>
