<?xml version="1.0" encoding="utf-8"?>
<!-- Generator: Adobe Illustrator 25.0.1, SVG Export Plug-In . SVG Version: 6.00 Build 0)  -->
<svg width='40px' height='40px' version="1.1" id="Layer_1" xmlns="http://www.w3.org/2000/svg" xmlns:xlink="http://www.w3.org/1999/xlink" x="0px" y="0px"
	 viewBox="0 0 40 40" style="enable-background:new 0 0 40 40;" xml:space="preserve">
<style type="text/css">
	.st0{fill:#E16426;}
	.st1{fill:#FFFFFF;}
</style>
<g id="Surfaces">
	<g id="Drawing_Surface">
		<g id="Outline_no_shadow">
			<path class="st0" d="M7.1,0.5h25.8c3.9,0,7.1,3.2,7.1,7.1v24.8c0,3.9-3.2,7.1-7.1,7.1H7.1c-3.9,0-7.1-3.2-7.1-7.1V7.6
				C0,3.7,3.2,0.5,7.1,0.5z"/>
		</g>
	</g>
</g>
<g>
	<path class="st1" d="M33.7,21.5l-3.4-1.7l3.3-1.5c0.3-0.1,0.4-0.4,0.3-0.8l-0.3-0.4c-0.3-0.3-0.4-0.4-0.8-0.3l-2.4,0.9
		c-0.1,0-0.1,0-0.2,0l-0.9-0.2c-0.1,0-0.2,0-0.2,0.1l-1,0.9c-0.3-1.3-0.8-2.4-1.5-3.4h1.4c0.1,0,0.1,0,0.2-0.1l0.5-0.9
		c0-0.1,0.1-0.1,0.1-0.1l2.4-1c0.2-0.1,0.3-0.3,0.2-0.6l-0.1-0.8c-0.1-0.2-0.3-0.4-0.5-0.3L27,12.6l1.3-3.4c0.1-0.3,0-0.6-0.3-0.7
		h-0.5c-0.3,0-0.6,0-0.8,0.3l-1.1,2.4c0,0.1-0.1,0.1-0.1,0.1l-0.8,0.5c-0.1,0-0.1,0.1-0.1,0.2v1.3c-1-0.8-2.2-1.2-3.5-1.4l1-1
		c0.1-0.1,0.1-0.1,0.1-0.2l-0.3-1c0-0.1,0-0.1,0-0.2l1-2.4c0.1-0.2-0.1-0.4-0.3-0.6L22,6.1c-0.2-0.1-0.5,0-0.6,0.1l-1.7,3.4
		l-1.4-3.3c-0.1-0.3-0.4-0.4-0.8-0.3l-0.4,0.3c-0.3,0.3-0.4,0.4-0.3,0.8l0.9,2.4c0,0.1,0,0.1,0,0.2l-0.2,0.9c0,0.1,0,0.2,0.1,0.2
		l0.9,1c-1.3,0.3-2.4,0.8-3.4,1.5V12c0-0.1,0-0.1-0.1-0.2l-0.9-0.5c-0.1,0-0.1-0.1-0.1-0.1l-1-2.4c-0.1-0.2-0.3-0.3-0.6-0.2
		l-0.8,0.1c-0.3-0.1-0.4,0.3-0.3,0.3l1.3,3.6l-3.4-1.3c-0.3-0.1-0.6,0-0.7,0.3v0.5c0,0.3,0,0.6,0.3,0.8l2.4,1.1
		c0.1,0,0.1,0.1,0.1,0.1l0.5,0.8c0,0.1,0.1,0.1,0.2,0.1h1.3c-0.8,1-1.2,2.2-1.4,3.5l-1-1c-0.1-0.1-0.1-0.1-0.2-0.1l-1,0.3
		c-0.1,0-0.1,0-0.2,0l-2.4-1c-0.2-0.1-0.4,0.1-0.6,0.3l-0.4,0.6c-0.1,0.2,0,0.5,0.1,0.6l3.4,1.7l-3.3,1.6c-0.3,0.1-0.4,0.4-0.3,0.8
		l0.3,0.4c0.3,0.3,0.4,0.4,0.8,0.3l2.4-0.9c0.1,0,0.1,0,0.2,0l0.9,0.2c0.1,0,0.2,0,0.2-0.1l1-0.9c0.3,1.3,0.8,2.4,1.5,3.4H12
		c-0.1,0-0.1,0-0.2,0.1l-0.5,0.9c0,0.1-0.1,0.1-0.1,0.1l-2.4,1c-0.2,0.1-0.3,0.3-0.2,0.6l0.1,0.8c0.1,0.2,0.3,0.4,0.5,0.3l3.6-1.3
		l-1.3,3.4c-0.1,0.3,0,0.6,0.3,0.7h0.5c0.3,0,0.6,0,0.8-0.3l1.1-2.4c0-0.1,0.1-0.1,0.1-0.1l0.8-0.5c0.1,0,0.1-0.1,0.1-0.2v-1.3
		c1,0.8,2.2,1.2,3.5,1.4l-1,1c-0.1,0.1-0.1,0.1-0.1,0.2l0.3,1c0,0.1,0,0.1,0,0.2l-1,2.4c-0.1,0.2,0.1,0.4,0.3,0.6l0.6,0.4
		c0.2,0.1,0.5,0,0.6-0.1l1.7-3.4l1.5,3.3c0.1,0.3,0.4,0.4,0.8,0.3l0.4-0.3c0.3-0.3,0.4-0.4,0.3-0.8l-0.9-2.4c0-0.1,0-0.1,0-0.2
		l0.3-0.9c0-0.1,0-0.2-0.1-0.2l-0.9-1c1.3-0.3,2.4-0.8,3.4-1.5V28c0,0.1,0,0.1,0.1,0.2l0.9,0.5c0.1,0,0.1,0.1,0.1,0.1l1,2.4
		c0.1,0.2,0.3,0.3,0.6,0.2l0.8-0.1c0.2-0.1,0.4-0.3,0.3-0.5l-1.3-3.6l3.4,1.3c0.3,0.1,0.6,0,0.7-0.3v-0.5c0-0.3,0-0.6-0.3-0.8
		l-2.4-1.1c-0.1,0-0.1-0.1-0.1-0.1l-0.5-0.8c0-0.1-0.1-0.1-0.2-0.1h-1.3c0.8-1,1.2-2.2,1.4-3.5l1,1c0.1,0.1,0.1,0.1,0.2,0.1l1-0.3
		c0.1,0,0.1,0,0.2,0l2.4,1c0.2,0.1,0.4-0.1,0.6-0.3L34,22C34,21.9,33.9,21.6,33.7,21.5L33.7,21.5z M25.8,19.1h-1.8
		c-0.2-0.6-0.3-1.1-0.7-1.6l1.2-1.2C25.2,17.1,25.7,18.1,25.8,19.1L25.8,19.1z M22.2,16.5c-0.5-0.3-1-0.5-1.6-0.6v-1.7
		c1,0.1,2,0.5,2.9,1.1L22.2,16.5L22.2,16.5z M22,20c0,1.2-0.9,2-2,2c-1.2,0-2-0.9-2-2s0.9-2,2-2C21.1,18,22,18.8,22,20L22,20z
		 M19,14.1v1.8c-0.6,0.2-1.1,0.3-1.6,0.7l-1.2-1.2C17,14.7,18,14.3,19,14.1L19,14.1z M16.4,17.7c-0.3,0.5-0.5,1-0.6,1.6h-1.7
		c0.1-1,0.5-2,1.1-2.9L16.4,17.7L16.4,17.7z M14.1,20.9h1.8c0.2,0.6,0.3,1.1,0.7,1.6l-1.2,1.2C14.7,22.9,14.2,21.9,14.1,20.9
		L14.1,20.9z M17.7,23.5c0.5,0.3,1,0.5,1.6,0.6v1.7c-1-0.1-2-0.5-2.9-1.1L17.7,23.5L17.7,23.5z M20.9,25.9v-1.8
		c0.6-0.2,1.1-0.3,1.6-0.7l1.2,1.2C22.9,25.3,21.9,25.7,20.9,25.9L20.9,25.9z M23.5,22.3c0.3-0.5,0.5-1,0.6-1.6h1.7
		c-0.1,1-0.5,2-1.1,2.9L23.5,22.3L23.5,22.3z"/>
</g>
</svg>
