<?xml version="1.0" encoding="utf-8"?>
<!-- Generator: Adobe Illustrator 25.0.0, SVG Export Plug-In . SVG Version: 6.00 Build 0)  -->
<svg width='40px' height='40px' version="1.1" id="Layer_1" xmlns="http://www.w3.org/2000/svg" xmlns:xlink="http://www.w3.org/1999/xlink" x="0px" y="0px"
	 viewBox="0 0 40 40" style="enable-background:new 0 0 40 40;" xml:space="preserve">
<style type="text/css">
	.st0{fill:#333333;}
	.st1{fill-rule:evenodd;clip-rule:evenodd;fill:url(#XMLID_2_);}
	.st2{clip-path:url(#SVGID_2_);}
	.st3{fill:none;}
	.st4{fill:url(#SVGID_3_);}
	.st5{clip-path:url(#SVGID_5_);}
	.st6{fill:url(#SVGID_6_);}
	.st7{fill:url(#SVGID_7_);}
	.st8{fill:url(#SVGID_8_);}
	.st9{fill:url(#SVGID_9_);}
	.st10{fill:url(#SVGID_10_);}
</style>
<g id="Surfaces">
	<g id="Drawing_Surface">
		<g id="Outline_no_shadow">
			<path class="st0" d="M7.1,0.5h25.8c3.9,0,7.1,3.2,7.1,7.1v24.8c0,3.9-3.2,7.1-7.1,7.1H7.1c-3.9,0-7.1-3.2-7.1-7.1V7.6
				C0,3.7,3.2,0.5,7.1,0.5z"/>
		</g>
	</g>
</g>
<g>
	<g>
		
			<linearGradient id="XMLID_2_" gradientUnits="userSpaceOnUse" x1="24.6745" y1="31.5359" x2="14.3675" y2="10.5097" gradientTransform="matrix(1 0 0 -1 0 42)">
			<stop  offset="0" style="stop-color:#3F873F"/>
			<stop  offset="0.3296" style="stop-color:#3F8B3D"/>
			<stop  offset="0.6367" style="stop-color:#3E9638"/>
			<stop  offset="0.9341" style="stop-color:#3DA92E"/>
			<stop  offset="1" style="stop-color:#3DAE2B"/>
		</linearGradient>
		<path id="XMLID_143_" class="st1" d="M20.7,5.6c-0.4-0.3-1-0.3-1.4,0L7.9,12.2c-0.4,0.3-0.7,0.7-0.7,1.2v13.2c0,0.5,0.3,1,0.7,1.2
			l11.4,6.6c0.4,0.3,1,0.3,1.4,0l11.4-6.6c0.4-0.3,0.7-0.7,0.7-1.2V13.4c0-0.5-0.3-1-0.7-1.2L20.7,5.6z"/>
	</g>
	<g>
		<defs>
			<path id="SVGID_1_" d="M20.7,5.6c-0.4-0.3-1-0.3-1.4,0L7.9,12.2c-0.4,0.3-0.7,0.7-0.7,1.2v13.2c0,0.5,0.3,1,0.7,1.2l11.4,6.6
				c0.4,0.3,1,0.3,1.4,0l11.4-6.6c0.4-0.3,0.7-0.7,0.7-1.2V13.4c0-0.5-0.3-1-0.7-1.2L20.7,5.6z"/>
		</defs>
		<clipPath id="SVGID_2_">
			<use xlink:href="#SVGID_1_"  style="overflow:visible;"/>
		</clipPath>
		<g class="st2">
			<path class="st3" d="M19.3,5.6L7.9,12.2c-0.4,0.3-0.7,0.7-0.7,1.2v13.2c0,0.4,0.2,0.6,0.4,0.9l12.8-22C20,5.3,19.6,5.4,19.3,5.6z
				"/>
			<path class="st3" d="M20.4,34.4c0.1,0,0.2-0.1,0.4-0.2l11.4-6.6c0.4-0.3,0.7-0.7,0.7-1.2V13.2c0-0.4-0.2-0.7-0.4-1L20.4,34.4z"/>
			
				<linearGradient id="SVGID_3_" gradientUnits="userSpaceOnUse" x1="18.2868" y1="20.5181" x2="47.2074" y2="41.8862" gradientTransform="matrix(1 0 0 -1 0 42)">
				<stop  offset="0.1376" style="stop-color:#3F873F"/>
				<stop  offset="0.4016" style="stop-color:#52A044"/>
				<stop  offset="0.7129" style="stop-color:#64B749"/>
				<stop  offset="0.9081" style="stop-color:#6ABF4B"/>
			</linearGradient>
			<path class="st4" d="M32.1,12.2L20.7,5.6c-0.1-0.1-0.3-0.1-0.4-0.2l-12.8,22c0.1,0.1,0.3,0.3,0.4,0.4l11.4,6.6
				c0.4,0.2,0.7,0.3,1.1,0.2l12.1-22.1C32.3,12.3,32.2,12.2,32.1,12.2z"/>
		</g>
	</g>
	<g>
		<defs>
			<path id="SVGID_4_" d="M20.7,5.6c-0.4-0.3-1-0.3-1.4,0L7.9,12.2c-0.4,0.3-0.7,0.7-0.7,1.2v13.2c0,0.5,0.3,1,0.7,1.2l11.4,6.6
				c0.4,0.3,1,0.3,1.4,0l11.4-6.6c0.4-0.3,0.7-0.7,0.7-1.2V13.4c0-0.5-0.3-1-0.7-1.2L20.7,5.6z"/>
		</defs>
		<clipPath id="SVGID_5_">
			<use xlink:href="#SVGID_4_"  style="overflow:visible;"/>
		</clipPath>
		<g class="st5">
			<path class="st3" d="M32.8,26.5V13.3c0-0.5-0.3-1-0.7-1.2L20.7,5.5c-0.1-0.1-0.3-0.1-0.4-0.2l12.6,21.4
				C32.8,26.7,32.8,26.6,32.8,26.5z"/>
			<path class="st3" d="M7.9,12.2c-0.4,0.3-0.7,0.7-0.7,1.2v13.2c0,0.5,0.4,1,0.7,1.2l11.4,6.6c0.3,0.2,0.6,0.2,0.9,0.2L7.9,12.2
				L7.9,12.2z"/>
			
				<linearGradient id="SVGID_6_" gradientUnits="userSpaceOnUse" x1="6.811" y1="38.8513" x2="33.189" y2="38.8513" gradientTransform="matrix(1 0 0 -1 0 42)">
				<stop  offset="9.191646e-02" style="stop-color:#6ABF4B"/>
				<stop  offset="0.2871" style="stop-color:#64B749"/>
				<stop  offset="0.5984" style="stop-color:#52A044"/>
				<stop  offset="0.8624" style="stop-color:#3F873F"/>
			</linearGradient>
			<polygon class="st6" points="18.9,3.1 18.8,3.2 18.9,3.2 			"/>
			
				<linearGradient id="SVGID_7_" gradientUnits="userSpaceOnUse" x1="6.811" y1="22.1053" x2="33.189" y2="22.1053" gradientTransform="matrix(1 0 0 -1 0 42)">
				<stop  offset="9.191646e-02" style="stop-color:#6ABF4B"/>
				<stop  offset="0.2871" style="stop-color:#64B749"/>
				<stop  offset="0.5984" style="stop-color:#52A044"/>
				<stop  offset="0.8624" style="stop-color:#3F873F"/>
			</linearGradient>
			<path class="st7" d="M32.1,27.7c0.4-0.2,0.6-0.5,0.7-0.9L20.3,5.4c-0.4-0.1-0.7,0-1,0.2L7.9,12.1l12.3,22.4
				c0.2,0,0.4-0.1,0.5-0.2L32.1,27.7z"/>
			
				<linearGradient id="SVGID_8_" gradientUnits="userSpaceOnUse" x1="6.811" y1="14.5643" x2="33.189" y2="14.5643" gradientTransform="matrix(1 0 0 -1 0 42)">
				<stop  offset="9.191646e-02" style="stop-color:#6ABF4B"/>
				<stop  offset="0.2871" style="stop-color:#64B749"/>
				<stop  offset="0.5984" style="stop-color:#52A044"/>
				<stop  offset="0.8624" style="stop-color:#3F873F"/>
			</linearGradient>
			<polygon class="st8" points="33.2,27.5 33.1,27.4 33.1,27.5 			"/>
			
				<linearGradient id="SVGID_9_" gradientUnits="userSpaceOnUse" x1="6.811" y1="11.1324" x2="33.189" y2="11.1324" gradientTransform="matrix(1 0 0 -1 0 42)">
				<stop  offset="9.191646e-02" style="stop-color:#6ABF4B"/>
				<stop  offset="0.2871" style="stop-color:#64B749"/>
				<stop  offset="0.5984" style="stop-color:#52A044"/>
				<stop  offset="0.8624" style="stop-color:#3F873F"/>
			</linearGradient>
			<path class="st9" d="M32.1,27.7l-11.4,6.6c-0.2,0.1-0.4,0.2-0.5,0.2l0.3,0.4l12.7-7.3v-0.2l-0.4-0.5
				C32.7,27.2,32.5,27.5,32.1,27.7z"/>
			
				<linearGradient id="SVGID_10_" gradientUnits="userSpaceOnUse" x1="37.0259" y1="32.18" x2="20.7576" y2="-1.0073" gradientTransform="matrix(1 0 0 -1 0 42)">
				<stop  offset="0" style="stop-color:#3F873F"/>
				<stop  offset="0.3296" style="stop-color:#3F8B3D"/>
				<stop  offset="0.6367" style="stop-color:#3E9638"/>
				<stop  offset="0.9341" style="stop-color:#3DA92E"/>
				<stop  offset="1" style="stop-color:#3DAE2B"/>
			</linearGradient>
			<path class="st10" d="M32.1,27.7l-11.4,6.6c-0.2,0.1-0.4,0.2-0.5,0.2l0.3,0.4l12.7-7.3v-0.2l-0.4-0.5
				C32.7,27.2,32.5,27.5,32.1,27.7z"/>
		</g>
	</g>
</g>
</svg>
