<?xml version="1.0" encoding="utf-8"?>
<!-- Generator: Adobe Illustrator 25.0.1, SVG Export Plug-In . SVG Version: 6.00 Build 0)  -->
<svg width='40px' height='40px' version="1.1" id="Layer_1" xmlns="http://www.w3.org/2000/svg" xmlns:xlink="http://www.w3.org/1999/xlink" x="0px" y="0px"
	 viewBox="0 0 40 40" style="enable-background:new 0 0 40 40;" xml:space="preserve">
<style type="text/css">
	.st0{fill:#3178C6;}
	.st1{fill-rule:evenodd;clip-rule:evenodd;fill:#FFFFFF;}
</style>
<g id="Surfaces">
	<g id="Drawing_Surface">
		<g id="Outline_no_shadow">
			<path class="st0" d="M7.1,0.5h25.8c3.9,0,7.1,3.2,7.1,7.1v24.8c0,3.9-3.2,7.1-7.1,7.1H7.1c-3.9,0-7.1-3.2-7.1-7.1V7.6
				C0,3.7,3.2,0.5,7.1,0.5z"/>
		</g>
	</g>
</g>
<path class="st1" d="M25.4,31.5v3.7c0.6,0.3,1.3,0.5,2.1,0.7c0.8,0.2,1.7,0.2,2.6,0.2c0.9,0,1.7-0.1,2.5-0.3
	c0.8-0.2,1.5-0.5,2.1-0.8c0.6-0.4,1.1-0.9,1.4-1.5c0.4-0.6,0.5-1.4,0.5-2.3c0-0.7-0.1-1.3-0.3-1.8s-0.5-1-0.9-1.4
	c-0.4-0.4-0.8-0.7-1.4-1.1c-0.5-0.3-1.1-0.6-1.8-0.9c-0.5-0.2-0.9-0.4-1.3-0.6c-0.4-0.2-0.7-0.4-1-0.6c-0.3-0.2-0.5-0.4-0.6-0.6
	c-0.1-0.2-0.2-0.5-0.2-0.7c0-0.3,0.1-0.5,0.2-0.7s0.3-0.4,0.6-0.5c0.2-0.1,0.5-0.3,0.9-0.3c0.3-0.1,0.7-0.1,1.2-0.1
	c0.3,0,0.6,0,1,0.1c0.3,0,0.7,0.1,1,0.2c0.3,0.1,0.7,0.2,1,0.4c0.3,0.1,0.6,0.3,0.9,0.5v-3.5c-0.6-0.2-1.2-0.4-1.9-0.5
	C33.5,19,32.8,19,31.9,19c-0.9,0-1.7,0.1-2.5,0.3s-1.5,0.5-2.1,0.9c-0.6,0.4-1.1,0.9-1.4,1.5c-0.3,0.6-0.5,1.4-0.5,2.2
	c0,1.1,0.3,2.1,1,2.8c0.6,0.8,1.6,1.4,2.9,2c0.5,0.2,1,0.4,1.4,0.6s0.8,0.4,1.1,0.6c0.3,0.2,0.6,0.5,0.8,0.7
	c0.2,0.3,0.3,0.5,0.3,0.9c0,0.2-0.1,0.5-0.2,0.7c-0.1,0.2-0.3,0.4-0.5,0.5c-0.2,0.2-0.5,0.3-0.9,0.4c-0.4,0.1-0.8,0.1-1.2,0.1
	c-0.8,0-1.6-0.1-2.4-0.4C26.8,32.5,26.1,32.1,25.4,31.5L25.4,31.5z M19.2,22.4h4.8v-3.1H10.7v3.1h4.7V36h3.8V22.4z"/>
</svg>
