<?xml version="1.0" encoding="utf-8"?>
<!-- Generator: Adobe Illustrator 25.0.1, SVG Export Plug-In . SVG Version: 6.00 Build 0)  -->
<svg width='40px' height='40px' version="1.1" id="Layer_1" xmlns="http://www.w3.org/2000/svg" xmlns:xlink="http://www.w3.org/1999/xlink" x="0px" y="0px"
	 viewBox="0 0 40 40" style="enable-background:new 0 0 40 40;" xml:space="preserve">
<style type="text/css">
	.st0{clip-path:url(#SVGID_2_);fill:url(#SVGID_3_);}
	.st1{clip-path:url(#SVGID_5_);fill:url(#SVGID_6_);}
	.st2{clip-path:url(#SVGID_8_);}
	.st3{fill:#FFFFFF;}
</style>
<g>
	<defs>
		<path id="SVGID_1_" d="M7.1,0.6h25.8c3.9,0,7.1,3.2,7.1,7.1v24.8c0,3.9-3.2,7.1-7.1,7.1H7.1c-3.9,0-7.1-3.2-7.1-7.1V7.7
			C0,3.8,3.2,0.6,7.1,0.6z"/>
	</defs>
	<clipPath id="SVGID_2_">
		<use xlink:href="#SVGID_1_"  style="overflow:visible;"/>
	</clipPath>
	
		<linearGradient id="SVGID_3_" gradientUnits="userSpaceOnUse" x1="13.3553" y1="444.5491" x2="31.4706" y2="509.7642" gradientTransform="matrix(1 0 0 1 0 -458)">
		<stop  offset="0.2849" style="stop-color:#00CDD7"/>
		<stop  offset="0.9409" style="stop-color:#2086D7"/>
	</linearGradient>
	<polygon class="st0" points="-2.3,48.4 -11.7,-7.6 5.8,-14.8 16.9,-8.2 27.1,-13.7 48.4,-5.5 36.4,55.1 	"/>
</g>
<g>
	<defs>
		<path id="SVGID_4_" d="M7.1,0.6h25.8c3.9,0,7.1,3.2,7.1,7.1v24.8c0,3.9-3.2,7.1-7.1,7.1H7.1c-3.9,0-7.1-3.2-7.1-7.1V7.7
			C0,3.8,3.2,0.6,7.1,0.6z"/>
	</defs>
	<clipPath id="SVGID_5_">
		<use xlink:href="#SVGID_4_"  style="overflow:visible;"/>
	</clipPath>
	
		<linearGradient id="SVGID_6_" gradientUnits="userSpaceOnUse" x1="19.029" y1="452.7997" x2="49.6741" y2="497.7367" gradientTransform="matrix(1 0 0 1 0 -458)">
		<stop  offset="0.1398" style="stop-color:#FFF045"/>
		<stop  offset="0.3656" style="stop-color:#00CDD7"/>
	</linearGradient>
	<polygon class="st1" points="58.3,8.8 49.3,-13.5 32.9,-14.9 7.6,9.4 14.4,40.7 27.1,49.7 58.3,31.1 50.6,16.8 	"/>
</g>
<g>
	<defs>
		<path id="SVGID_7_" d="M8.2,2.2h23.6c3.6,0,6.5,2.9,6.5,6.5v22.7c0,3.6-2.9,6.5-6.5,6.5H8.2c-3.6,0-6.5-2.9-6.5-6.5V8.7
			C1.7,5.2,4.6,2.2,8.2,2.2z"/>
	</defs>
	<clipPath id="SVGID_8_">
		<use xlink:href="#SVGID_7_"  style="overflow:visible;"/>
	</clipPath>
	<g class="st2">
		<g>
			<rect x="7" y="7.5" width="25.5" height="25.5"/>
			<rect x="9.4" y="28.2" class="st3" width="9.5" height="1.6"/>
			<path class="st3" d="M21.9,19.7l1.4-1.6c0.9,0.7,1.9,1.3,3.1,1.3c0.9,0,1.5-0.4,1.5-1v-0.1c0-0.5-0.4-0.9-2.1-1.4
				c-2.1-0.5-3.4-1.1-3.4-3.2v-0.1c0-1.9,1.6-3.2,3.7-3.2c1.6,0,2.8,0.5,3.8,1.4l-1.2,1.8c-0.9-0.6-1.8-1.1-2.7-1.1
				c-0.9,0-1.4,0.5-1.4,0.9v0.2c0,0.7,0.5,0.9,2.2,1.4c2.1,0.5,3.3,1.4,3.3,3.2v0.1c0,2.1-1.6,3.3-3.8,3.3
				C24.8,21.5,23.1,20.9,21.9,19.7"/>
		</g>
		<polygon class="st3" points="19.8,10.8 18.3,16.9 16.5,10.8 14.7,10.8 12.9,16.9 11.3,10.8 8.9,10.8 11.8,21.3 13.9,21.3 
			15.6,15.2 17.3,21.3 19.4,21.3 22.3,10.8 		"/>
	</g>
</g>
</svg>
