<?xml version="1.0" standalone="no"?>
<!DOCTYPE svg PUBLIC "-//W3C//DTD SVG 20010904//EN"
 "http://www.w3.org/TR/2001/REC-SVG-20010904/DTD/svg10.dtd">
<svg version="1.0" xmlns="http://www.w3.org/2000/svg"
 width="198.000000pt" height="198.000000pt" viewBox="0 0 198.000000 198.000000"
 preserveAspectRatio="xMidYMid meet">
<metadata>
Created by potrace 1.11, written by Peter Selinger 2001-2013
</metadata>
<g transform="translate(0.000000,198.000000) scale(0.100000,-0.100000)"
fill="#000000" stroke="none">
<path d="M829 1829 c-17 -17 -20 -29 -16 -56 4 -20 13 -43 22 -53 14 -15 14
-19 -3 -41 -21 -26 -34 -60 -38 -99 -1 -14 -2 -28 -3 -32 -1 -3 -19 -30 -42
-58 -47 -59 -67 -69 -210 -105 -57 -14 -121 -34 -142 -45 l-38 -20 7 22 c4 13
9 29 11 36 3 6 1 12 -5 12 -6 0 -13 -14 -17 -30 -4 -17 -12 -30 -18 -29 -39 5
-50 -20 -24 -55 12 -16 10 -32 -9 -105 -39 -146 -73 -273 -94 -346 -11 -39
-22 -79 -24 -90 -14 -69 -51 -175 -62 -175 -22 0 -27 -20 -10 -39 9 -10 13
-21 9 -24 -3 -4 -2 -7 4 -7 6 0 13 7 17 15 3 8 12 15 21 15 18 0 18 2 4 33 -8
19 -3 50 26 157 19 73 38 136 40 140 2 4 7 21 10 39 3 18 16 69 29 114 13 45
34 122 46 170 l23 88 21 -25 c47 -57 137 -62 254 -15 42 16 84 36 92 44 13 12
15 6 14 -48 0 -48 -9 -82 -36 -147 -51 -121 -66 -169 -83 -267 -28 -163 -18
-319 25 -358 9 -8 33 -18 55 -23 48 -10 52 -21 16 -49 -24 -19 -53 -28 -126
-38 -11 -1 -56 -10 -100 -18 -44 -8 -96 -18 -115 -22 -144 -26 -201 -36 -240
-41 -25 -3 -47 -8 -49 -10 -2 -2 -11 6 -20 18 -16 19 -18 19 -34 3 -21 -21
-22 -39 -1 -59 21 -22 35 -21 219 10 52 9 282 52 505 94 118 23 249 47 290 55
215 40 202 36 182 58 -20 22 -53 20 -219 -12 -165 -33 -180 -34 -187 -15 -4
10 0 21 9 28 9 6 18 33 21 60 7 57 9 250 3 381 -3 82 -1 95 23 141 33 64 45
73 86 67 26 -4 32 -10 33 -32 2 -93 33 -239 66 -309 45 -96 218 -214 318 -216
39 -1 42 -3 34 -22 -4 -12 -6 -24 -3 -26 2 -3 -102 -68 -232 -146 -195 -117
-240 -140 -255 -131 -25 13 -39 4 -39 -26 0 -33 32 -50 70 -36 26 9 244 137
545 322 347 213 473 294 469 301 -3 5 -8 7 -12 4 -4 -2 -16 0 -26 3 -14 6 -64
-20 -185 -94 -195 -120 -231 -139 -231 -125 0 6 -12 15 -26 20 -24 10 -25 12
-12 33 28 43 28 56 1 87 -33 39 -96 83 -183 125 -40 20 -71 43 -75 54 -6 19 2
157 10 191 2 8 7 47 10 85 4 39 11 84 16 100 14 47 -5 172 -30 199 -12 12 -21
32 -21 44 0 12 -8 30 -17 40 -10 9 -24 30 -30 45 -14 31 -19 31 96 -2 50 -15
58 -21 78 -61 13 -25 27 -67 32 -93 5 -26 17 -57 26 -67 31 -34 2 -22 -57 25
-32 25 -58 41 -58 35 0 -6 25 -29 55 -53 30 -23 55 -50 55 -59 0 -20 17 -33
45 -33 11 -1 127 -86 258 -189 178 -140 237 -193 234 -206 -4 -14 3 -17 34
-17 28 0 36 3 30 11 -5 6 -10 20 -12 31 -3 13 -12 19 -30 20 -26 0 -61 26
-389 286 -74 58 -106 90 -101 98 5 7 10 12 12 10 2 -1 14 1 26 5 46 14 50 141
8 229 -43 91 -154 160 -309 192 -50 11 -86 23 -86 30 0 7 -8 19 -17 27 -17 14
-37 15 -104 4 -22 -3 -29 -1 -26 8 7 17 -45 56 -73 56 -11 0 -30 -10 -41 -21z
m-689 -1283 c0 -3 -4 -8 -10 -11 -5 -3 -10 -1 -10 4 0 6 5 11 10 11 6 0 10 -2
10 -4z"/>
</g>
</svg>
