<svg id="Layer_1" enable-background="new 0 0 512.021 512.021" height="512" viewBox="0 0 512.021 512.021" width="512" xmlns="http://www.w3.org/2000/svg"><g><g clip-rule="evenodd" fill="#ff5d7d" fill-rule="evenodd"><path d="m222.579 85.922c-48.519-47.521-127.206-47.271-175.397.766-121.568 121.182 85.269 326.023 186.168 374.953l15.445-121.625-53.532-35.095 60.256-115.428-58.5-9z"/><path d="m329.769 148.992-63.75 131.25 48.494 36.678-33.195 143.386c101.818-51.182 303.999-253.494 183.491-373.618-48.451-48.298-127.734-48.297-176.186 0-2.517 2.509-5.185 4.655-7.961 6.459l-13.144 46.845z"/></g><g><path d="m254.277 331.652-45.96-30.131 56.067-107.402c1.492-2.86 1.514-6.265.058-9.143-1.457-2.879-4.214-4.877-7.402-5.368l-47.45-7.3 22.643-83.778c.944-3.492-.071-7.222-2.656-9.753-19.587-19.184-44.292-31.763-71.443-36.375-26.522-4.508-53.461-1.152-77.897 9.701-5.048 2.242-7.322 8.151-5.081 13.198 2.242 5.046 8.153 7.323 13.198 5.08 41.051-18.232 89.729-10.614 123 18.751l-23.986 88.75c-.743 2.747-.279 5.681 1.272 8.065 1.553 2.385 4.048 3.995 6.86 4.428l44.689 6.875-53.791 103.041c-2.378 4.556-.916 10.173 3.383 12.991l48.308 31.67-12.841 101.117c-41.102-23.244-100.164-70.913-145.731-130.479-31.822-41.6-80.557-121.343-49.404-188.029 2.337-5.004.176-10.955-4.828-13.292-5.006-2.338-10.955-.176-13.293 4.828-14.406 30.839-15.838 66.242-4.256 105.224 9.785 32.932 28.592 67.729 55.896 103.422 52.396 68.493 122.445 122.086 165.356 142.896 1.379.669 2.872 1.002 4.363 1.002 1.641 0 3.279-.404 4.764-1.207 2.831-1.534 4.751-4.338 5.157-7.533l15.443-121.625c.482-3.793-1.24-7.527-4.438-9.624z"/><path d="m471.869 79.606c-52.467-52.301-137.838-52.301-190.307 0-1.969 1.963-4.105 3.698-6.35 5.157-2.037 1.324-3.521 3.344-4.178 5.683l-13.145 46.845c-.778 2.771-.323 5.743 1.246 8.155 1.569 2.413 4.103 4.032 6.951 4.443l48.708 7.042-57.772 118.942c-2.086 4.294-.845 9.465 2.963 12.345l43.321 32.766-31.732 137.067c-.875 3.778.514 7.72 3.562 10.117 1.798 1.414 3.982 2.139 6.183 2.139 1.53 0 3.068-.351 4.489-1.065 41.098-20.659 92.292-61.637 133.604-106.941 35.672-39.12 80.332-99.073 90.509-162.538 7.544-47.042-5.259-87.468-38.052-120.157zm18.305 116.989c-15.606 97.322-123.928 200.651-194 243.876l28.081-121.295c.89-3.844-.563-7.851-3.71-10.231l-41.942-31.723 60.162-123.861c1.395-2.871 1.335-6.234-.16-9.054s-4.246-4.756-7.404-5.212l-50.976-7.37 9.104-32.442c2.225-1.671 4.353-3.517 6.354-5.512 44.683-44.541 117.387-44.541 162.067 0 27.982 27.894 38.892 62.489 32.424 102.824z"/><path d="m47.182 96.689c5.522 0 10-4.477 10-10s-4.478-10-10-10h-.008c-5.522 0-9.996 4.477-9.996 10s4.481 10 10.004 10z"/></g></g></svg>