<svg id="Capa_1" enable-background="new 0 0 512 512" height="512" viewBox="0 0 512 512" width="512" xmlns="http://www.w3.org/2000/svg"><g><g><g><path d="m439.186 504.5h-385.372c-13.807 0-25-11.193-25-25v-404.373c0-13.807 11.193-25 25-25h385.373c13.807 0 25 11.193 25 25v404.373c-.001 13.807-11.194 25-25.001 25z" fill="#eef5f6"/><path d="m458.186 60.127h-30c13.807 0 25 11.193 25 25v56.092 338.281c0 13.807-11.193 25-25 25h30c13.807 0 25-11.193 25-25v-338.281l-3-56.092c0-13.807-8.193-25-22-25z" fill="#deecf1"/><path d="m378.567 322.329c0 73.215-49.352 131.567-122.567 131.567-4.576 0-9.098.768-13.554.315-66.848-6.789-119.012-63.244-119.012-131.882 0-68.143 51.414-124.277 117.565-131.727 4.924-.555 9.929.161 15.001.161 73.215 0 122.567 58.352 122.567 131.566z" fill="#86e8d0"/><path d="m441.186 50.127h-387.372c-13.807 0-25 11.193-25 25v66.092h437.373v-66.092c-.001-13.807-11.194-25-25.001-25z" fill="#fea3c6"/><path d="m458.186 50.127h-30c13.807 0 25 11.193 25 25v66.092h30v-66.092c0-13.807-11.193-25-25-25z" fill="#fe76a8"/><path d="m256 189.763c-5.073 0-10.076.295-15 .85 66.151 7.451 117.567 63.575 117.567 131.717s-51.416 124.266-117.567 131.717c4.924.555 9.927.85 15 .85 73.215 0 132.567-59.352 132.567-132.567s-59.352-132.567-132.567-132.567z" fill="#0ed2b3"/><path d="m259.535 369.301c-1.953 1.953-5.118 1.953-7.071 0l-45.554-45.555c-11.404-11.404-11.404-29.894 0-41.298 11.404-11.404 29.894-11.404 41.298 0l7.792 7.792 7.792-7.792c11.404-11.404 29.894-11.404 41.298 0 11.404 11.404 11.404 29.894 0 41.298z" fill="#fea3c6"/><path d="m380.715 91.755c-2.657 0-5.193.482-7.513-.458-7.332-2.971-12.504-10.161-12.504-18.559v-45.221c0-8.291 5.041-15.405 12.225-18.444 2.395-1.013 5.028-.573 7.791-.573 11.055 0 19.017 7.962 19.017 19.017v45.221c0 11.055-7.962 19.017-19.016 19.017z" fill="#6354b1"/><path d="m380.715 7.5c-2.658 0-5.188.529-7.508 1.469 7.332 2.971 12.508 10.15 12.508 18.547v45.221c0 8.397-5.177 15.576-12.508 18.547 2.32.94 4.851 1.47 7.508 1.47 11.055 0 20.017-8.962 20.017-20.017v-45.22c-.001-11.055-8.963-20.017-20.017-20.017z" fill="#463b84"/><path d="m131.286 91.755c-2.657 0-5.193.482-7.513-.458-7.332-2.971-12.504-10.161-12.504-18.559v-45.221c0-8.291 5.041-15.405 12.225-18.444 2.395-1.013 5.028-.573 7.791-.573 11.055 0 19.017 7.962 19.017 19.017v45.221c0 11.055-7.962 19.017-19.016 19.017z" fill="#6354b1"/><path d="m131.286 7.5c-2.658 0-5.188.529-7.508 1.469 7.332 2.971 12.508 10.15 12.508 18.547v45.221c0 8.397-5.177 15.576-12.508 18.547 2.32.94 4.851 1.47 7.508 1.47 11.055 0 20.017-8.962 20.017-20.017v-45.22c-.001-11.055-8.963-20.017-20.017-20.017z" fill="#463b84"/></g></g><g><path d="m396.067 322.33c0-77.233-62.833-140.066-140.067-140.066s-140.067 62.833-140.067 140.066 62.833 140.067 140.067 140.067 140.067-62.834 140.067-140.067zm-264.902 7.5h71.118c.033 0 .066-.005.099-.005l44.779 44.779c2.361 2.361 5.5 3.661 8.839 3.661s6.478-1.3 8.838-3.661l44.774-44.774h23.2c4.142 0 7.5-3.358 7.5-7.5s-3.358-7.5-7.5-7.5h-13.607c4.296-12.798 1.364-27.51-8.812-37.686-14.31-14.31-37.594-14.311-51.905 0l-2.488 2.489-2.489-2.488c-14.31-14.31-37.594-14.311-51.905 0-10.176 10.176-13.108 24.888-8.812 37.686h-61.63c1.313-22.084 8.377-42.643 19.72-60.195h210.232c11.343 17.552 18.407 38.111 19.72 60.195h-15.337c-4.142 0-7.5 3.358-7.5 7.5s3.358 7.5 7.5 7.5h15.336c-1.313 22.084-8.377 42.643-19.72 60.195h-210.231c-11.342-17.553-18.406-38.112-19.719-60.196zm168.622-11.387-43.787 43.786-43.787-43.787c-8.461-8.462-8.461-22.23 0-30.692 4.231-4.231 9.789-6.346 15.346-6.346 5.558 0 11.115 2.116 15.346 6.347l7.792 7.792c2.929 2.929 7.678 2.928 10.606 0l7.792-7.792c8.463-8.462 22.231-8.461 30.692 0 8.462 8.462 8.462 22.23 0 30.692zm-43.787-121.18c37.285 0 70.806 16.406 93.739 42.372h-187.478c22.934-25.966 56.454-42.372 93.739-42.372zm-93.739 207.762h187.478c-22.933 25.965-56.454 42.372-93.739 42.372s-70.805-16.407-93.739-42.372z"/><path d="m458.186 42.627h-49.955v-15.11c0-15.173-12.344-27.517-27.516-27.517-15.173 0-27.517 12.344-27.517 27.517v15.11h-32c-4.142 0-7.5 3.358-7.5 7.5s3.358 7.5 7.5 7.5h32v15.111c0 15.173 12.344 27.517 27.517 27.517s27.517-12.344 27.517-27.517v-15.111h49.955c9.649 0 17.5 7.851 17.5 17.5v58.592h-347.584c-4.142 0-7.5 3.358-7.5 7.5s3.358 7.5 7.5 7.5h347.583v330.781c0 9.649-7.851 17.5-17.5 17.5h-404.372c-9.649 0-17.5-7.851-17.5-17.5v-330.781h58.612c4.142 0 7.5-3.358 7.5-7.5s-3.358-7.5-7.5-7.5h-58.612v-58.592c0-9.649 7.851-17.5 17.5-17.5h49.955v15.111c0 15.173 12.344 27.517 27.517 27.517s27.517-12.344 27.517-27.517v-15.111h129.946c4.142 0 7.5-3.358 7.5-7.5s-3.358-7.5-7.5-7.5h-129.946v-15.11c0-15.173-12.345-27.517-27.518-27.517s-27.517 12.344-27.517 27.517v15.11h-49.954c-17.92 0-32.5 14.58-32.5 32.5v404.373c0 17.92 14.58 32.5 32.5 32.5h404.373c17.92 0 32.5-14.58 32.5-32.5v-404.373c-.001-17.92-14.58-32.5-32.501-32.5zm-64.955 30.111c0 6.902-5.615 12.517-12.517 12.517s-12.517-5.615-12.517-12.517v-45.221c0-6.902 5.615-12.517 12.517-12.517s12.517 5.615 12.517 12.517zm-274.462-45.221c0-6.902 5.615-12.517 12.517-12.517s12.517 5.615 12.517 12.517v45.221c0 6.902-5.615 12.517-12.517 12.517h-.001c-6.902 0-12.517-5.615-12.517-12.517v-45.221z"/></g></g></svg>