<svg id="Capa_1" enable-background="new 0 0 512 512" height="512" viewBox="0 0 512 512" width="512" xmlns="http://www.w3.org/2000/svg"><g><g><path d="m256 7.5c-137.243 0-248.5 111.257-248.5 248.5s111.257 248.5 248.5 248.5 248.5-111.257 248.5-248.5-111.257-248.5-248.5-248.5zm67.493 284.055c0 17.639-14.299 31.938-31.938 31.938h-71.111c-17.639 0-31.938-14.299-31.938-31.938v-71.111c0-17.639 14.299-31.938 31.938-31.938h71.111c17.639 0 31.938 14.299 31.938 31.938z" fill="#fbc072"/><path d="m256 60.785c-107.642 0-195.215 87.574-195.215 195.215s87.573 195.215 195.215 195.215 195.215-87.573 195.215-195.215-87.573-195.215-195.215-195.215zm67.493 230.77c0 17.639-14.299 31.938-31.938 31.938h-71.111c-17.639 0-31.938-14.299-31.938-31.938v-71.111c0-17.639 14.299-31.938 31.938-31.938h71.111c17.639 0 31.938 14.299 31.938 31.938z" fill="#f9d888"/><g><g><g><ellipse cx="163.639" cy="161.143" fill="#ff889e" rx="34.079" ry="27.139"/></g><g><ellipse cx="348.361" cy="161.143" fill="#ff889e" rx="34.079" ry="27.139"/></g></g></g><path d="m125.252 42.083c-12.75-2.692-22.149-11.908-24.851-24.971-.943-4.559-4.985-7.812-9.761-7.812h-.627c-4.678 0-8.572 3.362-9.536 7.939-2.689 12.756-11.907 22.16-24.974 24.863-4.559.943-7.812 4.985-7.812 9.743v.525c0 4.671 3.28 8.698 7.854 9.649 13.041 2.714 22.24 12.106 24.929 24.842.967 4.581 4.857 7.95 9.66 7.95h.626c4.655 0 8.697-3.252 9.64-7.811 2.702-13.064 12.101-22.28 24.851-24.972 4.581-.967 7.95-4.857 7.95-9.54v-.866c.002-4.681-3.368-8.572-7.949-9.539z" fill="#f9d888"/><path d="m386.748 469.917c12.75 2.692 22.149 11.908 24.851 24.971.943 4.559 4.985 7.812 9.761 7.812h.627c4.678 0 8.572-3.362 9.536-7.939 2.689-12.756 11.906-22.159 24.974-24.862 4.559-.943 7.812-4.985 7.812-9.743v-.525c0-4.672-3.28-8.698-7.854-9.649-13.041-2.714-22.24-12.106-24.929-24.842-.967-4.581-4.857-7.95-9.66-7.95h-.626c-4.655 0-8.698 3.253-9.64 7.811-2.702 13.064-12.101 22.28-24.851 24.972-4.581.967-7.95 4.857-7.95 9.54v.866c-.002 4.68 3.368 8.571 7.949 9.538z" fill="#f9d888"/><g fill="#fccb88"><path d="m75.674 28.776c-4.497 6.748-11.473 11.527-20.17 13.326-4.559.943-7.812 4.985-7.812 9.743v.525c0 4.672 3.28 8.698 7.854 9.649 13.041 2.714 22.24 12.106 24.929 24.842.967 4.581 4.857 7.95 9.66 7.95h.626c4.655 0 8.698-3.253 9.64-7.811 1.288-6.225 4.11-11.563 8.076-15.751-18.138-6.08-31.464-22.627-32.803-42.473z"/><path d="m406.876 436.674c-4.497 6.748-11.473 11.527-20.17 13.326-4.559.943-7.812 4.985-7.812 9.743v.525c0 4.672 3.28 8.698 7.854 9.649 13.041 2.714 22.24 12.106 24.929 24.842.967 4.581 4.857 7.95 9.66 7.95h.626c4.655 0 8.698-3.253 9.64-7.811 1.288-6.225 4.11-11.563 8.076-15.751-18.137-6.08-31.463-22.627-32.803-42.473z"/></g></g><g><path d="m139.315 421.675c34.307 24.232 74.656 37.04 116.685 37.04 111.777 0 202.715-90.938 202.715-202.715s-90.938-202.714-202.715-202.714-202.715 90.937-202.715 202.714c0 55.37 21.998 107.121 61.94 145.72 2.979 2.878 7.727 2.796 10.605-.181 2.878-2.979 2.797-7.727-.181-10.605-36.992-35.748-57.364-83.668-57.364-134.934 0-103.506 84.208-187.714 187.714-187.714s187.715 84.208 187.715 187.714-84.208 187.715-187.715 187.715c-38.912 0-76.269-11.858-108.031-34.292-3.384-2.391-8.063-1.584-10.453 1.799-2.389 3.383-1.583 8.063 1.8 10.453z"/><path d="m97.99 220.445v71.111c0 4.142 3.358 7.5 7.5 7.5s7.5-3.358 7.5-7.5v-71.111c0-4.142-3.358-7.5-7.5-7.5s-7.5 3.358-7.5 7.5z"/><path d="m143.802 299.056c4.142 0 7.5-3.358 7.5-7.5v-71.111c0-4.142-3.358-7.5-7.5-7.5s-7.5 3.358-7.5 7.5v71.111c0 4.142 3.357 7.5 7.5 7.5z"/><path d="m291.555 399.009h-71.111c-4.142 0-7.5 3.358-7.5 7.5s3.358 7.5 7.5 7.5h71.111c4.142 0 7.5-3.358 7.5-7.5s-3.357-7.5-7.5-7.5z"/><path d="m291.555 360.698h-71.111c-4.142 0-7.5 3.358-7.5 7.5s3.358 7.5 7.5 7.5h71.111c4.142 0 7.5-3.358 7.5-7.5s-3.357-7.5-7.5-7.5z"/><path d="m414.009 291.556v-71.111c0-4.142-3.358-7.5-7.5-7.5s-7.5 3.358-7.5 7.5v71.111c0 4.142 3.358 7.5 7.5 7.5s7.5-3.358 7.5-7.5z"/><path d="m375.698 291.556v-71.111c0-4.142-3.358-7.5-7.5-7.5s-7.5 3.358-7.5 7.5v71.111c0 4.142 3.358 7.5 7.5 7.5s7.5-3.358 7.5-7.5z"/><path d="m183.5 113.586c-4.142 0-7.5 3.358-7.5 7.5v13.931c0 4.142 3.358 7.5 7.5 7.5s7.5-3.358 7.5-7.5v-13.931c0-4.142-3.358-7.5-7.5-7.5z"/><path d="m335.999 135.018v-13.931c0-4.142-3.358-7.5-7.5-7.5s-7.5 3.358-7.5 7.5v13.931c0 4.142 3.358 7.5 7.5 7.5s7.5-3.358 7.5-7.5z"/><path d="m256 150.811c9.493 0 18.521-4.112 24.769-11.281 2.721-3.123 2.396-7.86-.727-10.582-3.122-2.721-7.86-2.396-10.582.727-3.398 3.899-8.304 6.135-13.46 6.135s-10.062-2.236-13.459-6.135c-2.721-3.124-7.459-3.448-10.582-.727s-3.448 7.459-.727 10.582c6.247 7.169 15.275 11.281 24.768 11.281z"/><path d="m418.317 58.038c-3.202-2.628-7.928-2.163-10.556 1.038-2.628 3.202-2.163 7.928 1.038 10.556 56.053 46.011 88.201 113.94 88.201 186.368 0 59.759-21.682 116.334-61.298 160.575-4.1-5.464-10.85-7.797-17.475-6.621-6.875 1.219-12.525 6.534-13.972 13.527-2.08 10.054-9.025 17.035-19.056 19.153-8.176 1.727-13.901 8.66-13.901 16.878.044.501-.281 3.593 1.315 7.438-35.556 19.685-75.683 30.05-116.613 30.05-64.374 0-124.894-25.068-170.413-70.587-45.518-45.519-70.587-106.039-70.587-170.413 0-59.76 21.682-116.334 61.298-160.574 5.637 7.514 14.292 6.847 14.462 6.886 8.189 0 15.332-5.8 16.985-13.792 1.34-6.477 4.708-11.668 9.61-15.116 6.535-4.595 10.283-3.146 15.527-6.552 8.791-5.711 7.73-14.848 7.819-15.228 0-2.164-.428-4.433-1.315-6.572 35.557-19.686 75.685-30.052 116.614-30.052 45.799 0 90.362 12.908 128.872 37.328 3.499 2.218 8.132 1.18 10.351-2.317 2.218-3.498 1.181-8.132-2.317-10.351-40.917-25.946-88.258-39.66-136.906-39.66-45.427 0-89.927 12.03-128.938 34.812-.088-.02-.172-.048-.261-.067-10.031-2.118-16.976-9.098-19.056-19.152-1.652-7.992-8.846-13.793-17.105-13.793h-.627c-8.211 0-15.15 5.713-16.875 13.893-2.115 10.035-9.097 16.984-19.154 19.064-7.991 1.653-13.792 8.838-13.793 17.094v.519c0 8.179 5.814 15.325 13.826 16.992 6.999 1.457 12.499 5.28 15.908 10.855-45.128 47.72-69.925 109.928-69.925 175.783 0 68.38 26.628 132.667 74.98 181.02 48.353 48.351 112.64 74.98 181.02 74.98 45.428 0 89.928-12.03 128.938-34.811.088.02.172.048.261.067 10.031 2.118 16.976 9.098 19.056 19.152 1.653 7.992 8.847 13.792 17.106 13.792h.627c8.211 0 15.151-5.712 16.875-13.892 2.115-10.035 9.096-16.984 19.154-19.064 7.992-1.653 13.792-8.839 13.792-17.087v-.525c0-8.179-5.814-15.325-13.826-16.992-6.999-1.457-12.5-5.28-15.909-10.855 45.129-47.722 69.926-109.931 69.926-175.785 0-76.936-34.146-149.091-93.683-197.962zm-361.244-3.362c-1.09-.227-1.881-1.197-1.881-2.313v-.518c0-1.189.753-2.176 1.832-2.398 15.929-3.295 27.44-14.757 30.793-30.66.247-1.169 1.15-1.986 2.197-1.986h.627c1.2 0 2.194.753 2.417 1.831 5.597 27.055 30.537 30.731 30.647 30.791 1.754.371 2.267 1.896 1.961 3.452-.174.878-.931 1.598-1.962 1.816-7.503 1.584-14 5.004-19.133 9.828-5.742 5.396-9.775 12.555-11.513 20.963-.445 2.157-2.822 1.806-2.922 1.83-1.242 0-2.086-.883-2.322-2-3.288-15.56-14.594-27.276-30.741-30.636zm397.854 402.648c1.09.227 1.881 1.197 1.881 2.307v.525c0 1.189-.753 2.175-1.831 2.398-15.93 3.295-27.441 14.757-30.793 30.66-.247 1.169-1.15 1.986-2.197 1.986h-.627c-1.2 0-2.194-.753-2.417-1.831-3.294-15.924-14.75-27.434-30.646-30.791-2.47-.521-1.949-2.916-2-3.067 0-1.083.863-1.961 2-2.201 2.395-.506 4.675-1.218 6.856-2.081 21.255-8.412 23.337-28.246 24.085-29.443.005-.008.011-.014.016-.022.877-1.362 2.371-1.029 2.61-1.075 1.275 0 2.101.951 2.322 2 3.296 15.594 14.624 27.281 30.741 30.635z"/><path d="m181.007 220.445v71.111c0 21.746 17.691 39.438 39.438 39.438h71.111c21.746 0 39.438-17.691 39.438-39.438v-71.111c0-21.746-17.691-39.438-39.438-39.438h-71.111c-21.747 0-39.438 17.692-39.438 39.438zm134.986 0v71.111c0 13.475-10.962 24.438-24.438 24.438h-71.111c-13.475 0-24.438-10.962-24.438-24.438v-71.111c0-13.475 10.962-24.438 24.438-24.438h71.111c13.476 0 24.438 10.963 24.438 24.438z"/></g></g></svg>