<?xml version="1.0"?>
<svg xmlns="http://www.w3.org/2000/svg" id="Filled" viewBox="0 0 512 512" width="512" height="512"><path d="M280,104H224V488h56c106.039,0,192-85.961,192-192S386.039,104,280,104Z" style="fill:#f7b030"/><circle cx="232" cy="296" r="192" style="fill:#ffd33a"/><path d="M39,72C58.01,60.21,61.946,42.656,63,24c-.164,17.638,6.346,37.835,24,48-16.486,11.341-22.478,33.146-24,48C61.478,105.146,55.486,83.341,39,72Z" style="fill:#eb423f"/><path d="M288,104c19.01-11.79,22.946-29.344,24-48-.164,17.638,6.346,37.835,24,48-16.486,11.341-22.478,33.146-24,48C310.478,137.146,304.486,115.341,288,104Z" style="fill:#eb423f"/><path d="M88,440c19.01-11.79,22.946-29.344,24-48-.164,17.638,6.346,37.835,24,48-16.486,11.341-22.478,33.146-24,48C110.478,473.146,104.486,451.341,88,440Z" style="fill:#eb423f"/><path d="M343.635,106.34a7.942,7.942,0,0,0-3.644-9.273C335.237,94.33,319.746,83.285,320,56.074a8,8,0,0,0-15.987-.525c-.981,17.363-4.552,30.959-18.4,40.455L232,96C121.72,96,32,185.72,32,296A198.413,198.413,0,0,0,85.464,432.105c-.546.371-1.1.738-1.68,1.1a8,8,0,0,0-.318,13.39c16.222,11.159,19.85,35.14,20.576,42.224a8,8,0,0,0,15.916,0,82.357,82.357,0,0,1,5.946-23.253A198.83,198.83,0,0,0,232,496h48c110.28,0,200-89.72,200-200A200.072,200.072,0,0,0,343.635,106.34ZM421.5,360h31.013a183.893,183.893,0,0,1-26.633,48h-28.26A199.457,199.457,0,0,0,421.5,360Zm.018-128h31.01A183.57,183.57,0,0,1,463.3,280H431.357A199.864,199.864,0,0,0,421.517,232ZM416,216v1.527A199.015,199.015,0,0,0,385.671,168h26.548a184.649,184.649,0,0,1,33.49,48Zm-21.37-64H370.766a200.5,200.5,0,0,0-40.685-30.329c.5-.783,1.026-1.557,1.58-2.314A183.067,183.067,0,0,1,394.63,152ZM311.992,90.07a54.773,54.773,0,0,0,11.22,14.435A63.464,63.464,0,0,0,312,121.384a63.412,63.412,0,0,0-11.269-16.94A52.094,52.094,0,0,0,311.992,90.07ZM112,457.384a63.415,63.415,0,0,0-11.269-16.939,52.1,52.1,0,0,0,11.261-14.375,54.773,54.773,0,0,0,11.22,14.435A63.464,63.464,0,0,0,112,457.384ZM134.4,452a35.316,35.316,0,0,1,6.134-5.413,8,8,0,0,0-.542-13.524c-4.754-2.737-20.245-13.782-19.992-40.993a8,8,0,0,0-15.987-.525c-.64,11.334-2.382,21.063-7.366,29.1A182.534,182.534,0,0,1,48,296c0-101.458,82.542-184,184-184a183.359,183.359,0,0,1,62.733,10.981c6.828,11.393,8.8,24.829,9.309,29.834a8,8,0,0,0,15.916,0,85.342,85.342,0,0,1,3.437-16.53A183.4,183.4,0,0,1,416,296c0,101.458-82.542,184-184,184A182.909,182.909,0,0,1,134.4,452Zm185.451,23.637A201.24,201.24,0,0,0,385.55,424h26.5A183.946,183.946,0,0,1,319.851,475.641ZM457.636,344H426.163A199.732,199.732,0,0,0,432,296h32A183.6,183.6,0,0,1,457.636,344Z"/><path d="M34.466,78.591c16.222,11.159,19.85,35.14,20.576,42.224a8,8,0,0,0,15.916,0c.726-7.084,4.354-31.064,20.576-42.224a8,8,0,0,0-.542-13.524C86.238,62.33,70.747,51.285,71,24.074a8,8,0,0,0-15.987-.525C53.99,41.654,50.159,55.666,34.784,65.2a8,8,0,0,0-.318,13.39ZM63,89.384A63.415,63.415,0,0,0,51.731,72.445,52.1,52.1,0,0,0,62.992,58.07a54.773,54.773,0,0,0,11.22,14.435A63.464,63.464,0,0,0,63,89.384Z"/><path d="M232,240a24.027,24.027,0,0,1,24,24,8,8,0,0,0,16,0,40.067,40.067,0,0,0-32-39.195V208a8,8,0,0,0-16,0v16.805A40,40,0,0,0,232,304a24,24,0,1,1-24,24,8,8,0,0,0-16,0A40.067,40.067,0,0,0,224,367.2V384a8,8,0,0,0,16,0V367.2A40,40,0,0,0,232,288a24,24,0,0,1,0-48Z"/><path d="M358.4,211.549a8,8,0,0,0-13.3,8.9A135.347,135.347,0,0,1,368,296c0,74.991-61.01,136-136,136a135.149,135.149,0,0,1-52.887-10.664,8,8,0,0,0-6.226,14.739A151.058,151.058,0,0,0,232,448c83.813,0,152-68.187,152-152A151.3,151.3,0,0,0,358.4,211.549Z"/><path d="M254.676,161.881a8,8,0,1,0,2.648-15.779A153.43,153.43,0,0,0,232,144c-83.813,0-152,68.187-152,152a152.217,152.217,0,0,0,5.942,42.218,8,8,0,1,0,15.373-4.436A136.215,136.215,0,0,1,96,296c0-74.991,61.009-136,136-136A137.445,137.445,0,0,1,254.676,161.881Z"/></svg>
