<svg id="Capa_1" enable-background="new 0 0 512 512" height="512" viewBox="0 0 512 512" width="512" xmlns="http://www.w3.org/2000/svg"><g><path d="m470.98 94.091h10.115c5.69 0 10.302 4.612 10.302 10.302v303.903c0 22.758-18.449 41.207-41.207 41.207h-160.76c-4.039 0-7.83 2.295-9.404 6.015-2.346 5.546-7.838 9.438-14.238 9.438h-44.298c-6.401 0-11.893-3.892-14.238-9.438-1.574-3.72-5.365-6.015-9.404-6.015h-156.641c-22.758 0-41.207-18.449-41.207-41.207v-303.904c0-5.69 4.612-10.302 10.302-10.302h28.442l217.256 78.602z" fill="#6f6571"/><path d="m314.154 449.499c-4.038 0-7.829 2.297-9.406 6.016-2.349 5.553-7.84 9.436-14.237 9.436h-30.905c6.397 0 11.888-3.884 14.237-9.436 1.576-3.719 5.367-6.016 9.406-6.016z" fill="#5d5360"/><path d="m512 104.388v303.903c0 22.767-18.45 41.207-41.207 41.207h-30.905c22.757 0 41.207-18.44 41.207-41.207l-24.905-123.741 24.905-180.162c0-5.625-4.512-10.199-10.116-10.302h30.72c5.686 0 10.301 4.616 10.301 10.302z" fill="#5d5360"/><path d="m140.62 32.28h-67.992c-5.69 0-10.302 4.612-10.302 10.302v30.905h88.596v-30.905c0-5.69-4.613-10.302-10.302-10.302z" fill="#fc8d94"/><path d="m30.905 375.501v32.795c0 5.69 4.612 10.302 10.302 10.302h429.586c5.69 0 10.302-4.612 10.302-10.302v-30.906z" fill="#f0e5e0"/><path d="m256 418.617-64.691-162.617 64.691-151.608c0-22.758 18.449-41.207 41.207-41.207h173.581c5.69 0 10.302 4.612 10.302 10.302v303.903c0 5.69-4.612 10.302-10.302 10.302h-183.883c-17.069 0-30.905 13.837-30.905 30.905z" fill="#faf2f3"/><path d="m292.056 233.165h64.901l92.716-92.716v-25.755c0-2.845-2.306-5.151-5.151-5.151h-152.466c-2.845 0-5.151 2.306-5.151 5.151v113.32c0 2.845 2.307 5.151 5.151 5.151z" fill="#fff"/><path d="m150.922 377.39h-88.596v92.016c0 7.531 7.818 12.517 14.646 9.341l23.134-10.76c4.132-1.922 8.902-1.922 13.034 0l23.135 10.76c6.829 3.176 14.646-1.81 14.646-9.341v-92.016z" fill="#fc8d94"/><path d="m256 418.617v-314.225c0-22.758-18.449-41.207-41.207-41.207h-173.581c-5.69 0-10.302 4.612-10.302 10.302v303.903c0 5.69 4.612 10.302 10.302 10.302h183.882c17.069 0 30.905 13.837 30.905 30.905v.02z" fill="#faf2f3"/><path d="m219.944 233.165h-152.467c-2.845 0-5.151-2.306-5.151-5.151v-113.32c0-2.845 2.306-5.151 5.151-5.151h152.467c2.845 0 5.151 2.306 5.151 5.151v113.32c0 2.845-2.307 5.151-5.151 5.151z" fill="#fff"/><g fill="#d8cfce"><path d="m122.369 323.153-23.05-61.078c-.027-.07-.054-.141-.083-.21-1.413-3.438-4.727-5.658-8.444-5.658-.003 0-.006 0-.009 0-3.72.003-7.034 2.23-8.442 5.673-.024.058-.047.117-.069.176l-23.261 61.076c-1.519 3.988.483 8.452 4.47 9.97 3.988 1.52 8.451-.483 9.97-4.47l3.898-10.235h26.708l3.854 10.213c1.168 3.094 4.108 5.001 7.23 5 .906 0 1.828-.16 2.726-.499 3.994-1.508 6.009-5.966 4.502-9.958zm-39.134-20.209 7.53-19.771 7.461 19.771z"/><path d="m441.948 302.702h-147.316c-4.268 0-7.726-3.459-7.726-7.726s3.459-7.726 7.726-7.726h147.316c4.268 0 7.726 3.459 7.726 7.726s-3.459 7.726-7.726 7.726z"/><path d="m441.948 364.513h-147.316c-4.268 0-7.726-3.459-7.726-7.726s3.459-7.726 7.726-7.726h147.316c4.268 0 7.726 3.459 7.726 7.726s-3.459 7.726-7.726 7.726z"/><path d="m441.948 333.608h-147.316c-4.268 0-7.726-3.459-7.726-7.726s3.459-7.726 7.726-7.726h147.316c4.268 0 7.726 3.459 7.726 7.726s-3.459 7.726-7.726 7.726z"/><path d="m441.948 271.797h-147.316c-4.268 0-7.726-3.459-7.726-7.726s3.459-7.726 7.726-7.726h147.316c4.268 0 7.726 3.459 7.726 7.726s-3.459 7.726-7.726 7.726z"/><path d="m217.368 302.702h-67.992c-4.267 0-7.726-3.459-7.726-7.726s3.459-7.726 7.726-7.726h67.992c4.267 0 7.726 3.459 7.726 7.726.001 4.267-3.459 7.726-7.726 7.726z"/><path d="m217.368 364.513h-147.316c-4.267 0-7.726-3.459-7.726-7.726s3.459-7.726 7.726-7.726h147.316c4.267 0 7.726 3.459 7.726 7.726.001 4.267-3.459 7.726-7.726 7.726z"/><path d="m217.368 333.608h-67.992c-4.267 0-7.726-3.459-7.726-7.726s3.459-7.726 7.726-7.726h67.992c4.267 0 7.726 3.459 7.726 7.726s-3.459 7.726-7.726 7.726z"/><path d="m217.368 271.797h-88.596c-4.267 0-7.726-3.459-7.726-7.726s3.459-7.726 7.726-7.726h88.596c4.267 0 7.726 3.459 7.726 7.726.001 4.267-3.459 7.726-7.726 7.726z"/></g><path d="m145.558 138.946 4.295 8.703c2.251 4.561 6.602 7.722 11.635 8.453l9.604 1.396c1.69.246 2.365 2.322 1.142 3.514l-6.949 6.774c-3.642 3.55-5.304 8.665-4.444 13.678l1.641 9.565c.289 1.683-1.478 2.967-2.989 2.172l-8.59-4.516c-4.502-2.367-9.88-2.367-14.382 0l-8.59 4.516c-1.512.795-3.278-.489-2.989-2.172l1.641-9.565c.86-5.013-.802-10.128-4.444-13.678l-6.949-6.774c-1.223-1.192-.548-3.269 1.142-3.514l9.604-1.396c5.033-.731 9.384-3.893 11.635-8.453l4.295-8.703c.752-1.531 2.936-1.531 3.692 0z" fill="#ffe07d"/><path d="m333.264 171.354c-8.534 0-15.453-6.918-15.453-15.453 0-8.534 6.918-15.453 15.453-15.453 8.534 0 15.453 6.918 15.453 15.453-.001 8.535-6.919 15.453-15.453 15.453z" fill="#ffe07d"/><path d="m449.674 140.449v30.905l-61.811 61.811h-30.905c0-51.206 41.51-92.716 92.716-92.716z" fill="#fc8d94"/><path d="m449.674 171.354v30.905l-30.905 30.905h-30.905c-.001-34.136 27.673-61.81 61.81-61.81z" fill="#ccf49f"/><path d="m418.769 233.165h25.755c2.845 0 5.151-2.306 5.151-5.151v-25.754c-17.07 0-30.906 13.836-30.906 30.905z" fill="#71ddf9"/></g></svg>