<svg id="Capa_1" enable-background="new 0 0 512 512" height="512" viewBox="0 0 512 512" width="512" xmlns="http://www.w3.org/2000/svg"><g><g><path d="m389.819 498.117h31.075v-426.117h-31.075l7.692 188.4z" fill="#ab7b64"/><path d="m122.181 498.117h-31.075l7.681-237.716-7.681-188.401h31.075z" fill="#ab7b64"/><g fill="#9a6a53"><path d="m91.11 72v26.14 315.72 84.26h15 16.07v-84.26h-11.07c-2.761 0-5-2.239-5-5v-305.72c0-2.761 2.239-5 5-5h11.07v-26.14h-16.07z"/><path d="m420.89 98.14v-26.14h-16.07-15v26.14 315.72 84.26h15 16.07v-84.26h-11.07c-2.761 0-5-2.239-5-5v-305.72c0-2.761 2.239-5 5-5z"/></g><path d="m356.74 155.799v-77.657h-194.48v77.656c0 38.625 20.723 72.411 51.662 90.855 7.093 4.228 7.11 14.57.029 18.817-30.985 18.586-51.691 52.085-51.691 90.731v77.656l190.315 8.802 4.166-28.8v-57.659c0-38.576-20.671-72.325-51.544-90.785-7.1-4.245-7.1-14.587 0-18.833 30.872-18.458 51.543-52.207 51.543-90.783z" fill="#f5fcff"/><path d="m179.26 98.14h177.48v-20h-183.48-18v20 57.66c0 38.62 20.72 72.41 51.66 90.85 7.09 4.23 7.11 14.57.03 18.82-30.99 18.59-51.69 52.09-51.69 90.73v57.66 20l93.144 8.8 108.336-8.8v-20h-173.48c-5.523 0-10-4.477-10-10v-47.66c0-31.01 16.06-59.16 42.95-75.29 8.81-5.29 14.06-14.58 14.04-24.88-.01-10.29-5.29-19.58-14.11-24.84-26.45-15.76-42.88-44.65-42.88-75.39v-51.66c0-3.314 2.686-6 6-6z" fill="#e6f7fe"/><path d="m326.635 383.981c-.837-28.113-18.604-51.754-43.226-62.001-7.483-3.114-12.373-10.401-12.373-18.503v-64.725c0-8.202 5.042-15.47 12.621-18.612 23.176-9.611 40.326-31.188 42.702-57.46.045-.496.085-.994.12-1.492.205-2.908-2.089-5.389-5.005-5.389h-121.064l-6.865 1.424c-2.916 0-5.211 2.48-5.006 5.388.035.5.075.998.12 1.496 2.376 26.273 19.509 43.424 42.683 53.034 7.579 3.143 12.621 10.411 12.621 18.612l1 70.727c0 8.103-4.89 15.388-12.373 18.504-24.6 10.242-42.356 33.86-43.224 61.959-.024.772-.036 1.545-.036 2.321l-4 54.616 135.839-1.218 5.498-28.8v-27.598c.002-.764-.01-1.525-.032-2.283z" fill="#ffe07d"/><path d="m326.67 413.86h-120.34c-3.314 0-6-2.686-6-6v-21.6c0-.62.01-1.24.03-1.85.65-21.19 14-40.25 34-48.58 13.12-5.46 21.6-18.16 21.6-32.35v-64.73c0-14.21-8.58-26.96-21.87-32.47-15.8-6.55-27.38-19.69-31.78-35.48 0 0-1-6.89-1.9-15h-9.88c-2.92 0-5.21 2.48-5.01 5.39.04.5.08 1 .12 1.49 2.38 26.28 19.53 47.85 42.7 57.46 7.58 3.14 12.62 10.41 12.62 18.61v64.73c0 8.1-4.89 15.39-12.37 18.5-24.6 10.24-42.35 33.86-43.22 61.96-.03.77-.04 1.55-.04 2.32v27.6 20 10.02h15l42.968 3.631 83.372-13.651z" fill="#ffd064"/><path d="m423.535 78.142h-335.07c-8.265 0-15.683-5.07-18.682-12.769l-13.76-35.328h387.445l.62 30.524-1.871 4.804c-2.999 7.699-10.417 12.769-18.682 12.769z" fill="#ab7b64"/><path d="m423.535 433.858h-320.152l-7.872 1.65c-8.265 0-15.683 5.07-18.682 12.769l-20.807 33.678h399.955l-13.761-35.328c-2.998-7.699-10.416-12.769-18.681-12.769z" fill="#ab7b64"/><path d="m455.98 30.05h-369.96-30l11.89 30.52 1.866 4.79c3.002 7.706 10.424 12.78 18.694 12.78h2.64l8.869 6.477 18.491-6.477c-8.27 0-15.69-5.07-18.69-12.77-.899-2.309.804-4.8 3.281-4.8h341.029z" fill="#9a6a53"/><path d="m455.5 42.571h-378.415l-18.766-2.525c-5.523 0-10-4.477-10-10l.043-11.726c0-5.523 4.477-10 10-10l16.298-.82h380.84c5.523 0 10 4.477 10 10v15.071c0 5.522-4.477 10-10 10z" fill="#b78c7a"/><path d="m81.5 42.57h-25c-5.52 0-10-4.48-10-10v-15.07c0-5.52 4.48-10 10-10h25c-5.52 0-10 4.48-10 10v15.07c0 5.52 4.48 10 10 10z" fill="#ab7b64"/><path d="m444.09 451.43h-343.029c-2.478 0-4.181-2.491-3.281-4.8 3-7.7 10.42-12.77 18.69-12.77l-15.257-2.945-10.106 2.945h-2.637c-8.27 0-15.692 5.074-18.694 12.78l-1.866 4.79-11.89 30.52h28 371.96z" fill="#9a6a53"/><path d="m455.5 469.429h-399c-5.523 0-10 4.477-10 10v15.071c0 5.523 4.477 10 10 10h399c5.523 0 10-4.477 10-10v-15.071c0-5.522-4.477-10-10-10z" fill="#b78c7a"/><path d="m79.5 504.5h-23c-5.52 0-10-4.48-10-10v-15.07c0-5.52 4.48-10 10-10h23c-5.52 0-10 4.48-10 10v15.07c0 5.52 4.48 10 10 10z" fill="#ab7b64"/></g><g><path d="m449.206 68.095 7.035-18.062c9.304-.393 16.759-8.063 16.759-17.463v-15.07c0-9.649-7.851-17.5-17.5-17.5h-225.5c-4.142 0-7.5 3.357-7.5 7.5s3.358 7.5 7.5 7.5h225.5c1.378 0 2.5 1.121 2.5 2.5v15.07c0 1.379-1.122 2.5-2.5 2.5h-399c-1.378 0-2.5-1.121-2.5-2.5v-15.07c0-1.379 1.122-2.5 2.5-2.5h138.5c4.142 0 7.5-3.357 7.5-7.5s-3.358-7.5-7.5-7.5h-138.5c-9.649 0-17.5 7.851-17.5 17.5v15.07c0 9.399 7.455 17.07 16.759 17.462l7.035 18.063c3.552 9.118 11.444 15.46 20.812 17.108v341.592c-9.368 1.648-17.26 7.99-20.812 17.109l-7.035 18.062c-9.304.394-16.759 8.064-16.759 17.464v15.07c0 9.649 7.851 17.5 17.5 17.5h399c9.649 0 17.5-7.851 17.5-17.5v-15.07c0-9.399-7.455-17.07-16.759-17.462l-7.035-18.063c-3.552-9.118-11.444-15.46-20.812-17.108v-341.593c9.368-1.648 17.26-7.99 20.812-17.109zm-372.434-5.444-4.9-12.581h368.257l-4.9 12.58c-1.891 4.855-6.48 7.992-11.693 7.992h-335.071c-5.213.001-9.802-3.136-11.693-7.991zm320.547 363.706v-340.714h16.074v340.715h-16.074zm-40.955-111.713c-1.521-3.852-5.877-5.742-9.731-4.221-3.852 1.521-5.742 5.878-4.22 9.73 4.53 11.47 6.827 23.599 6.827 36.048v70.156h-15.072c-.031-8.794.063-34.7-.037-42.6-.894-30.012-19.672-56.979-47.841-68.701-4.711-1.961-7.755-6.506-7.755-11.58v-64.725c0-5.084 3.138-9.671 7.994-11.685 26.619-11.038 44.743-35.451 47.299-63.713.049-.546.093-1.093.132-1.641.244-3.459-.972-6.897-3.334-9.434-2.358-2.53-5.694-3.981-9.153-3.981h-130.947c-3.458 0-6.794 1.451-9.152 3.981-2.363 2.536-3.579 5.975-3.334 9.433.039.549.083 1.097.132 1.646 2.555 28.259 20.679 52.671 47.297 63.709 4.856 2.015 7.995 6.602 7.995 11.686v64.727c0 5.072-3.044 9.617-7.756 11.579-28.133 11.714-46.911 38.661-47.837 68.65-.1 1.953-.01 40.158-.039 42.648h-15.072v-70.156c0-34.738 17.962-66.252 48.048-84.299 5.609-3.363 8.953-9.291 8.943-15.854-.009-6.566-3.37-12.486-8.989-15.836-29.609-17.652-48.002-49.998-48.002-84.413v-70.155h186.48v70.156c0 34.364-18.352 66.685-47.893 84.348-5.621 3.361-8.977 9.287-8.977 15.854s3.356 12.492 8.976 15.853c9.065 5.421 17.166 12.231 24.078 20.243 1.483 1.72 3.577 2.601 5.682 2.601 1.735 0 3.479-.599 4.896-1.821 3.136-2.706 3.485-7.442.779-10.578-7.961-9.228-17.293-17.072-27.737-23.318-1.511-.903-1.674-2.384-1.674-2.979s.163-2.075 1.674-2.979c16.513-9.874 30.341-23.887 39.988-40.524 9.948-17.155 15.207-36.762 15.207-56.698v-70.158h18.079v340.715h-18.078v-70.156c0-14.345-2.65-28.327-7.876-41.558zm-234.183-173.144c-4.142 0-7.5 3.357-7.5 7.5v277.357h-16.075v-340.714h16.074v28.357c0 4.143 3.358 7.5 7.5 7.5s7.5-3.357 7.5-7.5v-28.357h18.079v70.156c0 19.963 5.271 39.59 15.243 56.762 9.671 16.653 23.53 30.67 40.079 40.536 1.504.896 1.669 2.377 1.669 2.972.001.594-.159 2.071-1.659 2.971-34.647 20.782-55.333 57.104-55.333 97.162v70.156h-18.079v-277.358c.002-4.143-3.356-7.5-7.498-7.5zm335.819 353c0 1.379-1.122 2.5-2.5 2.5h-399c-1.378 0-2.5-1.121-2.5-2.5v-15.07c0-1.379 1.122-2.5 2.5-2.5h4.357c.014 0 .028.002.043.002.009 0 .017-.002.026-.002h390.149c.009 0 .017.002.026.002.014 0 .028-.002.043-.002h4.357c1.378 0 2.5 1.121 2.5 2.5v15.07zm-22.772-45.151 4.9 12.581h-368.256l4.9-12.58c1.891-4.855 6.481-7.992 11.693-7.992h137.535c4.142 0 7.5-3.357 7.5-7.5s-3.358-7.5-7.5-7.5h-33.168c.029-2.019-.058-39.97.032-42.185.745-24.118 15.9-45.812 38.609-55.267 10.322-4.297 16.991-14.277 16.991-25.427v-64.727c0-11.17-6.77-21.195-17.249-25.541-21.045-8.727-35.496-27.773-37.974-49.913h125.517c-2.479 22.141-16.931 41.187-37.974 49.913-10.478 4.345-17.249 14.37-17.249 25.54v64.725c0 11.151 6.669 21.133 16.991 25.428 22.737 9.463 37.893 31.17 38.611 55.3.079 1.611.006 40.058.03 42.153h-57.658c-4.142 0-7.5 3.357-7.5 7.5s3.358 7.5 7.5 7.5h162.024c5.215 0 9.804 3.137 11.695 7.992z"/></g></g></svg>