<svg id="Layer_1" enable-background="new 0 0 512 512" height="512" viewBox="0 0 512 512" width="512" xmlns="http://www.w3.org/2000/svg"><g><g><g><path d="m293.027 60.694h-73.156v-35.563c0-9.737 7.893-17.631 17.631-17.631h37.894c9.737 0 17.631 7.893 17.631 17.631z" fill="#7d889e"/><g><path d="m294.854 177.405v-60.49h-76.81v60.49c0 2.704-1.808 5.076-4.419 5.78-69.698 18.79-120.985 82.328-120.985 157.829 0 90.291 73.339 163.486 163.808 163.486s163.808-73.195 163.808-163.486c0-75.502-51.287-139.039-120.985-157.83-2.609-.704-4.417-3.076-4.417-5.779z" fill="#cedff8"/><path d="m299.272 183.184c-2.61-.704-4.419-3.076-4.419-5.78v-60.49h-40v60.49c0 2.704 1.808 5.076 4.419 5.78 69.698 18.791 120.985 82.328 120.985 157.83 0 83.533-62.774 152.425-143.808 162.271 6.556.797 13.229 1.215 20 1.215 90.469 0 163.808-73.195 163.808-163.486 0-75.501-51.287-139.039-120.985-157.83z" fill="#c0d3f0"/><path d="m306.55 116.914h-100.203c-6.093 0-11.033-4.94-11.033-11.033v-33.916c0-6.093 4.94-11.033 11.033-11.033h100.203c6.093 0 11.033 4.94 11.033 11.033v33.917c0 6.093-4.94 11.032-11.033 11.032z" fill="#a1b2ca"/><path d="m306.55 60.932h-40c6.093 0 11.033 4.94 11.033 11.033v33.917c0 6.093-4.94 11.033-11.033 11.033h40c6.093 0 11.033-4.939 11.033-11.033v-33.917c0-6.093-4.94-11.033-11.033-11.033z" fill="#94a7c5"/><g><g><path d="m127.857 303.925c-3.407 11.779-5.234 24.227-5.234 37.102 0 73.764 59.916 133.562 133.826 133.562s133.826-59.798 133.826-133.562c0-12.875-1.828-25.323-5.234-37.102z" fill="#d65bf5"/></g><g fill="#edb0ff"><ellipse cx="177.043" cy="373.213" rx="16.649" ry="16.616"/><ellipse cx="294.585" cy="408.141" rx="25.994" ry="25.943"/><ellipse cx="343.791" cy="350.294" rx="16.649" ry="16.616"/></g></g></g></g><g fill="#ffcc57"><path d="m404.989 79.817 15.357 40.734 40.733 15.356-40.733 15.356-15.357 40.734-15.356-40.734-40.733-15.356 40.733-15.356z"/><path d="m146.077 171.107 13.993 37.12 37.12 13.994-37.12 13.993-13.993 37.12-13.994-37.12-37.12-13.993 37.12-13.994z"/><path d="m91.505 49.143 11.111 29.473 29.474 11.111-29.474 11.112-11.111 29.473-11.111-29.473-29.474-11.112 29.474-11.111z"/></g></g><g><path d="m302.354 176.251v-51.837h4.196c10.219 0 18.532-8.314 18.532-18.533v-33.916c0-10.219-8.313-18.533-18.532-18.533h-6.023v-28.302c0-13.857-11.273-25.13-25.131-25.13h-37.895c-13.857 0-25.13 11.273-25.13 25.13v28.302h-6.024c-10.219 0-18.533 8.314-18.533 18.533v33.917c0 10.219 8.314 18.533 18.533 18.533h4.197v51.836c-16.539 4.581-32.196 11.596-46.643 20.875l-10.806-28.664c-2.352-6.236-11.65-6.327-14.036 0l-12.796 33.944-33.944 12.796c-6.236 2.352-6.327 11.65 0 14.036l26.487 9.985c-21.758 29.306-33.664 65.154-33.664 101.791-.001 94.282 76.847 170.986 171.307 170.986 32.721 0 64.532-9.241 91.996-26.723 8.161-5.195.105-17.851-8.055-12.653-25.053 15.947-54.079 24.376-83.941 24.376-86.188 0-156.308-69.975-156.308-155.985 0-32.568 10.315-64.451 29.208-90.792l9.71 25.757c2.352 6.236 11.65 6.327 14.036 0l12.796-33.944 33.944-12.796c6.236-2.352 6.327-11.65 0-14.036l-22.757-8.579c12.052-7.108 24.956-12.547 38.499-16.198 5.868-1.582 9.967-6.937 9.967-13.021v-52.99h61.81v52.99c0 6.085 4.099 11.439 9.966 13.021 67.968 18.325 115.438 80.249 115.438 150.589 0 38.228-13.996 75.004-39.41 103.553-6.416 7.206 4.737 17.239 11.203 9.974 27.862-31.299 43.207-71.617 43.207-113.527-.001-76.717-51.508-144.3-125.404-164.765zm-74.983-151.121c0-5.586 4.544-10.13 10.13-10.13h37.895c5.586 0 10.131 4.544 10.131 10.13v28.064h-58.156zm-69.946 204.066c-2.019.761-3.611 2.354-4.373 4.373l-6.976 18.504-6.976-18.504c-.761-2.019-2.354-3.611-4.373-4.373l-18.504-6.976 18.504-6.976c2.019-.761 3.611-2.354 4.373-4.373l6.976-18.504 6.976 18.504c.761 2.019 2.354 3.611 4.373 4.373l18.504 6.976zm48.922-119.781c-1.948 0-3.533-1.585-3.533-3.533v-33.917c0-1.948 1.585-3.533 3.533-3.533h100.203c1.947 0 3.532 1.585 3.532 3.533v33.917c0 1.948-1.585 3.533-3.532 3.533z"/><path d="m184.437 296.425h-56.58c-3.34 0-6.277 2.208-7.205 5.417-3.669 12.686-5.529 25.869-5.529 39.185 0 77.782 63.398 141.063 141.326 141.063s141.326-63.28 141.326-141.063c0-13.313-1.86-26.497-5.529-39.185-.928-3.208-3.865-5.417-7.205-5.417h-160.689c-9.674 0-9.674 15 0 15h154.919c2.327 9.652 3.504 19.583 3.504 29.602 0 69.511-56.67 126.063-126.326 126.063s-126.326-56.551-126.326-126.063c0-10.02 1.177-19.952 3.503-29.602h50.811c9.674 0 9.674-15 0-15z"/><path d="m152.894 373.213c0 13.298 10.833 24.116 24.149 24.116s24.149-10.818 24.149-24.116-10.833-24.116-24.149-24.116-24.149 10.819-24.149 24.116zm33.298 0c0 5.027-4.104 9.116-9.149 9.116s-9.149-4.089-9.149-9.116 4.104-9.116 9.149-9.116 9.149 4.09 9.149 9.116z"/><path d="m294.585 374.698c-18.469 0-33.494 15.002-33.494 33.443 0 18.44 15.025 33.443 33.494 33.443s33.494-15.002 33.494-33.443c.001-18.44-15.025-33.443-33.494-33.443zm0 51.886c-10.197 0-18.494-8.273-18.494-18.443s8.297-18.443 18.494-18.443 18.494 8.273 18.494 18.443c.001 10.17-8.296 18.443-18.494 18.443z"/><path d="m367.94 350.293c0-13.298-10.833-24.116-24.149-24.116-13.315 0-24.148 10.818-24.148 24.116s10.833 24.116 24.148 24.116c13.316.001 24.149-10.818 24.149-24.116zm-33.298 0c0-5.027 4.104-9.116 9.148-9.116s9.149 4.089 9.149 9.116-4.104 9.116-9.149 9.116-9.148-4.089-9.148-9.116z"/><path d="m463.725 128.889-37.559-14.159-14.159-37.558c-2.35-6.236-11.651-6.327-14.035 0l-14.16 37.558-37.558 14.159c-6.236 2.352-6.327 11.65 0 14.036l37.558 14.159 14.16 37.559c2.35 6.236 11.651 6.327 14.035 0l14.159-37.559 37.559-14.159c6.237-2.351 6.326-11.65 0-14.036zm-46.025 15.356c-2.019.761-3.611 2.354-4.372 4.373l-8.338 22.118-8.339-22.118c-.761-2.019-2.354-3.611-4.372-4.373l-22.118-8.338 22.118-8.338c2.019-.761 3.611-2.354 4.372-4.373l8.339-22.118 8.338 22.118c.761 2.019 2.354 3.611 4.372 4.373l22.118 8.338z"/><path d="m91.505 137.813c3.122 0 5.917-1.934 7.018-4.854l9.914-26.298 26.298-9.914c6.236-2.352 6.327-11.65 0-14.036l-26.298-9.914-9.914-26.298c-2.351-6.237-11.65-6.326-14.036 0l-9.914 26.298-26.298 9.914c-6.236 2.352-6.327 11.65 0 14.036l26.298 9.914 9.914 26.298c1.102 2.92 3.897 4.854 7.018 4.854zm-8.465-43.992-10.858-4.093 10.858-4.093c2.019-.761 3.611-2.354 4.373-4.373l4.093-10.857 4.093 10.857c.761 2.019 2.354 3.611 4.373 4.373l10.858 4.093-10.858 4.093c-2.019.761-3.611 2.354-4.373 4.373l-4.093 10.857-4.093-10.857c-.762-2.019-2.355-3.612-4.373-4.373z"/></g></g></svg>
