<svg id="Capa_1" enable-background="new 0 0 512 512" height="512" viewBox="0 0 512 512" width="512" xmlns="http://www.w3.org/2000/svg"><g><path d="m467 105h-211l-20 151 20 151h211z" fill="#efe2dd"/><path d="m45 105h211v302h-211z" fill="#fff5f5"/><g fill="#cdbfba"><path d="m120 151h121v30h-121z"/><path d="m120 211h121v30h-121z"/><path d="m120 271h121v30h-121z"/><path d="m120 331h121v30h-121z"/></g><path d="m271 151h121v30h-121z" fill="#9b9696"/><path d="m271 211h121v30h-121z" fill="#9b9696"/><path d="m271 271h121v30h-121z" fill="#9b9696"/><path d="m271 331h121v30h-121z" fill="#9b9696"/><path d="m30 30h30v452h-30z" fill="#895140"/><path d="m90 75h-90v30l45 20 45-20z" fill="#e1bb78"/><path d="m90 105h-90v30l45 20 45-20z" fill="#c9885b"/><path d="m0 437h90v-30l-45-20-45 20z" fill="#e1bb78"/><path d="m0 407h90v-30l-45-20-45 20z" fill="#c9885b"/><path d="m0 135h90v242h-90z" fill="#e1bb78"/><path d="m452 30h30v452h-30z" fill="#5b362a"/><path d="m512 75h-90v30l45 20 45-20z" fill="#c9885b"/><path d="m512 105h-90v30l45 20 45-20z" fill="#895140"/><path d="m422 437h90v-30l-45-20-45 20z" fill="#c9885b"/><path d="m422 407h90v-30l-45-20-45 20z" fill="#895140"/><path d="m422 135h90v242h-90z" fill="#c9885b"/></g></svg>